STARTFONT 2.1
COMMENT
COMMENT Converted from OpenType font "SourceSansPro-Regular.otf" by "otf2bdf 3.0".
COMMENT
FONT -FreeType-Source Sans Pro-Medium-R-Normal--36-260-100-100-P-164-ISO10646-1
SIZE 26 100 100
FONTBOUNDINGBOX 94 45 -16 -10
STARTPROPERTIES 19
FOUNDRY "FreeType"
FAMILY_NAME "Source Sans Pro"
WEIGHT_NAME "Medium"
SLANT "R"
SETWIDTH_NAME "Normal"
ADD_STYLE_NAME ""
PIXEL_SIZE 36
POINT_SIZE 260
RESOLUTION_X 100
RESOLUTION_Y 100
SPACING "P"
AVERAGE_WIDTH 164
CHARSET_REGISTRY "ISO10646"
CHARSET_ENCODING "1"
FONT_ASCENT 35
FONT_DESCENT 9
COPYRIGHT "Copyright 2010, 2012, 2014 Adobe Systems Incorporated (http://www.adobe.com/), with Reserved Font Name Source."
_OTF_FONTFILE "SourceSansPro-Regular.otf"
_OTF_PSNAME "SourceSansPro-Regular"
ENDPROPERTIES
CHARS 1296
STARTCHAR 0020
ENCODING 32
SWIDTH 193 0
DWIDTH 7 0
BBX 0 0 0 0
BITMAP
ENDCHAR
STARTCHAR 0021
ENCODING 33
SWIDTH 276 0
DWIDTH 10 0
BBX 4 25 3 0
BITMAP
70
70
70
70
70
70
70
70
70
60
60
60
60
60
60
60
60
00
00
00
00
F0
F0
F0
70
ENDCHAR
STARTCHAR 0022
ENCODING 34
SWIDTH 415 0
DWIDTH 15 0
BBX 9 9 3 16
BITMAP
E380
E380
E380
E380
E380
E180
E180
E180
C180
ENDCHAR
STARTCHAR 0023
ENCODING 35
SWIDTH 498 0
DWIDTH 18 0
BBX 16 23 1 0
BITMAP
060C
060C
0608
0618
0618
0C18
0C18
7FFF
7FFF
0C18
0C18
0C30
0C30
1830
FFFE
FFFE
1830
1830
1820
1860
1860
3060
3060
ENDCHAR
STARTCHAR 0024
ENCODING 36
SWIDTH 498 0
DWIDTH 18 0
BBX 14 31 2 -4
BITMAP
0300
0300
0300
0300
0FC0
1FF0
3EF8
7818
7000
7000
7000
7000
7800
3E00
1F80
07E0
01F0
0078
0038
001C
001C
001C
401C
E038
FCF8
3FF0
0FC0
0300
0300
0300
0300
ENDCHAR
STARTCHAR 0025
ENCODING 37
SWIDTH 830 0
DWIDTH 30 0
BBX 28 24 1 0
BITMAP
1F001800
3F801800
71C03000
60C06000
60E06000
E060C000
E060C000
E0618000
E0618000
E0630F00
60E31F80
60C638C0
31C630E0
3F8C6060
0E0C6060
00186060
00306070
00306070
00606060
00606060
00C07060
00C030C0
01801FC0
01800F00
ENDCHAR
STARTCHAR 0026
ENCODING 38
SWIDTH 609 0
DWIDTH 22 0
BBX 20 24 1 0
BITMAP
03E000
07F000
0E3800
0C1800
1C1800
1C1800
1C3800
0C3000
0EF000
0FE000
078000
0F0070
1F8070
3BC060
71E0E0
70E0C0
E071C0
E03F80
E01F80
F00F00
701FC0
3EFFF0
1FF8F0
0FC030
ENDCHAR
STARTCHAR 0027
ENCODING 39
SWIDTH 249 0
DWIDTH 9 0
BBX 3 9 3 16
BITMAP
E0
E0
E0
E0
E0
E0
E0
E0
C0
ENDCHAR
STARTCHAR 0028
ENCODING 40
SWIDTH 304 0
DWIDTH 11 0
BBX 6 32 3 -5
BITMAP
0C
1C
18
18
30
30
70
60
60
60
E0
E0
E0
C0
C0
C0
C0
C0
E0
E0
E0
60
60
60
70
30
30
38
18
1C
0C
0C
ENDCHAR
STARTCHAR 0029
ENCODING 41
SWIDTH 304 0
DWIDTH 11 0
BBX 6 32 2 -5
BITMAP
C0
E0
60
70
30
30
38
38
18
18
1C
1C
1C
1C
0C
0C
0C
0C
1C
1C
1C
18
18
18
38
30
30
70
60
E0
C0
C0
ENDCHAR
STARTCHAR 002A
ENCODING 42
SWIDTH 415 0
DWIDTH 15 0
BBX 11 10 2 15
BITMAP
0400
0600
0E00
EEE0
FFE0
3F80
1F00
1B00
3B80
31C0
ENDCHAR
STARTCHAR 002B
ENCODING 43
SWIDTH 498 0
DWIDTH 18 0
BBX 16 16 1 4
BITMAP
0180
0180
0180
0180
0180
0180
0180
FFFF
FFFF
0180
0180
0180
0180
0180
0180
0180
ENDCHAR
STARTCHAR 002C
ENCODING 44
SWIDTH 249 0
DWIDTH 9 0
BBX 5 10 2 -6
BITMAP
70
78
78
78
18
18
30
70
E0
C0
ENDCHAR
STARTCHAR 002D
ENCODING 45
SWIDTH 304 0
DWIDTH 11 0
BBX 9 2 1 8
BITMAP
FF80
FF80
ENDCHAR
STARTCHAR 002E
ENCODING 46
SWIDTH 249 0
DWIDTH 9 0
BBX 5 5 2 0
BITMAP
20
70
F8
F8
70
ENDCHAR
STARTCHAR 002F
ENCODING 47
SWIDTH 360 0
DWIDTH 13 0
BBX 11 31 1 -6
BITMAP
0060
00E0
00C0
00C0
01C0
0180
0180
0180
0300
0300
0300
0700
0600
0600
0E00
0C00
0C00
0C00
1800
1800
1800
3000
3000
3000
7000
6000
6000
E000
C000
C000
C000
ENDCHAR
STARTCHAR 0030
ENCODING 48
SWIDTH 498 0
DWIDTH 18 0
BBX 14 23 2 0
BITMAP
0FC0
1FE0
3EF0
7038
7038
E01C
E01C
E01C
E01C
E01C
E01C
C01C
E01C
E01C
E01C
E01C
E01C
E01C
7038
7838
3CF0
1FE0
0F80
ENDCHAR
STARTCHAR 0031
ENCODING 49
SWIDTH 498 0
DWIDTH 18 0
BBX 13 23 3 0
BITMAP
0700
3F00
7F00
7F00
0700
0700
0700
0700
0700
0700
0700
0700
0700
0700
0700
0700
0700
0700
0700
0700
0700
FFF8
FFF8
ENDCHAR
STARTCHAR 0032
ENCODING 50
SWIDTH 498 0
DWIDTH 18 0
BBX 15 23 1 0
BITMAP
07C0
1FF0
7DF8
F03C
601C
001C
001C
001C
001C
001C
0038
0038
0070
00E0
01C0
03C0
0780
0F00
1E00
3C00
78FE
FFFE
FFFE
ENDCHAR
STARTCHAR 0033
ENCODING 51
SWIDTH 498 0
DWIDTH 18 0
BBX 15 23 1 0
BITMAP
07E0
1FF0
7EF8
703C
201C
001C
001C
001C
003C
00F8
07E0
07E0
01F8
003C
000E
000E
000E
000E
400E
E01C
7EFC
3FF8
0FE0
ENDCHAR
STARTCHAR 0034
ENCODING 52
SWIDTH 498 0
DWIDTH 18 0
BBX 16 23 1 0
BITMAP
0078
00F8
00F8
01F8
03B8
03B8
0738
0E38
0E38
1C38
3838
3038
7038
E038
FFFF
FFFF
0038
0038
0038
0038
0038
0038
0038
ENDCHAR
STARTCHAR 0035
ENCODING 53
SWIDTH 498 0
DWIDTH 18 0
BBX 15 23 1 0
BITMAP
3FFC
3FFC
3FFC
3800
3800
3800
3800
3800
3BE0
3FF8
3C7C
101C
000E
000E
000E
000E
000E
000E
401E
E03C
7FF8
3FF0
0FC0
ENDCHAR
STARTCHAR 0036
ENCODING 54
SWIDTH 498 0
DWIDTH 18 0
BBX 14 23 2 0
BITMAP
03E0
0FF8
1FFC
3808
7000
7000
6000
E000
E000
E3E0
EFF0
FC78
F01C
E01C
E00C
E00C
E00C
600C
701C
783C
3EF8
1FF0
07C0
ENDCHAR
STARTCHAR 0037
ENCODING 55
SWIDTH 498 0
DWIDTH 18 0
BBX 14 23 2 0
BITMAP
FFFC
FFFC
FFFC
0038
0038
0070
0060
00E0
00C0
01C0
0180
0380
0380
0380
0700
0700
0700
0700
0700
0700
0700
0F00
0F00
ENDCHAR
STARTCHAR 0038
ENCODING 56
SWIDTH 498 0
DWIDTH 18 0
BBX 15 23 1 0
BITMAP
07E0
0FF8
1C3C
381C
380E
300E
300E
380C
3C1C
1E18
0FF0
0FF0
18F8
303C
700E
600E
6006
E006
700E
700E
3C3C
1FF8
07E0
ENDCHAR
STARTCHAR 0039
ENCODING 57
SWIDTH 498 0
DWIDTH 18 0
BBX 15 23 1 0
BITMAP
07C0
1FF0
3EF8
783C
701C
600C
E00E
E00E
600E
700E
701E
3C7E
3FEE
0F8E
000E
000E
000C
001C
001C
2038
7DF0
3FE0
0F80
ENDCHAR
STARTCHAR 003A
ENCODING 58
SWIDTH 249 0
DWIDTH 9 0
BBX 5 18 2 0
BITMAP
20
70
F8
F8
70
00
00
00
00
00
00
00
00
20
70
F8
F8
70
ENDCHAR
STARTCHAR 003B
ENCODING 59
SWIDTH 249 0
DWIDTH 9 0
BBX 5 23 2 -6
BITMAP
70
F8
F8
70
20
00
00
00
00
00
00
00
00
70
78
78
78
18
18
30
70
E0
C0
ENDCHAR
STARTCHAR 003C
ENCODING 60
SWIDTH 498 0
DWIDTH 18 0
BBX 16 14 1 4
BITMAP
0003
000F
007F
01F8
0FE0
3F00
F800
F000
FC00
1F80
07F0
00FC
001F
0007
ENDCHAR
STARTCHAR 003D
ENCODING 61
SWIDTH 498 0
DWIDTH 18 0
BBX 16 10 1 7
BITMAP
FFFF
FFFF
0000
0000
0000
0000
0000
0000
FFFF
FFFF
ENDCHAR
STARTCHAR 003E
ENCODING 62
SWIDTH 498 0
DWIDTH 18 0
BBX 16 14 1 4
BITMAP
C000
F000
FE00
1F80
07F0
00FC
001F
000F
003F
01F8
0FC0
7F00
F800
E000
ENDCHAR
STARTCHAR 003F
ENCODING 63
SWIDTH 415 0
DWIDTH 15 0
BBX 12 25 2 0
BITMAP
1F00
7FC0
FFE0
C0E0
00F0
0070
0070
00E0
00E0
01C0
03C0
0380
0700
0E00
0E00
0E00
0C00
0000
0000
0000
0000
1E00
1E00
1E00
0C00
ENDCHAR
STARTCHAR 0040
ENCODING 64
SWIDTH 858 0
DWIDTH 31 0
BBX 27 29 2 -6
BITMAP
001FE000
00FFF800
01E03E00
07800F00
0E000380
1C000180
180001C0
380000C0
701F60C0
603FE0E0
6071E060
E0E0E060
C0C0C060
C1C0C060
C1C0C0C0
C181C0C0
C181C0C0
C1C1C180
C1C7C380
E0FEFE00
60787C00
60000000
70000000
38000000
1C000000
1E002000
0780E000
03FFE000
007F0000
ENDCHAR
STARTCHAR 0041
ENCODING 65
SWIDTH 553 0
DWIDTH 20 0
BBX 19 24 0 0
BITMAP
00F000
00F000
01F000
01B800
01B800
039800
039C00
031C00
070C00
070E00
060E00
0E0600
0E0700
0C0700
1FFF00
1FFF80
180380
380380
3801C0
3801C0
7001C0
7000E0
7000E0
E000E0
ENDCHAR
STARTCHAR 0042
ENCODING 66
SWIDTH 581 0
DWIDTH 21 0
BBX 17 24 3 0
BITMAP
FFE000
FFF800
E0FC00
E01E00
E00E00
E00E00
E00E00
E00E00
E00E00
E03C00
FFF800
FFFC00
E07E00
E00F00
E00700
E00380
E00380
E00380
E00380
E00700
E00F00
E07E00
FFFC00
FFF000
ENDCHAR
STARTCHAR 0043
ENCODING 67
SWIDTH 581 0
DWIDTH 21 0
BBX 17 24 2 0
BITMAP
01F800
07FE00
0FFF80
1E0300
3C0100
780000
700000
700000
E00000
E00000
E00000
E00000
E00000
E00000
E00000
E00000
F00000
700000
780000
3C0100
1E0380
1FFF80
07FE00
01F800
ENDCHAR
STARTCHAR 0044
ENCODING 68
SWIDTH 609 0
DWIDTH 22 0
BBX 17 24 3 0
BITMAP
FFC000
FFF800
E3FC00
E03E00
E00F00
E00700
E00780
E00380
E00380
E00380
E00380
E00380
E00380
E00380
E00380
E00380
E00380
E00700
E00700
E00F00
E03E00
E1FC00
FFF000
FFC000
ENDCHAR
STARTCHAR 0045
ENCODING 69
SWIDTH 526 0
DWIDTH 19 0
BBX 14 24 3 0
BITMAP
FFFC
FFFC
FFFC
E000
E000
E000
E000
E000
E000
E000
FFF0
FFF0
FFF0
E000
E000
E000
E000
E000
E000
E000
E000
FFFC
FFFC
FFFC
ENDCHAR
STARTCHAR 0046
ENCODING 70
SWIDTH 498 0
DWIDTH 18 0
BBX 14 24 3 0
BITMAP
FFFC
FFFC
FFFC
E000
E000
E000
E000
E000
E000
E000
FFF0
FFF0
FFF0
E000
E000
E000
E000
E000
E000
E000
E000
E000
E000
E000
ENDCHAR
STARTCHAR 0047
ENCODING 71
SWIDTH 609 0
DWIDTH 22 0
BBX 18 24 2 0
BITMAP
01FC00
07FF00
0FFF80
1E0380
3C0000
780000
700000
700000
E00000
E00000
E00000
E00000
E03FC0
E03FC0
E001C0
E001C0
7001C0
7001C0
7801C0
3C01C0
1E03C0
0FFFC0
07FF00
01FC00
ENDCHAR
STARTCHAR 0048
ENCODING 72
SWIDTH 664 0
DWIDTH 24 0
BBX 17 24 3 0
BITMAP
E00380
E00380
E00380
E00380
E00380
E00380
E00380
E00380
E00380
E00380
FFFF80
FFFF80
FFFF80
E00380
E00380
E00380
E00380
E00380
E00380
E00380
E00380
E00380
E00380
E00380
ENDCHAR
STARTCHAR 0049
ENCODING 73
SWIDTH 276 0
DWIDTH 10 0
BBX 3 24 3 0
BITMAP
E0
E0
E0
E0
E0
E0
E0
E0
E0
E0
E0
E0
E0
E0
E0
E0
E0
E0
E0
E0
E0
E0
E0
E0
ENDCHAR
STARTCHAR 004A
ENCODING 74
SWIDTH 470 0
DWIDTH 17 0
BBX 13 24 1 0
BITMAP
0038
0038
0038
0038
0038
0038
0038
0038
0038
0038
0038
0038
0038
0038
0038
0038
0038
0038
0038
6038
F070
7FF0
3FE0
0F80
ENDCHAR
STARTCHAR 004B
ENCODING 75
SWIDTH 581 0
DWIDTH 21 0
BBX 17 24 3 0
BITMAP
E00700
E00E00
E01E00
E03C00
E03800
E07000
E0E000
E1E000
E3C000
E78000
E7C000
EFE000
FEE000
FCF000
F87000
F03800
E03800
E01C00
E01E00
E00E00
E00F00
E00700
E00380
E00380
ENDCHAR
STARTCHAR 004C
ENCODING 76
SWIDTH 498 0
DWIDTH 18 0
BBX 14 24 3 0
BITMAP
E000
E000
E000
E000
E000
E000
E000
E000
E000
E000
E000
E000
E000
E000
E000
E000
E000
E000
E000
E000
E000
FFFC
FFFC
FFFC
ENDCHAR
STARTCHAR 004D
ENCODING 77
SWIDTH 720 0
DWIDTH 26 0
BBX 20 24 3 0
BITMAP
F000F0
F000F0
F801F0
F801F0
F801B0
FC03F0
EC0370
EE0370
EE0770
E60670
E70670
E70E70
E30C70
E38C70
E39C70
E19870
E1D870
E0F870
E0F070
E0F070
E07070
E06070
E00070
E00070
ENDCHAR
STARTCHAR 004E
ENCODING 78
SWIDTH 636 0
DWIDTH 23 0
BBX 17 24 3 0
BITMAP
F00380
F00380
F80380
F80380
FC0380
EC0380
EE0380
E70380
E70380
E38380
E38380
E1C380
E1C380
E0E380
E07380
E07380
E03B80
E03B80
E01D80
E01D80
E00F80
E00780
E00780
E00380
ENDCHAR
STARTCHAR 004F
ENCODING 79
SWIDTH 664 0
DWIDTH 24 0
BBX 20 24 2 0
BITMAP
01F800
07FE00
1FFF80
3E07C0
3803C0
7801E0
7000E0
F000F0
E00070
E00070
E00070
E00070
E00070
E00070
E00070
E00070
7000F0
7000E0
7801E0
3C01C0
1E0780
1FFF80
07FE00
01F800
ENDCHAR
STARTCHAR 0050
ENCODING 80
SWIDTH 553 0
DWIDTH 20 0
BBX 16 24 3 0
BITMAP
FFE0
FFF8
E1FE
E01E
E00F
E007
E007
E007
E007
E00F
E00E
E03E
FFFC
FFF0
E000
E000
E000
E000
E000
E000
E000
E000
E000
E000
ENDCHAR
STARTCHAR 0051
ENCODING 81
SWIDTH 664 0
DWIDTH 24 0
BBX 21 30 2 -6
BITMAP
01F800
07FE00
1FFF80
1E07C0
3803C0
7801E0
7000E0
7000F0
E00070
E00070
E00070
E00070
E00070
E00070
E00070
E00070
F000F0
7000E0
7801E0
3801C0
3C03C0
1F8F80
0FFE00
03FC00
007000
007800
003E00
001FF0
0007F8
000040
ENDCHAR
STARTCHAR 0052
ENCODING 82
SWIDTH 581 0
DWIDTH 21 0
BBX 16 24 3 0
BITMAP
FFF0
FFFC
E0FE
E00E
E00F
E007
E007
E007
E007
E00F
E01E
E0FC
FFF8
FFE0
E0E0
E0F0
E070
E038
E038
E01C
E01E
E00E
E00F
E007
ENDCHAR
STARTCHAR 0053
ENCODING 83
SWIDTH 526 0
DWIDTH 19 0
BBX 16 24 2 0
BITMAP
07E0
1FF8
3FFE
780E
7004
7000
7000
7000
7800
3E00
1F80
0FF0
03F8
007E
001E
000F
0007
0007
0007
E00E
F01E
7FFC
3FF8
0FE0
ENDCHAR
STARTCHAR 0054
ENCODING 84
SWIDTH 526 0
DWIDTH 19 0
BBX 17 24 1 0
BITMAP
FFFF80
FFFF80
FFFF80
01C000
01C000
01C000
01C000
01C000
01C000
01C000
01C000
01C000
01C000
01C000
01C000
01C000
01C000
01C000
01C000
01C000
01C000
01C000
01C000
01C000
ENDCHAR
STARTCHAR 0055
ENCODING 85
SWIDTH 636 0
DWIDTH 23 0
BBX 17 24 3 0
BITMAP
E00380
E00380
E00380
E00380
E00380
E00380
E00380
E00380
E00380
E00380
E00380
E00380
E00380
E00380
E00380
E00380
E00380
F00380
700780
780700
3C0F00
3FFE00
1FFC00
07F000
ENDCHAR
STARTCHAR 0056
ENCODING 86
SWIDTH 526 0
DWIDTH 19 0
BBX 18 24 0 0
BITMAP
E001C0
F001C0
7001C0
700380
780380
380380
380380
380700
1C0700
1C0700
1C0E00
0E0E00
0E0E00
0E0C00
061C00
071C00
071800
033800
03B800
03B000
03B000
01F000
01F000
01E000
ENDCHAR
STARTCHAR 0057
ENCODING 87
SWIDTH 775 0
DWIDTH 28 0
BBX 26 24 1 0
BITMAP
E00E00C0
E01E01C0
E01E01C0
701F01C0
701F01C0
703B0180
703B0380
70338380
38338380
38738380
38718300
3861C700
3861C700
1C61C700
1CE0C700
1CC0E600
1CC0E600
1CC0EE00
0DC06E00
0FC06E00
0F807C00
0F807C00
07803C00
07803C00
ENDCHAR
STARTCHAR 0058
ENCODING 88
SWIDTH 526 0
DWIDTH 19 0
BBX 17 24 1 0
BITMAP
F00700
700700
780E00
380E00
3C1C00
1C1C00
0E3800
0E3000
077000
076000
03E000
03C000
03E000
07E000
077000
0E7000
0E3800
1C3800
1C1C00
381C00
780E00
700F00
F00700
E00780
ENDCHAR
STARTCHAR 0059
ENCODING 89
SWIDTH 470 0
DWIDTH 17 0
BBX 17 24 0 0
BITMAP
E00380
700700
700700
380700
380E00
1C0E00
1C1C00
0E1C00
0E3800
063800
077000
077000
03E000
03E000
01C000
01C000
01C000
01C000
01C000
01C000
01C000
01C000
01C000
01C000
ENDCHAR
STARTCHAR 005A
ENCODING 90
SWIDTH 526 0
DWIDTH 19 0
BBX 16 24 2 0
BITMAP
7FFF
7FFF
7FFE
001E
001C
0038
0038
0070
00F0
00E0
01C0
03C0
0380
0700
0F00
0E00
1C00
1C00
3800
7800
7000
FFFF
FFFF
FFFF
ENDCHAR
STARTCHAR 005B
ENCODING 91
SWIDTH 304 0
DWIDTH 11 0
BBX 7 32 3 -6
BITMAP
FE
FE
E0
E0
E0
E0
E0
E0
E0
E0
E0
E0
E0
E0
E0
E0
E0
E0
E0
E0
E0
E0
E0
E0
E0
E0
E0
E0
E0
E0
FE
FE
ENDCHAR
STARTCHAR 005C
ENCODING 92
SWIDTH 360 0
DWIDTH 13 0
BBX 11 31 1 -6
BITMAP
C000
C000
E000
6000
6000
6000
3000
3000
3000
1800
1800
1800
1C00
0C00
0C00
0E00
0600
0600
0600
0300
0300
0300
0180
0180
0180
01C0
00C0
00C0
00E0
0060
0060
ENDCHAR
STARTCHAR 005D
ENCODING 93
SWIDTH 304 0
DWIDTH 11 0
BBX 7 32 1 -6
BITMAP
FE
FE
0E
0E
0E
0E
0E
0E
0E
0E
0E
0E
0E
0E
0E
0E
0E
0E
0E
0E
0E
0E
0E
0E
0E
0E
0E
0E
0E
0E
FE
FE
ENDCHAR
STARTCHAR 005E
ENCODING 94
SWIDTH 498 0
DWIDTH 18 0
BBX 14 14 2 10
BITMAP
0700
0780
0780
0FC0
0CC0
1CC0
1CE0
1860
3870
3030
3030
7038
6018
E01C
ENDCHAR
STARTCHAR 005F
ENCODING 95
SWIDTH 498 0
DWIDTH 18 0
BBX 18 2 0 -5
BITMAP
FFFFC0
FFFFC0
ENDCHAR
STARTCHAR 0060
ENCODING 96
SWIDTH 553 0
DWIDTH 20 0
BBX 6 7 5 20
BITMAP
40
E0
F0
78
3C
1C
0C
ENDCHAR
STARTCHAR 0061
ENCODING 97
SWIDTH 498 0
DWIDTH 18 0
BBX 14 18 2 0
BITMAP
0FC0
3FF0
7FF8
6038
0038
001C
001C
01FC
0FFC
3C1C
701C
E01C
E01C
E03C
E07C
F9FC
7F9C
1E1C
ENDCHAR
STARTCHAR 0062
ENCODING 98
SWIDTH 553 0
DWIDTH 20 0
BBX 15 26 3 0
BITMAP
E000
E000
E000
E000
E000
E000
E000
E000
E3E0
EFF8
FFFC
F83C
E01E
E00E
E00E
E00E
E00E
E00E
E00E
E00E
E00E
E01C
F03C
FFF8
EFF0
C7C0
ENDCHAR
STARTCHAR 0063
ENCODING 99
SWIDTH 443 0
DWIDTH 16 0
BBX 13 18 2 0
BITMAP
07E0
1FF8
3FF8
7810
7000
F000
E000
E000
E000
E000
E000
E000
F000
7000
7818
3FF8
1FF8
07E0
ENDCHAR
STARTCHAR 0064
ENCODING 100
SWIDTH 553 0
DWIDTH 20 0
BBX 15 26 2 0
BITMAP
000E
000E
000E
000E
000E
000E
000E
000E
07CE
1FFE
3FFE
781E
700E
F00E
E00E
E00E
E00E
E00E
E00E
E00E
E00E
F00E
781E
3FFE
3FEE
0F86
ENDCHAR
STARTCHAR 0065
ENCODING 101
SWIDTH 498 0
DWIDTH 18 0
BBX 15 18 2 0
BITMAP
07C0
1FF0
3EF8
781C
701C
E00C
E00C
E00E
FFFE
FFFC
E000
E000
E000
7000
7800
3F78
1FF8
07E0
ENDCHAR
STARTCHAR 0066
ENCODING 102
SWIDTH 304 0
DWIDTH 11 0
BBX 10 26 1 0
BITMAP
07C0
0FC0
1EC0
1C00
1C00
3800
3800
3800
FF80
FF80
3800
3800
3800
3800
3800
3800
3800
3800
3800
3800
3800
3800
3800
3800
3800
3800
ENDCHAR
STARTCHAR 0067
ENCODING 103
SWIDTH 498 0
DWIDTH 18 0
BBX 16 26 2 -8
BITMAP
0FFE
3FFE
78F0
7038
6038
E018
E018
E038
7038
7870
3FE0
37C0
6000
6000
6000
7C00
3FFC
3FFE
600F
E007
C007
C006
E00E
F03C
7FF8
1FE0
ENDCHAR
STARTCHAR 0068
ENCODING 104
SWIDTH 553 0
DWIDTH 20 0
BBX 14 26 3 0
BITMAP
E000
E000
E000
E000
E000
E000
E000
E000
E3E0
EFF8
FFF8
F83C
F01C
E01C
E01C
E01C
E01C
E01C
E01C
E01C
E01C
E01C
E01C
E01C
E01C
E01C
ENDCHAR
STARTCHAR 0069
ENCODING 105
SWIDTH 249 0
DWIDTH 9 0
BBX 5 26 2 0
BITMAP
70
70
F8
70
00
00
00
00
70
70
70
70
70
70
70
70
70
70
70
70
70
70
70
70
70
70
ENDCHAR
STARTCHAR 006A
ENCODING 106
SWIDTH 249 0
DWIDTH 9 0
BBX 8 34 -1 -8
BITMAP
0E
0E
1F
0E
00
00
00
00
0E
0E
0E
0E
0E
0E
0E
0E
0E
0E
0E
0E
0E
0E
0E
0E
0E
0E
0E
0E
0E
0E
0E
BC
FC
F8
ENDCHAR
STARTCHAR 006B
ENCODING 107
SWIDTH 498 0
DWIDTH 18 0
BBX 14 26 3 0
BITMAP
E000
E000
E000
E000
E000
E000
E000
E000
E038
E078
E0F0
E0E0
E1C0
E380
E700
E700
EF80
FF80
F9C0
F1E0
F0E0
E070
E070
E038
E03C
E01C
ENDCHAR
STARTCHAR 006C
ENCODING 108
SWIDTH 249 0
DWIDTH 9 0
BBX 5 26 3 0
BITMAP
E0
E0
E0
E0
E0
E0
E0
E0
E0
E0
E0
E0
E0
E0
E0
E0
E0
E0
E0
E0
E0
E0
E0
F0
F8
78
ENDCHAR
STARTCHAR 006D
ENCODING 109
SWIDTH 830 0
DWIDTH 30 0
BBX 24 18 3 0
BITMAP
C3E078
EFF1FE
FFFBFE
F83E0F
F03C07
E03C07
E01C07
E01C07
E01C07
E01C07
E01C07
E01C07
E01C07
E01C07
E01C07
E01C07
E01C07
E01C07
ENDCHAR
STARTCHAR 006E
ENCODING 110
SWIDTH 553 0
DWIDTH 20 0
BBX 14 18 3 0
BITMAP
C3E0
E7F8
FFF8
F83C
F01C
E01C
E01C
E01C
E01C
E01C
E01C
E01C
E01C
E01C
E01C
E01C
E01C
E01C
ENDCHAR
STARTCHAR 006F
ENCODING 111
SWIDTH 553 0
DWIDTH 20 0
BBX 16 18 2 0
BITMAP
07E0
1FF0
3FFC
781C
700E
E00E
E00F
E007
E007
E007
E007
E007
E00E
700E
781C
3FFC
1FF0
07C0
ENDCHAR
STARTCHAR 0070
ENCODING 112
SWIDTH 553 0
DWIDTH 20 0
BBX 15 26 3 -8
BITMAP
C3E0
EFF8
FFFC
F83C
E01E
E00E
E00E
E00E
E00E
E00E
E00E
E00E
E00E
E01C
F03C
FFF8
EFF0
E7C0
E000
E000
E000
E000
E000
E000
E000
E000
ENDCHAR
STARTCHAR 0071
ENCODING 113
SWIDTH 553 0
DWIDTH 20 0
BBX 15 26 2 -8
BITMAP
07C6
1FFE
3FFE
781E
700E
F00E
E00E
E00E
E00E
E00E
E00E
E00E
E00E
F00E
781E
3FFE
1FEE
0F8E
000E
000E
000E
000E
000E
000E
000E
000E
ENDCHAR
STARTCHAR 0072
ENCODING 114
SWIDTH 360 0
DWIDTH 13 0
BBX 10 18 3 0
BITMAP
C3C0
EF80
EF80
F800
F000
F000
E000
E000
E000
E000
E000
E000
E000
E000
E000
E000
E000
E000
ENDCHAR
STARTCHAR 0073
ENCODING 115
SWIDTH 415 0
DWIDTH 15 0
BBX 13 18 1 0
BITMAP
0FC0
3FF0
3CF0
7020
7000
7000
7800
3E00
1FC0
07E0
00F0
0078
0038
0038
6038
F8F0
7FE0
1F80
ENDCHAR
STARTCHAR 0074
ENCODING 116
SWIDTH 332 0
DWIDTH 12 0
BBX 11 23 1 0
BITMAP
1800
1800
1800
1800
1800
FFC0
FFC0
3800
3800
3800
3800
3800
3800
3800
3800
3800
3800
3800
1C00
1C00
1F40
0FE0
07C0
ENDCHAR
STARTCHAR 0075
ENCODING 117
SWIDTH 553 0
DWIDTH 20 0
BBX 14 18 3 0
BITMAP
E01C
E01C
E01C
E01C
E01C
E01C
E01C
E01C
E01C
E01C
E01C
E01C
E01C
E03C
F07C
7FDC
7F9C
1F1C
ENDCHAR
STARTCHAR 0076
ENCODING 118
SWIDTH 470 0
DWIDTH 17 0
BBX 15 18 1 0
BITMAP
E00E
E00E
E00E
701C
701C
701C
3838
3838
3830
1C70
1C70
1C60
0E60
0EE0
06C0
06C0
07C0
0380
ENDCHAR
STARTCHAR 0077
ENCODING 119
SWIDTH 720 0
DWIDTH 26 0
BBX 24 18 1 0
BITMAP
E03C07
E03C07
703C06
703C0E
707E0E
70660E
38660C
38661C
38E71C
38C31C
1CC318
1CC398
1DC3B8
0D81B8
0D81B0
0F81F0
0F81F0
0700E0
ENDCHAR
STARTCHAR 0078
ENCODING 120
SWIDTH 443 0
DWIDTH 16 0
BBX 14 18 1 0
BITMAP
E01C
7038
7838
3870
1C70
1CE0
0EC0
07C0
0780
0780
0FC0
1DE0
1CE0
3870
3870
7038
E03C
E01C
ENDCHAR
STARTCHAR 0079
ENCODING 121
SWIDTH 470 0
DWIDTH 17 0
BBX 15 26 1 -8
BITMAP
E00E
E00E
E00E
701C
701C
301C
3818
3838
1C38
1C30
1C70
0E70
0E60
06E0
07E0
07C0
03C0
03C0
0380
0380
0380
0700
0700
7E00
FC00
F800
ENDCHAR
STARTCHAR 007A
ENCODING 122
SWIDTH 415 0
DWIDTH 15 0
BBX 13 18 1 0
BITMAP
7FF8
7FF8
0078
0070
00E0
01E0
01C0
0380
0780
0700
0E00
1E00
1C00
3800
7800
7000
FFF8
FFF8
ENDCHAR
STARTCHAR 007B
ENCODING 123
SWIDTH 304 0
DWIDTH 11 0
BBX 9 32 1 -6
BITMAP
0380
0F80
1C00
1C00
1800
1800
1800
1C00
1C00
1C00
1C00
1C00
1C00
1C00
3800
F000
F800
3800
1C00
1C00
1C00
1C00
1C00
1C00
1C00
1800
1800
1800
1C00
1C00
0F80
0780
ENDCHAR
STARTCHAR 007C
ENCODING 124
SWIDTH 249 0
DWIDTH 9 0
BBX 2 36 3 -9
BITMAP
C0
C0
C0
C0
C0
C0
C0
C0
C0
C0
C0
C0
C0
C0
C0
C0
C0
C0
C0
C0
C0
C0
C0
C0
C0
C0
C0
C0
C0
C0
C0
C0
C0
C0
C0
C0
ENDCHAR
STARTCHAR 007D
ENCODING 125
SWIDTH 304 0
DWIDTH 11 0
BBX 9 32 1 -6
BITMAP
E000
F800
1C00
1C00
1C00
1C00
1C00
1C00
1C00
1C00
1C00
1C00
1C00
1C00
0E00
0780
0780
0E00
1C00
1C00
1C00
1C00
1C00
1C00
1C00
1C00
1C00
1C00
1C00
1C00
F800
E000
ENDCHAR
STARTCHAR 007E
ENCODING 126
SWIDTH 498 0
DWIDTH 18 0
BBX 14 5 2 9
BITMAP
3C00
FF0C
C79C
81F8
00F0
ENDCHAR
STARTCHAR 00A0
ENCODING 160
SWIDTH 193 0
DWIDTH 7 0
BBX 0 0 0 0
BITMAP
ENDCHAR
STARTCHAR 00A1
ENCODING 161
SWIDTH 276 0
DWIDTH 10 0
BBX 4 25 3 -7
BITMAP
70
F0
F0
F0
20
00
00
00
60
60
60
60
60
60
60
60
70
70
70
70
70
70
70
70
70
ENDCHAR
STARTCHAR 00A2
ENCODING 162
SWIDTH 498 0
DWIDTH 18 0
BBX 14 25 2 -1
BITMAP
0180
0180
0180
0180
03F0
0FF8
1FFC
3D88
7180
7180
E180
E180
E180
E180
E180
7180
7180
7980
3D9C
1FFC
0FF0
0180
0180
0180
0180
ENDCHAR
STARTCHAR 00A3
ENCODING 163
SWIDTH 498 0
DWIDTH 18 0
BBX 14 23 2 0
BITMAP
03E0
0FF8
1FFC
1C08
3800
3800
3800
3800
3800
1800
1C00
FFF0
FFF0
0C00
0C00
0C00
0C00
1C00
1C00
3800
7FFC
FFFC
FFFC
ENDCHAR
STARTCHAR 00A4
ENCODING 164
SWIDTH 498 0
DWIDTH 18 0
BBX 16 16 1 4
BITMAP
4002
E3C7
7FFE
3E7C
381C
700E
700E
700E
700E
700E
700E
381C
3C3C
7FFE
E7E7
4002
ENDCHAR
STARTCHAR 00A5
ENCODING 165
SWIDTH 498 0
DWIDTH 18 0
BBX 16 23 1 0
BITMAP
E007
700E
700E
381C
381C
1C18
1C38
0C30
0E70
0660
07E0
7FFE
7FFE
0380
0380
7FFE
7FFE
0380
0380
0380
0380
0380
0380
ENDCHAR
STARTCHAR 00A6
ENCODING 166
SWIDTH 249 0
DWIDTH 9 0
BBX 2 36 3 -9
BITMAP
C0
C0
C0
C0
C0
C0
C0
C0
C0
C0
C0
C0
C0
C0
C0
C0
00
00
00
C0
C0
C0
C0
C0
C0
C0
C0
C0
C0
C0
C0
C0
C0
C0
C0
C0
ENDCHAR
STARTCHAR 00A7
ENCODING 167
SWIDTH 498 0
DWIDTH 18 0
BBX 14 27 2 -2
BITMAP
0FC0
1FF0
3CF0
3830
3000
3800
3800
1E00
3F80
77E0
E1F8
C078
C01C
E01C
E00C
F80C
7E1C
1FB8
07F0
01E0
0070
0070
0030
2070
70F0
7FE0
1FC0
ENDCHAR
STARTCHAR 00A8
ENCODING 168
SWIDTH 553 0
DWIDTH 20 0
BBX 10 4 5 21
BITMAP
4080
E1C0
E3C0
E1C0
ENDCHAR
STARTCHAR 00A9
ENCODING 169
SWIDTH 747 0
DWIDTH 27 0
BBX 23 24 2 0
BITMAP
00FE00
03EF80
0E00E0
180070
300018
607C1C
60FF0C
41C304
C38006
C30006
C70006
870006
C70006
C70006
C30006
C38106
41C30C
61FF0C
307C18
300018
1C0070
0E00E0
03FF80
00FE00
ENDCHAR
STARTCHAR 00AA
ENCODING 170
SWIDTH 332 0
DWIDTH 12 0
BBX 10 12 1 14
BITMAP
1F00
7F80
6180
01C0
01C0
1FC0
70C0
60C0
E0C0
E1C0
7EC0
3CC0
ENDCHAR
STARTCHAR 00AB
ENCODING 171
SWIDTH 415 0
DWIDTH 15 0
BBX 11 13 2 3
BITMAP
0820
1C60
38C0
71C0
6380
C700
C600
C700
E380
7180
30C0
1860
0C60
ENDCHAR
STARTCHAR 00AC
ENCODING 172
SWIDTH 498 0
DWIDTH 18 0
BBX 16 9 1 4
BITMAP
FFFF
FFFF
0007
0007
0007
0007
0007
0007
0007
ENDCHAR
STARTCHAR 00AD
ENCODING 173
SWIDTH 304 0
DWIDTH 11 0
BBX 9 2 1 8
BITMAP
FF80
FF80
ENDCHAR
STARTCHAR 00AE
ENCODING 174
SWIDTH 415 0
DWIDTH 15 0
BBX 13 14 1 12
BITMAP
0F80
3CE0
6030
4F98
C988
88C8
8888
8F88
8988
C888
48D8
6030
3060
1FC0
ENDCHAR
STARTCHAR 00AF
ENCODING 175
SWIDTH 553 0
DWIDTH 20 0
BBX 10 2 5 22
BITMAP
FFC0
FFC0
ENDCHAR
STARTCHAR 00B0
ENCODING 176
SWIDTH 332 0
DWIDTH 12 0
BBX 9 10 1 15
BITMAP
0C00
3F00
6180
6180
4080
C080
6180
6180
3F00
0C00
ENDCHAR
STARTCHAR 00B1
ENCODING 177
SWIDTH 498 0
DWIDTH 18 0
BBX 16 20 1 0
BITMAP
0180
0180
0180
0180
0180
0180
0180
FFFF
FFFF
0180
0180
0180
0180
0180
0180
0000
0000
0000
FFFF
FFFF
ENDCHAR
STARTCHAR 00B2
ENCODING 178
SWIDTH 360 0
DWIDTH 13 0
BBX 10 15 2 14
BITMAP
3C00
7F00
C700
8380
0180
0180
0380
0300
0600
0E00
1C00
3800
7000
FFC0
FFC0
ENDCHAR
STARTCHAR 00B3
ENCODING 179
SWIDTH 360 0
DWIDTH 13 0
BBX 11 15 1 14
BITMAP
0E00
3F80
71C0
01C0
00C0
01C0
0380
0F00
0F80
00C0
00E0
40C0
E1C0
7F80
1F00
ENDCHAR
STARTCHAR 00B4
ENCODING 180
SWIDTH 553 0
DWIDTH 20 0
BBX 6 7 8 20
BITMAP
08
0C
1C
38
70
E0
C0
ENDCHAR
STARTCHAR 00B5
ENCODING 181
SWIDTH 553 0
DWIDTH 20 0
BBX 16 24 3 -6
BITMAP
E01C
E01C
E01C
E01C
E01C
E01C
E01C
E01C
E01C
E01C
E01C
E01C
E01C
E03C
F07C
FFDF
FFCF
EF0F
E000
E000
E000
E000
E000
E000
ENDCHAR
STARTCHAR 00B6
ENCODING 182
SWIDTH 553 0
DWIDTH 20 0
BBX 16 27 1 -3
BITMAP
07E7
1FE7
3FE7
7FE7
7FE7
7FE7
7FE7
FFE7
7FE7
7FE7
7FE7
7FE7
3FE7
1FE7
0FE7
0067
0007
0007
0007
0007
0007
0007
0007
0007
0007
0007
0007
ENDCHAR
STARTCHAR 00B7
ENCODING 183
SWIDTH 249 0
DWIDTH 9 0
BBX 5 5 2 9
BITMAP
70
F8
F8
70
20
ENDCHAR
STARTCHAR 00B8
ENCODING 184
SWIDTH 553 0
DWIDTH 20 0
BBX 6 8 7 -8
BITMAP
30
60
70
3C
1C
1C
F8
E0
ENDCHAR
STARTCHAR 00B9
ENCODING 185
SWIDTH 360 0
DWIDTH 13 0
BBX 6 14 3 14
BITMAP
1C
FC
FC
1C
1C
1C
1C
1C
1C
1C
1C
1C
1C
1C
ENDCHAR
STARTCHAR 00BA
ENCODING 186
SWIDTH 360 0
DWIDTH 13 0
BBX 11 12 1 14
BITMAP
1F00
3F80
71C0
60E0
E060
C060
C060
E060
E0E0
70C0
3F80
1F00
ENDCHAR
STARTCHAR 00BB
ENCODING 187
SWIDTH 415 0
DWIDTH 15 0
BBX 12 13 2 3
BITMAP
4200
E300
6180
31C0
18E0
1C70
0C30
0C70
1C60
38C0
71C0
6380
C300
ENDCHAR
STARTCHAR 00BC
ENCODING 188
SWIDTH 775 0
DWIDTH 28 0
BBX 25 24 2 0
BITMAP
1C006000
FC006000
FC00C000
1C018000
1C018000
1C030000
1C030000
1C060000
1C060000
1C0C0000
1C0C0E00
1C181E00
1C181E00
1C303600
00306600
00606600
00E0C600
00C18600
0181FF80
0183FF80
03000600
03000600
06000600
06000600
ENDCHAR
STARTCHAR 00BD
ENCODING 189
SWIDTH 803 0
DWIDTH 29 0
BBX 25 24 2 0
BITMAP
1C00C000
FC00C000
FC018000
1C018000
1C030000
1C030000
1C060000
1C060000
1C0C0000
1C0C3C00
1C187F00
1C30C700
1C308380
1C600380
00600380
00C00300
00C00300
01800600
01800E00
03001C00
03003800
06007000
0600FF80
0C00FF80
ENDCHAR
STARTCHAR 00BE
ENCODING 190
SWIDTH 803 0
DWIDTH 29 0
BBX 26 24 2 0
BITMAP
3E001800
7F003000
C3803000
01806000
0180C000
0300C000
1F018000
1E018000
03830000
01830000
01860600
81860E00
E38C1A00
7F0C1E00
3C183600
00386600
0030E600
0060C600
0061FFC0
00C1FFC0
00C00600
01800600
01800600
03000600
ENDCHAR
STARTCHAR 00BF
ENCODING 191
SWIDTH 415 0
DWIDTH 15 0
BBX 11 25 2 -7
BITMAP
0700
0F00
0F00
0F00
0000
0000
0000
0000
0700
0700
0600
0E00
1C00
1C00
3800
7000
E000
E000
E000
E000
E000
E060
7FE0
7FC0
1F00
ENDCHAR
STARTCHAR 00C0
ENCODING 192
SWIDTH 553 0
DWIDTH 20 0
BBX 19 32 0 0
BITMAP
020000
030000
078000
03C000
00E000
006000
000000
000000
00F000
00F000
01F000
01B800
01B800
039800
039C00
031C00
070C00
070E00
060E00
0E0600
0E0700
0C0700
1FFF00
1FFF80
180380
380380
3801C0
3801C0
7001C0
7000E0
7000E0
E000E0
ENDCHAR
STARTCHAR 00C1
ENCODING 193
SWIDTH 553 0
DWIDTH 20 0
BBX 19 31 0 1
BITMAP
000C00
001C00
007800
00F000
00C000
000000
000000
00F000
00F000
01F000
01B800
01B800
039800
039C00
031C00
070C00
070E00
060E00
0E0600
0E0700
0C0700
1FFF00
1FFF80
180380
380380
3801C0
3801C0
7001C0
7000E0
7000E0
E000E0
ENDCHAR
STARTCHAR 00C2
ENCODING 194
SWIDTH 553 0
DWIDTH 20 0
BBX 19 31 0 0
BITMAP
00E000
01F000
03B800
070C00
0E0600
000000
000000
00F000
00F000
01F000
01B800
01B800
039800
039C00
031C00
070C00
070E00
060E00
0E0600
0E0700
0C0700
1FFF00
1FFF80
180380
380380
3801C0
3801C0
7001C0
7000E0
7000E0
E000E0
ENDCHAR
STARTCHAR 00C3
ENCODING 195
SWIDTH 553 0
DWIDTH 20 0
BBX 19 31 0 0
BITMAP
078300
0FC300
0CF700
0C7E00
181C00
000000
000000
00F000
00F000
01F000
01B800
01B800
039800
039C00
031C00
070C00
070E00
060E00
0E0600
0E0700
0C0700
1FFF00
1FFF80
180380
380380
3801C0
3801C0
7001C0
7000E0
7000E0
E000E0
ENDCHAR
STARTCHAR 00C4
ENCODING 196
SWIDTH 553 0
DWIDTH 20 0
BBX 19 30 0 0
BITMAP
000400
0F0E00
0F0E00
060E00
000000
000000
00F000
00F000
01F000
01B800
01B800
039800
039C00
031C00
070C00
070E00
060E00
0E0600
0E0700
0C0700
1FFF00
1FFF80
180380
380380
3801C0
3801C0
7001C0
7000E0
7000E0
E000E0
ENDCHAR
STARTCHAR 00C5
ENCODING 197
SWIDTH 553 0
DWIDTH 20 0
BBX 19 32 0 0
BITMAP
00F000
01B800
031800
030800
011800
01F000
000000
000000
00F000
00F000
01F000
01B800
01B800
039800
039C00
031C00
070C00
070E00
060E00
0E0600
0E0700
0C0700
1FFF00
1FFF80
180380
380380
3801C0
3801C0
7001C0
7000E0
7000E0
E000E0
ENDCHAR
STARTCHAR 00C6
ENCODING 198
SWIDTH 830 0
DWIDTH 30 0
BBX 27 24 1 0
BITMAP
001FFFE0
001FFFE0
003FFFE0
003F8000
00778000
00778000
00E78000
00E78000
01C78000
01C78000
0387FF80
0387FF80
0707FF80
07078000
0E078000
0FFF8000
1FFF8000
1C078000
38078000
38078000
70078000
7007FFE0
E007FFE0
E007FFE0
ENDCHAR
STARTCHAR 00C7
ENCODING 199
SWIDTH 581 0
DWIDTH 21 0
BBX 17 32 2 -8
BITMAP
01F800
07FE00
0FFF80
1E0300
3C0100
780000
700000
700000
E00000
E00000
E00000
E00000
E00000
E00000
E00000
E00000
F00000
700000
780000
3C0100
1E0380
1FFF80
07FE00
01F800
006000
006000
00F000
003800
001800
001800
01F000
01C000
ENDCHAR
STARTCHAR 00C8
ENCODING 200
SWIDTH 526 0
DWIDTH 19 0
BBX 14 31 3 1
BITMAP
1800
1C00
0F00
0780
0380
0000
0000
FFFC
FFFC
FFFC
E000
E000
E000
E000
E000
E000
E000
FFF0
FFF0
FFF0
E000
E000
E000
E000
E000
E000
E000
E000
FFFC
FFFC
FFFC
ENDCHAR
STARTCHAR 00C9
ENCODING 201
SWIDTH 526 0
DWIDTH 19 0
BBX 14 32 3 0
BITMAP
0020
0060
00F0
01E0
0380
0300
0000
0000
FFFC
FFFC
FFFC
E000
E000
E000
E000
E000
E000
E000
FFF0
FFF0
FFF0
E000
E000
E000
E000
E000
E000
E000
E000
FFFC
FFFC
FFFC
ENDCHAR
STARTCHAR 00CA
ENCODING 202
SWIDTH 526 0
DWIDTH 19 0
BBX 14 31 3 0
BITMAP
0380
07C0
0EE0
1870
3038
0000
0000
FFFC
FFFC
FFFC
E000
E000
E000
E000
E000
E000
E000
FFF0
FFF0
FFF0
E000
E000
E000
E000
E000
E000
E000
E000
FFFC
FFFC
FFFC
ENDCHAR
STARTCHAR 00CB
ENCODING 203
SWIDTH 526 0
DWIDTH 19 0
BBX 14 30 3 0
BITMAP
1000
3878
3878
3830
0000
0000
FFFC
FFFC
FFFC
E000
E000
E000
E000
E000
E000
E000
FFF0
FFF0
FFF0
E000
E000
E000
E000
E000
E000
E000
E000
FFFC
FFFC
FFFC
ENDCHAR
STARTCHAR 00CC
ENCODING 204
SWIDTH 276 0
DWIDTH 10 0
BBX 6 32 0 0
BITMAP
40
60
F0
78
1C
0C
00
00
1C
1C
1C
1C
1C
1C
1C
1C
1C
1C
1C
1C
1C
1C
1C
1C
1C
1C
1C
1C
1C
1C
1C
1C
ENDCHAR
STARTCHAR 00CD
ENCODING 205
SWIDTH 276 0
DWIDTH 10 0
BBX 6 31 3 1
BITMAP
0C
1C
78
F0
C0
00
00
E0
E0
E0
E0
E0
E0
E0
E0
E0
E0
E0
E0
E0
E0
E0
E0
E0
E0
E0
E0
E0
E0
E0
E0
ENDCHAR
STARTCHAR 00CE
ENCODING 206
SWIDTH 276 0
DWIDTH 10 0
BBX 11 31 -1 0
BITMAP
0E00
1F00
3B80
70C0
E060
0000
0000
0E00
0E00
0E00
0E00
0E00
0E00
0E00
0E00
0E00
0E00
0E00
0E00
0E00
0E00
0E00
0E00
0E00
0E00
0E00
0E00
0E00
0E00
0E00
0E00
ENDCHAR
STARTCHAR 00CF
ENCODING 207
SWIDTH 276 0
DWIDTH 10 0
BBX 11 30 -1 0
BITMAP
0040
F0E0
F0E0
60E0
0000
0000
0E00
0E00
0E00
0E00
0E00
0E00
0E00
0E00
0E00
0E00
0E00
0E00
0E00
0E00
0E00
0E00
0E00
0E00
0E00
0E00
0E00
0E00
0E00
0E00
ENDCHAR
STARTCHAR 00D0
ENCODING 208
SWIDTH 636 0
DWIDTH 23 0
BBX 20 24 1 0
BITMAP
1FF800
1FFE00
1C7F80
1C07C0
1C01C0
1C01E0
1C00E0
1C00F0
1C0070
1C0070
FFE070
FFE070
1C0070
1C0070
1C0070
1C0070
1C00F0
1C00E0
1C01E0
1C03C0
1C07C0
1C7F80
1FFE00
1FF800
ENDCHAR
STARTCHAR 00D1
ENCODING 209
SWIDTH 636 0
DWIDTH 23 0
BBX 17 31 3 0
BITMAP
0F0600
1F8600
19EE00
18FC00
303800
000000
000000
F00380
F00380
F80380
F80380
FC0380
EC0380
EE0380
E70380
E70380
E38380
E38380
E1C380
E1C380
E0E380
E07380
E07380
E03B80
E03B80
E01D80
E01D80
E00F80
E00780
E00780
E00380
ENDCHAR
STARTCHAR 00D2
ENCODING 210
SWIDTH 664 0
DWIDTH 24 0
BBX 20 31 2 0
BITMAP
030000
078000
03C000
01E000
007000
002000
000000
01F800
07FE00
1FFF80
3E07C0
3803C0
7801E0
7000E0
F000F0
E00070
E00070
E00070
E00070
E00070
E00070
E00070
E00070
7000F0
7000E0
7801E0
3C01C0
1E0780
1FFF80
07FE00
01F800
ENDCHAR
STARTCHAR 00D3
ENCODING 211
SWIDTH 664 0
DWIDTH 24 0
BBX 20 31 2 0
BITMAP
000C00
001E00
003C00
007800
00E000
004000
000000
01F800
07FE00
1FFF80
3E07C0
3803C0
7801E0
7000E0
F000F0
E00070
E00070
E00070
E00070
E00070
E00070
E00070
E00070
7000F0
7000E0
7801E0
3C01C0
1E0780
1FFF80
07FE00
01F800
ENDCHAR
STARTCHAR 00D4
ENCODING 212
SWIDTH 664 0
DWIDTH 24 0
BBX 20 30 2 0
BITMAP
00F000
01F800
039C00
070E00
040600
000000
01F800
07FE00
1FFF80
3E07C0
3803C0
7801E0
7000E0
F000F0
E00070
E00070
E00070
E00070
E00070
E00070
E00070
E00070
7000F0
7000E0
7801E0
3C01C0
1E0780
1FFF80
07FE00
01F800
ENDCHAR
STARTCHAR 00D5
ENCODING 213
SWIDTH 664 0
DWIDTH 24 0
BBX 20 30 2 0
BITMAP
078300
0FE300
0C7700
0C3E00
001C00
000000
01F800
07FE00
1FFF80
3E07C0
3803C0
7801E0
7000E0
F000F0
E00070
E00070
E00070
E00070
E00070
E00070
E00070
E00070
7000F0
7000E0
7801E0
3C01C0
1E0780
1FFF80
07FE00
01F800
ENDCHAR
STARTCHAR 00D6
ENCODING 214
SWIDTH 664 0
DWIDTH 24 0
BBX 20 29 2 0
BITMAP
070E00
070E00
070E00
000400
000000
01F800
07FE00
1FFF80
3E07C0
3803C0
7801E0
7000E0
F000F0
E00070
E00070
E00070
E00070
E00070
E00070
E00070
E00070
7000F0
7000E0
7801E0
3C01C0
1E0780
1FFF80
07FE00
01F800
ENDCHAR
STARTCHAR 00D7
ENCODING 215
SWIDTH 498 0
DWIDTH 18 0
BBX 14 15 2 4
BITMAP
4008
E01C
7038
3870
1CE0
0FC0
0780
0780
0FC0
1CE0
38F0
7078
F03C
E01C
4008
ENDCHAR
STARTCHAR 00D8
ENCODING 216
SWIDTH 664 0
DWIDTH 24 0
BBX 20 25 2 0
BITMAP
01F830
07FE70
0FFFE0
1E07C0
3C01C0
7803E0
7007E0
700EF0
E00C70
E01870
E03870
E07070
E0E070
E0C070
E18070
F38070
7700F0
7E00E0
7C01E0
3C01C0
3E07C0
7FFF80
E7FE00
C1F800
400000
ENDCHAR
STARTCHAR 00D9
ENCODING 217
SWIDTH 636 0
DWIDTH 23 0
BBX 17 32 3 0
BITMAP
040000
060000
0F0000
078000
01C000
00C000
000000
000000
E00380
E00380
E00380
E00380
E00380
E00380
E00380
E00380
E00380
E00380
E00380
E00380
E00380
E00380
E00380
E00380
E00380
F00380
700780
780700
3C0F00
3FFE00
1FFC00
07F000
ENDCHAR
STARTCHAR 00DA
ENCODING 218
SWIDTH 636 0
DWIDTH 23 0
BBX 17 31 3 1
BITMAP
001800
007800
00F000
01E000
018000
000000
000000
E00380
E00380
E00380
E00380
E00380
E00380
E00380
E00380
E00380
E00380
E00380
E00380
E00380
E00380
E00380
E00380
E00380
F00380
700780
780700
3C0F00
3FFE00
1FFC00
07F000
ENDCHAR
STARTCHAR 00DB
ENCODING 219
SWIDTH 636 0
DWIDTH 23 0
BBX 17 31 3 0
BITMAP
01C000
03E000
077000
0E3800
1C0C00
000000
000000
E00380
E00380
E00380
E00380
E00380
E00380
E00380
E00380
E00380
E00380
E00380
E00380
E00380
E00380
E00380
E00380
E00380
F00380
700780
780700
3C0F00
3FFE00
1FFC00
07F000
ENDCHAR
STARTCHAR 00DC
ENCODING 220
SWIDTH 636 0
DWIDTH 23 0
BBX 17 29 3 1
BITMAP
1E1C00
1E1C00
0C1C00
000000
000000
E00380
E00380
E00380
E00380
E00380
E00380
E00380
E00380
E00380
E00380
E00380
E00380
E00380
E00380
E00380
E00380
E00380
F00380
700780
780700
3C0F00
3FFE00
1FFC00
07F000
ENDCHAR
STARTCHAR 00DD
ENCODING 221
SWIDTH 470 0
DWIDTH 17 0
BBX 17 31 0 1
BITMAP
001800
007800
00F000
01E000
018000
000000
000000
E00380
700700
700700
380700
380E00
1C0E00
1C1C00
0E1C00
0E3800
063800
077000
077000
03E000
03E000
01C000
01C000
01C000
01C000
01C000
01C000
01C000
01C000
01C000
01C000
ENDCHAR
STARTCHAR 00DE
ENCODING 222
SWIDTH 581 0
DWIDTH 21 0
BBX 16 24 3 0
BITMAP
E000
E000
E000
E000
FFF0
FFFC
E1FE
E00F
E007
E007
E007
E007
E007
E007
E00F
E01E
FFFC
FFF0
E000
E000
E000
E000
E000
E000
ENDCHAR
STARTCHAR 00DF
ENCODING 223
SWIDTH 581 0
DWIDTH 21 0
BBX 17 26 3 0
BITMAP
0FC000
3FE000
7FF000
707800
F03800
E03800
E03800
E03000
E07000
E0E000
E0C000
E1C000
E1C000
E1C000
E1E000
E0F800
E07E00
E01F00
E00700
E00380
E00380
E00380
E10700
E3CF00
E3FE00
E0FC00
ENDCHAR
STARTCHAR 00E0
ENCODING 224
SWIDTH 498 0
DWIDTH 18 0
BBX 14 28 2 0
BITMAP
0800
1C00
1E00
0F00
0700
0380
0180
0000
0000
0000
0FC0
3FF0
7FF8
6038
0038
001C
001C
01FC
0FFC
3C1C
701C
E01C
E01C
E03C
E07C
F9FC
7F9C
1E1C
ENDCHAR
STARTCHAR 00E1
ENCODING 225
SWIDTH 498 0
DWIDTH 18 0
BBX 14 28 2 0
BITMAP
0020
0070
00F0
01E0
01C0
0380
0300
0000
0000
0000
0FC0
3FF0
7FF8
6038
0038
001C
001C
01FC
0FFC
3C1C
701C
E01C
E01C
E03C
E07C
F9FC
7F9C
1E1C
ENDCHAR
STARTCHAR 00E2
ENCODING 226
SWIDTH 498 0
DWIDTH 18 0
BBX 14 27 2 0
BITMAP
0380
07C0
0EE0
1C70
3838
3018
0000
0000
0000
0FC0
3FF0
7FF8
6038
0038
001C
001C
01FC
0FFC
3C1C
701C
E01C
E01C
E03C
E07C
F9FC
7F9C
1E1C
ENDCHAR
STARTCHAR 00E3
ENCODING 227
SWIDTH 498 0
DWIDTH 18 0
BBX 14 26 2 0
BITMAP
1E0C
3F0C
3398
71F8
60F0
0000
0000
0000
0FC0
3FF0
7FF8
6038
0038
001C
001C
01FC
0FFC
3C1C
701C
E01C
E01C
E03C
E07C
F9FC
7F9C
1E1C
ENDCHAR
STARTCHAR 00E4
ENCODING 228
SWIDTH 498 0
DWIDTH 18 0
BBX 14 25 2 0
BITMAP
1830
3C78
3C78
1830
0000
0000
0000
0FC0
3FF0
7FF8
6038
0038
001C
001C
01FC
0FFC
3C1C
701C
E01C
E01C
E03C
E07C
F9FC
7F9C
1E1C
ENDCHAR
STARTCHAR 00E5
ENCODING 229
SWIDTH 498 0
DWIDTH 18 0
BBX 14 27 2 0
BITMAP
07C0
0EE0
0C60
0820
0C60
0EE0
07C0
0000
0000
0FC0
3FF0
7FF8
6038
0038
001C
001C
01FC
0FFC
3C1C
701C
E01C
E01C
E03C
E07C
F9FC
7F9C
1E1C
ENDCHAR
STARTCHAR 00E6
ENCODING 230
SWIDTH 775 0
DWIDTH 28 0
BBX 25 18 2 0
BITMAP
07C0F800
3FE3FE00
7FF7DE00
20360700
003E0300
001C0380
001C0380
01FC0380
0FFFFF80
3E1FFF80
781C0000
F01C0000
E01C0000
E01E0000
E03F0000
79F7CF00
7FC3FF00
1F00FC00
ENDCHAR
STARTCHAR 00E7
ENCODING 231
SWIDTH 443 0
DWIDTH 16 0
BBX 13 26 2 -8
BITMAP
07E0
1FF8
3FF8
7810
7000
F000
E000
E000
E000
E000
E000
E000
E000
7000
7818
3F78
1FF8
07E0
0180
0300
0380
00C0
00E0
00C0
07C0
0700
ENDCHAR
STARTCHAR 00E8
ENCODING 232
SWIDTH 498 0
DWIDTH 18 0
BBX 15 28 2 0
BITMAP
0800
1C00
1E00
0F00
0700
0380
0180
0000
0000
0000
07C0
1FF0
3EF8
781C
701C
E00C
E00C
E00E
FFFE
FFFC
E000
E000
E000
7000
7800
3F78
1FF8
07E0
ENDCHAR
STARTCHAR 00E9
ENCODING 233
SWIDTH 498 0
DWIDTH 18 0
BBX 15 28 2 0
BITMAP
0020
0070
00F0
01E0
01C0
0380
0300
0000
0000
0000
07C0
1FF0
3EF8
781C
701C
E00C
E00C
E00E
FFFE
FFFC
E000
E000
E000
7000
7800
3F78
1FF8
07E0
ENDCHAR
STARTCHAR 00EA
ENCODING 234
SWIDTH 498 0
DWIDTH 18 0
BBX 15 27 2 0
BITMAP
0380
07C0
0EE0
1C70
3838
3018
0000
0000
0000
07C0
1FF0
3EF8
781C
701C
E00C
E00C
E00E
FFFE
FFFC
E000
E000
E000
7000
7800
3F78
1FF8
07E0
ENDCHAR
STARTCHAR 00EB
ENCODING 235
SWIDTH 498 0
DWIDTH 18 0
BBX 15 25 2 0
BITMAP
1830
3C78
3C78
1830
0000
0000
0000
07C0
1FF0
3EF8
781C
701C
E00C
E00C
E00E
FFFE
FFFC
E000
E000
E000
7000
7800
3F78
1FF8
07E0
ENDCHAR
STARTCHAR 00EC
ENCODING 236
SWIDTH 249 0
DWIDTH 9 0
BBX 7 28 -1 1
BITMAP
60
F0
78
3C
1E
06
00
00
00
00
0E
0E
0E
0E
0E
0E
0E
0E
0E
0E
0E
0E
0E
0E
0E
0E
0E
0E
ENDCHAR
STARTCHAR 00ED
ENCODING 237
SWIDTH 249 0
DWIDTH 9 0
BBX 6 29 3 0
BITMAP
08
0C
1C
38
70
E0
C0
00
00
00
00
E0
E0
E0
E0
E0
E0
E0
E0
E0
E0
E0
E0
E0
E0
E0
E0
E0
E0
ENDCHAR
STARTCHAR 00EE
ENCODING 238
SWIDTH 249 0
DWIDTH 9 0
BBX 11 27 -1 0
BITMAP
1E00
1F00
3B80
71C0
E0E0
C040
0000
0000
0000
0E00
0E00
0E00
0E00
0E00
0E00
0E00
0E00
0E00
0E00
0E00
0E00
0E00
0E00
0E00
0E00
0E00
0E00
ENDCHAR
STARTCHAR 00EF
ENCODING 239
SWIDTH 249 0
DWIDTH 9 0
BBX 11 25 -1 0
BITMAP
60C0
F1E0
F1E0
6080
0000
0000
0000
0E00
0E00
0E00
0E00
0E00
0E00
0E00
0E00
0E00
0E00
0E00
0E00
0E00
0E00
0E00
0E00
0E00
0E00
ENDCHAR
STARTCHAR 00F0
ENCODING 240
SWIDTH 553 0
DWIDTH 20 0
BBX 16 27 2 0
BITMAP
0800
1C06
1F0E
07B8
03E0
03E0
0F70
3C38
1038
001C
001C
0FCE
1FFE
383E
700E
E00E
E007
E007
E006
E006
E00E
E00E
700E
781C
3FF8
1FF0
07C0
ENDCHAR
STARTCHAR 00F1
ENCODING 241
SWIDTH 553 0
DWIDTH 20 0
BBX 14 26 3 0
BITMAP
1E0C
3F0C
3398
71F8
60F0
0000
0000
0000
C3E0
E7F8
FFF8
F83C
F01C
E01C
E01C
E01C
E01C
E01C
E01C
E01C
E01C
E01C
E01C
E01C
E01C
E01C
ENDCHAR
STARTCHAR 00F2
ENCODING 242
SWIDTH 553 0
DWIDTH 20 0
BBX 16 28 2 0
BITMAP
0800
1C00
1E00
0F00
0780
03C0
0180
0000
0000
0000
07E0
1FF0
3FFC
781C
700E
E00E
E00F
E007
E007
E007
E007
E007
E00E
700E
781C
3FFC
1FF0
07C0
ENDCHAR
STARTCHAR 00F3
ENCODING 243
SWIDTH 553 0
DWIDTH 20 0
BBX 16 28 2 0
BITMAP
0030
0078
0070
00E0
01C0
0380
0300
0000
0000
0000
07E0
1FF0
3FFC
781C
700E
E00E
E00F
E007
E007
E007
E007
E007
E00E
700E
781C
3FFC
1FF0
07C0
ENDCHAR
STARTCHAR 00F4
ENCODING 244
SWIDTH 553 0
DWIDTH 20 0
BBX 16 27 2 0
BITMAP
03C0
07C0
0EE0
0C70
1838
1018
0000
0000
0000
07E0
1FF0
3FFC
781C
700E
E00E
E00F
E007
E007
E007
E007
E007
E00E
700E
781C
3FFC
1FF0
07C0
ENDCHAR
STARTCHAR 00F5
ENCODING 245
SWIDTH 553 0
DWIDTH 20 0
BBX 16 26 2 0
BITMAP
1E0C
3F0C
339C
31F8
30F0
0000
0000
0000
07E0
1FF0
3FFC
781C
700E
E00E
E00F
E007
E007
E007
E007
E007
E00E
700E
781C
3FFC
1FF0
07C0
ENDCHAR
STARTCHAR 00F6
ENCODING 246
SWIDTH 553 0
DWIDTH 20 0
BBX 16 25 2 0
BITMAP
1C38
1C38
1C38
0810
0000
0000
0000
07E0
1FF0
3FFC
781C
700E
E00E
E00F
E007
E007
E007
E007
E007
E00E
700E
781C
3FFC
1FF0
07C0
ENDCHAR
STARTCHAR 00F7
ENCODING 247
SWIDTH 498 0
DWIDTH 18 0
BBX 16 17 1 3
BITMAP
0180
03C0
03C0
0180
0000
0000
0000
FFFF
FFFF
0000
0000
0000
0000
0180
03C0
03C0
0180
ENDCHAR
STARTCHAR 00F8
ENCODING 248
SWIDTH 553 0
DWIDTH 20 0
BBX 16 18 2 0
BITMAP
07E3
1FF6
3EFC
781C
701E
E03E
E067
E0C7
E187
E307
E707
E607
EC0E
780E
781C
7EFC
FFF0
C7C0
ENDCHAR
STARTCHAR 00F9
ENCODING 249
SWIDTH 553 0
DWIDTH 20 0
BBX 14 28 3 1
BITMAP
1800
3C00
1C00
0E00
0700
0380
0100
0000
0000
0000
E01C
E01C
E01C
E01C
E01C
E01C
E01C
E01C
E01C
E01C
E01C
E01C
E01C
E03C
F07C
7FDC
7F9C
1F1C
ENDCHAR
STARTCHAR 00FA
ENCODING 250
SWIDTH 553 0
DWIDTH 20 0
BBX 14 28 3 1
BITMAP
0060
00F0
01E0
03C0
0380
0700
0200
0000
0000
0000
E01C
E01C
E01C
E01C
E01C
E01C
E01C
E01C
E01C
E01C
E01C
E01C
E01C
E03C
F07C
7FDC
7F9C
1F1C
ENDCHAR
STARTCHAR 00FB
ENCODING 251
SWIDTH 553 0
DWIDTH 20 0
BBX 14 27 3 0
BITMAP
0780
0FC0
1DC0
38E0
3070
2010
0000
0000
0000
E01C
E01C
E01C
E01C
E01C
E01C
E01C
E01C
E01C
E01C
E01C
E01C
E01C
E03C
F07C
7FDC
7F9C
1F1C
ENDCHAR
STARTCHAR 00FC
ENCODING 252
SWIDTH 553 0
DWIDTH 20 0
BBX 14 25 3 0
BITMAP
3870
3870
3870
1020
0000
0000
0000
E01C
E01C
E01C
E01C
E01C
E01C
E01C
E01C
E01C
E01C
E01C
E01C
E01C
E03C
F07C
7FDC
7F9C
1F1C
ENDCHAR
STARTCHAR 00FD
ENCODING 253
SWIDTH 470 0
DWIDTH 17 0
BBX 15 36 1 -7
BITMAP
0030
0078
00F0
01E0
03C0
0380
0100
0000
0000
0000
E00E
E00E
E00E
701C
701C
301C
3818
3838
1C38
1C30
1C70
0E70
0E60
06E0
07E0
07C0
03C0
03C0
0380
0380
0380
0700
0700
7E00
FC00
F800
ENDCHAR
STARTCHAR 00FE
ENCODING 254
SWIDTH 553 0
DWIDTH 20 0
BBX 15 34 3 -8
BITMAP
E000
E000
E000
E000
E000
E000
E000
E000
E3E0
EFF8
FFFC
F83C
E01E
E00E
E00E
E00E
E00E
E00E
E00E
E00E
E00E
E01C
F03C
FFF8
FFF0
E7C0
E000
E000
E000
E000
E000
E000
E000
E000
ENDCHAR
STARTCHAR 00FF
ENCODING 255
SWIDTH 470 0
DWIDTH 17 0
BBX 15 33 1 -8
BITMAP
1C38
1C38
1C38
0810
0000
0000
0000
E00E
E00E
E00E
701C
701C
301C
3818
3838
1C38
1C30
1C70
0E70
0E60
06E0
07E0
07C0
03C0
03C0
0380
0380
0380
0700
0700
7E00
FC00
F800
ENDCHAR
STARTCHAR 0100
ENCODING 256
SWIDTH 553 0
DWIDTH 20 0
BBX 19 29 0 0
BITMAP
07FE00
07FE00
000000
000000
000000
00F000
00F000
01F000
01B800
01B800
039800
039C00
031C00
070C00
070E00
060E00
0E0600
0E0700
0C0700
1FFF00
1FFF80
180380
380380
3801C0
3801C0
7001C0
7000E0
7000E0
E000E0
ENDCHAR
STARTCHAR 0101
ENCODING 257
SWIDTH 498 0
DWIDTH 18 0
BBX 14 24 2 0
BITMAP
1FF0
1FF0
0000
0000
0000
0000
0FC0
3FF0
7FF8
6038
0038
001C
001C
01FC
0FFC
3C1C
701C
E01C
E01C
E03C
E07C
F9FC
7F9C
1E1C
ENDCHAR
STARTCHAR 0102
ENCODING 258
SWIDTH 553 0
DWIDTH 20 0
BBX 19 31 0 0
BITMAP
0C0600
060600
070C00
03FC00
01F000
000000
000000
00F000
00F000
01F000
01B800
01B800
039800
039C00
031C00
070C00
070E00
060E00
0E0600
0E0700
0C0700
1FFF00
1FFF80
180380
380380
3801C0
3801C0
7001C0
7000E0
7000E0
E000E0
ENDCHAR
STARTCHAR 0103
ENCODING 259
SWIDTH 498 0
DWIDTH 18 0
BBX 14 26 2 0
BITMAP
3018
3018
1C70
1FF0
07C0
0000
0000
0000
0FC0
3FF0
7FF8
6038
0038
001C
001C
01FC
0FFC
3C1C
701C
E01C
E01C
E03C
E07C
F9FC
7F9C
1E1C
ENDCHAR
STARTCHAR 0104
ENCODING 260
SWIDTH 553 0
DWIDTH 20 0
BBX 20 32 0 -8
BITMAP
00F000
00F000
01F000
01B800
01B800
039800
039C00
031C00
070C00
070E00
060E00
0E0600
0E0700
0C0700
1FFF00
1FFF80
180380
380380
3801C0
3801C0
7001C0
7000E0
7000E0
E000E0
0000E0
0000C0
000180
000380
000380
000380
0001F0
0000F0
ENDCHAR
STARTCHAR 0105
ENCODING 261
SWIDTH 498 0
DWIDTH 18 0
BBX 14 26 2 -8
BITMAP
0FC0
3FF0
7FF8
6038
0038
001C
001C
01FC
0FFC
3C1C
701C
E01C
E01C
E03C
E07C
F9FC
7F9C
1E1C
0038
0070
0060
00E0
00E0
00E0
007C
003C
ENDCHAR
STARTCHAR 0106
ENCODING 262
SWIDTH 581 0
DWIDTH 21 0
BBX 17 31 2 0
BITMAP
000C00
001E00
003C00
007800
00E000
004000
000000
01F800
07FE00
0FFF80
1E0300
3C0100
780000
700000
700000
E00000
E00000
E00000
E00000
E00000
E00000
E00000
E00000
F00000
700000
780000
3C0100
1E0380
1FFF80
07FE00
01F800
ENDCHAR
STARTCHAR 0107
ENCODING 263
SWIDTH 443 0
DWIDTH 16 0
BBX 13 28 2 0
BITMAP
0010
0038
0070
00E0
01C0
0380
0100
0000
0000
0000
07E0
1FF8
3FF8
7810
7000
F000
E000
E000
E000
E000
E000
E000
F000
7000
7818
3FF8
1FF8
07E0
ENDCHAR
STARTCHAR 0108
ENCODING 264
SWIDTH 581 0
DWIDTH 21 0
BBX 17 30 2 0
BITMAP
00F000
01F800
039C00
070E00
040600
000000
01F800
07FE00
0FFF80
1E0300
3C0100
780000
700000
700000
E00000
E00000
E00000
E00000
E00000
E00000
E00000
E00000
F00000
700000
780000
3C0100
1E0380
1FFF80
07FE00
01F800
ENDCHAR
STARTCHAR 0109
ENCODING 265
SWIDTH 443 0
DWIDTH 16 0
BBX 13 27 2 0
BITMAP
03C0
07E0
07F0
0E70
1C38
1818
0000
0000
0000
07E0
1FF8
3FF8
7810
7000
F000
E000
E000
E000
E000
E000
E000
F000
7000
7818
3FF8
1FF8
07E0
ENDCHAR
STARTCHAR 010A
ENCODING 266
SWIDTH 581 0
DWIDTH 21 0
BBX 17 30 2 0
BITMAP
006000
00F000
00F000
00E000
000000
000000
01F800
07FE00
0FFF80
1E0300
3C0100
780000
700000
700000
E00000
E00000
E00000
E00000
E00000
E00000
E00000
E00000
F00000
700000
780000
3C0100
1E0380
1FFF80
07FE00
01F800
ENDCHAR
STARTCHAR 010B
ENCODING 267
SWIDTH 443 0
DWIDTH 16 0
BBX 13 25 2 0
BITMAP
0180
03C0
03C0
0180
0000
0000
0000
07E0
1FF8
3FF8
7810
7000
F000
E000
E000
E000
E000
E000
E000
F000
7000
7818
3FF8
1FF8
07E0
ENDCHAR
STARTCHAR 010C
ENCODING 268
SWIDTH 581 0
DWIDTH 21 0
BBX 17 30 2 0
BITMAP
060600
070C00
039C00
01F800
00F000
000000
01F800
07FE00
0FFF80
1E0300
3C0100
780000
700000
700000
E00000
E00000
E00000
E00000
E00000
E00000
E00000
E00000
F00000
700000
780000
3C0100
1E0380
1FFF80
07FE00
01F800
ENDCHAR
STARTCHAR 010D
ENCODING 269
SWIDTH 443 0
DWIDTH 16 0
BBX 13 27 2 0
BITMAP
1008
1818
0C30
0E70
07E0
03C0
0000
0000
0000
07E0
1FF8
3FF8
7810
7000
F000
E000
E000
E000
E000
E000
E000
F000
7000
7818
3FF8
1FF8
07E0
ENDCHAR
STARTCHAR 010E
ENCODING 270
SWIDTH 609 0
DWIDTH 22 0
BBX 17 31 3 0
BITMAP
180800
1C3800
0E7000
07E000
03C000
000000
000000
FFC000
FFF800
E3FC00
E03E00
E00F00
E00700
E00780
E00380
E00380
E00380
E00380
E00380
E00380
E00380
E00380
E00380
E00380
E00700
E00700
E00F00
E03E00
E1FC00
FFF000
FFC000
ENDCHAR
STARTCHAR 010F
ENCODING 271
SWIDTH 581 0
DWIDTH 21 0
BBX 19 28 2 0
BITMAP
000060
000060
000E60
000E60
000E60
000E60
000E60
000E60
000E00
000E00
07CE00
1FFE00
3FFE00
781E00
700E00
F00E00
E00E00
E00E00
E00E00
E00E00
E00E00
E00E00
E00E00
F00E00
781E00
3FFE00
3FEE00
0F8600
ENDCHAR
STARTCHAR 0110
ENCODING 272
SWIDTH 636 0
DWIDTH 23 0
BBX 20 24 1 0
BITMAP
1FF800
1FFE00
1C7F80
1C07C0
1C01C0
1C01E0
1C00E0
1C00F0
1C0070
1C0070
FFE070
FFE070
1C0070
1C0070
1C0070
1C0070
1C00F0
1C00E0
1C01E0
1C03C0
1C07C0
1C7F80
1FFE00
1FF800
ENDCHAR
STARTCHAR 0111
ENCODING 273
SWIDTH 553 0
DWIDTH 20 0
BBX 18 26 2 0
BITMAP
000E00
000E00
000E00
03FFC0
03FFC0
000E00
000E00
000E00
000E00
07CE00
1FFE00
3FFE00
781E00
700E00
E00E00
E00E00
E00E00
E00E00
E00E00
E00E00
E00E00
F00E00
781E00
7FFE00
3FEE00
0F8E00
ENDCHAR
STARTCHAR 0112
ENCODING 274
SWIDTH 526 0
DWIDTH 19 0
BBX 14 29 3 0
BITMAP
3FF0
3FF0
0000
0000
0000
FFFC
FFFC
FFFC
E000
E000
E000
E000
E000
E000
E000
FFF0
FFF0
FFF0
E000
E000
E000
E000
E000
E000
E000
E000
FFFC
FFFC
FFFC
ENDCHAR
STARTCHAR 0113
ENCODING 275
SWIDTH 498 0
DWIDTH 18 0
BBX 15 24 2 0
BITMAP
1FF0
1FF0
0000
0000
0000
0000
07C0
1FF0
3EF8
781C
701C
E00C
E00C
E00E
FFFE
FFFC
E000
E000
E000
7000
7800
3F78
1FF8
07E0
ENDCHAR
STARTCHAR 0114
ENCODING 276
SWIDTH 526 0
DWIDTH 19 0
BBX 14 31 3 0
BITMAP
3010
3030
1870
1FE0
07C0
0000
0000
FFFC
FFFC
FFFC
E000
E000
E000
E000
E000
E000
E000
FFF0
FFF0
FFF0
E000
E000
E000
E000
E000
E000
E000
E000
FFFC
FFFC
FFFC
ENDCHAR
STARTCHAR 0115
ENCODING 277
SWIDTH 498 0
DWIDTH 18 0
BBX 15 26 2 0
BITMAP
3018
3818
1C30
1FF0
07C0
0000
0000
0000
07C0
1FF0
3EF8
781C
701C
E00C
E00C
E00E
FFFE
FFFC
E000
E000
E000
7000
7800
3F78
1FF8
07E0
ENDCHAR
STARTCHAR 0116
ENCODING 278
SWIDTH 526 0
DWIDTH 19 0
BBX 14 30 3 0
BITMAP
0380
0780
0780
0300
0000
0000
FFFC
FFFC
FFFC
E000
E000
E000
E000
E000
E000
E000
FFF0
FFF0
FFF0
E000
E000
E000
E000
E000
E000
E000
E000
FFFC
FFFC
FFFC
ENDCHAR
STARTCHAR 0117
ENCODING 279
SWIDTH 498 0
DWIDTH 18 0
BBX 15 25 2 0
BITMAP
0380
0380
0380
0380
0000
0000
0000
07C0
1FF0
3EF8
781C
701C
E00C
E00C
E00E
FFFE
FFFC
E000
E000
E000
7000
7800
3F78
1FF8
07E0
ENDCHAR
STARTCHAR 0118
ENCODING 280
SWIDTH 526 0
DWIDTH 19 0
BBX 15 32 3 -8
BITMAP
FFFC
FFFC
FFFC
E000
E000
E000
E000
E000
E000
E000
FFF0
FFF0
FFF0
E000
E000
E000
E000
E000
E000
E000
E000
FFFC
FFFC
FFFC
0018
0030
0060
0060
00E0
0070
007E
003C
ENDCHAR
STARTCHAR 0119
ENCODING 281
SWIDTH 498 0
DWIDTH 18 0
BBX 15 26 2 -8
BITMAP
07C0
1FF0
3EF8
781C
701C
E00C
E00C
E00E
FFFE
FFFC
E000
E000
E000
7000
7800
3F78
1FF8
07F0
0060
0060
00C0
00C0
00C0
00C0
00F8
0078
ENDCHAR
STARTCHAR 011A
ENCODING 282
SWIDTH 526 0
DWIDTH 19 0
BBX 14 31 3 0
BITMAP
3010
3870
1CE0
0FC0
0780
0000
0000
FFFC
FFFC
FFFC
E000
E000
E000
E000
E000
E000
E000
FFF0
FFF0
FFF0
E000
E000
E000
E000
E000
E000
E000
E000
FFFC
FFFC
FFFC
ENDCHAR
STARTCHAR 011B
ENCODING 283
SWIDTH 498 0
DWIDTH 18 0
BBX 15 27 2 0
BITMAP
3018
3838
1C70
0EE0
07C0
03C0
0000
0000
0000
07C0
1FF0
3EF8
781C
701C
E00C
E00C
E00E
FFFE
FFFC
E000
E000
E000
7000
7800
3F78
1FF8
07E0
ENDCHAR
STARTCHAR 011C
ENCODING 284
SWIDTH 609 0
DWIDTH 22 0
BBX 18 30 2 0
BITMAP
007800
00FC00
01CE00
030700
020200
000000
01FC00
07FF00
0FFF80
1E0380
3C0000
780000
700000
700000
E00000
E00000
E00000
E00000
E03FC0
E03FC0
E001C0
E001C0
7001C0
7001C0
7801C0
3C01C0
1E03C0
0FFFC0
07FF00
01FC00
ENDCHAR
STARTCHAR 011D
ENCODING 285
SWIDTH 498 0
DWIDTH 18 0
BBX 16 35 2 -8
BITMAP
03C0
07C0
0EE0
1C70
3838
1018
0000
0000
0000
0FFE
3FFE
78F0
7038
6038
E018
E018
E038
7038
7870
3FE0
37C0
6000
6000
6000
7C00
3FFC
3FFE
600F
E007
C007
C006
E00E
F03C
7FF8
1FE0
ENDCHAR
STARTCHAR 011E
ENCODING 286
SWIDTH 609 0
DWIDTH 22 0
BBX 18 30 2 0
BITMAP
020300
030300
038600
01FE00
00F800
000000
01FC00
07FF00
0FFF80
1E0380
3C0000
780000
700000
700000
E00000
E00000
E00000
E00000
E03FC0
E03FC0
E001C0
E001C0
7001C0
7001C0
7801C0
3C01C0
1E03C0
0FFFC0
07FF00
01FC00
ENDCHAR
STARTCHAR 011F
ENCODING 287
SWIDTH 498 0
DWIDTH 18 0
BBX 16 34 2 -8
BITMAP
3018
3818
1C38
0FF0
07C0
0000
0000
0000
0FFE
3FFE
78F0
7038
6038
E018
E018
E038
7038
7870
3FE0
37C0
6000
6000
6000
7C00
3FFC
3FFE
600F
E007
C007
C006
E00E
F03C
7FF8
1FE0
ENDCHAR
STARTCHAR 0120
ENCODING 288
SWIDTH 609 0
DWIDTH 22 0
BBX 18 30 2 0
BITMAP
003000
007800
007800
007000
000000
000000
01FC00
07FF00
0FFF80
1E0380
3C0000
780000
700000
700000
E00000
E00000
E00000
E00000
E03FC0
E03FC0
E001C0
E001C0
7001C0
7001C0
7801C0
3C01C0
1E03C0
0FFFC0
07FF00
01FC00
ENDCHAR
STARTCHAR 0121
ENCODING 289
SWIDTH 498 0
DWIDTH 18 0
BBX 16 34 2 -8
BITMAP
0180
03C0
03C0
0380
0000
0000
0000
0000
0FFE
3FFE
78F0
7038
6038
E018
E018
E038
7038
7870
3FE0
37C0
6000
6000
6000
7C00
3FFC
3FFE
600F
E007
C007
C006
E00E
F03C
7FF8
1FE0
ENDCHAR
STARTCHAR 0122
ENCODING 290
SWIDTH 609 0
DWIDTH 22 0
BBX 18 32 2 -8
BITMAP
01FC00
07FF00
0FFF80
1E0380
3C0000
780000
700000
700000
E00000
E00000
E00000
E00000
E03FC0
E03FC0
E001C0
E001C0
7001C0
7001C0
7801C0
3C01C0
1E03C0
0FFFC0
07FF00
01FC00
000000
000000
007000
003800
001800
001800
00F800
01E000
ENDCHAR
STARTCHAR 0123
ENCODING 291
SWIDTH 498 0
DWIDTH 18 0
BBX 16 35 2 -8
BITMAP
03E0
0700
0600
0600
0780
0180
0000
0000
0000
0FFE
3FFE
78F0
7038
6038
E018
E018
E038
7038
7870
3FE0
37C0
6000
6000
6000
7C00
3FFC
3FFE
600F
E007
C007
C006
E00E
F03C
7FF8
1FE0
ENDCHAR
STARTCHAR 0124
ENCODING 292
SWIDTH 664 0
DWIDTH 24 0
BBX 17 31 3 0
BITMAP
01C000
03E000
077000
0E1800
1C0C00
000000
000000
E00380
E00380
E00380
E00380
E00380
E00380
E00380
E00380
E00380
E00380
FFFF80
FFFF80
FFFF80
E00380
E00380
E00380
E00380
E00380
E00380
E00380
E00380
E00380
E00380
E00380
ENDCHAR
STARTCHAR 0125
ENCODING 293
SWIDTH 553 0
DWIDTH 20 0
BBX 17 32 0 0
BITMAP
3C0000
3E0000
630000
C18000
808000
000000
1C0000
1C0000
1C0000
1C0000
1C0000
1C0000
1C0000
1C0000
1C7C00
1DFF00
1FFF00
1F0780
1E0380
1C0380
1C0380
1C0380
1C0380
1C0380
1C0380
1C0380
1C0380
1C0380
1C0380
1C0380
1C0380
1C0380
ENDCHAR
STARTCHAR 0126
ENCODING 294
SWIDTH 692 0
DWIDTH 25 0
BBX 23 24 1 0
BITMAP
1C0070
1C0070
1C0070
1C0070
FFFFFE
FFFFFE
1C0070
1C0070
1C0070
1C0070
1FFFF0
1FFFF0
1FFFF0
1C0070
1C0070
1C0070
1C0070
1C0070
1C0070
1C0070
1C0070
1C0070
1C0070
1C0070
ENDCHAR
STARTCHAR 0127
ENCODING 295
SWIDTH 553 0
DWIDTH 20 0
BBX 17 26 0 0
BITMAP
1C0000
1C0000
1C0000
FFF000
FFF000
1C0000
1C0000
1C0000
1C0000
1C1000
1CFE00
1DFF00
1F8700
1E0780
1C0380
1C0380
1C0380
1C0380
1C0380
1C0380
1C0380
1C0380
1C0380
1C0380
1C0380
1C0380
ENDCHAR
STARTCHAR 0128
ENCODING 296
SWIDTH 276 0
DWIDTH 10 0
BBX 13 31 -2 0
BITMAP
3C18
7E18
67B8
E3F0
C0E0
0000
0000
0700
0700
0700
0700
0700
0700
0700
0700
0700
0700
0700
0700
0700
0700
0700
0700
0700
0700
0700
0700
0700
0700
0700
0700
ENDCHAR
STARTCHAR 0129
ENCODING 297
SWIDTH 249 0
DWIDTH 9 0
BBX 13 26 -2 0
BITMAP
3C18
7E38
6730
C3F0
C1E0
0000
0000
0000
0700
0700
0700
0700
0700
0700
0700
0700
0700
0700
0700
0700
0700
0700
0700
0700
0700
0700
ENDCHAR
STARTCHAR 012A
ENCODING 298
SWIDTH 276 0
DWIDTH 10 0
BBX 10 29 0 0
BITMAP
FFC0
FFC0
0000
0000
0000
1C00
1C00
1C00
1C00
1C00
1C00
1C00
1C00
1C00
1C00
1C00
1C00
1C00
1C00
1C00
1C00
1C00
1C00
1C00
1C00
1C00
1C00
1C00
1C00
ENDCHAR
STARTCHAR 012B
ENCODING 299
SWIDTH 249 0
DWIDTH 9 0
BBX 9 24 0 0
BITMAP
FF80
FF80
0000
0000
0000
0000
1C00
1C00
1C00
1C00
1C00
1C00
1C00
1C00
1C00
1C00
1C00
1C00
1C00
1C00
1C00
1C00
1C00
1C00
ENDCHAR
STARTCHAR 012C
ENCODING 300
SWIDTH 276 0
DWIDTH 10 0
BBX 11 31 -1 0
BITMAP
C060
6060
70C0
3FC0
1F00
0000
0000
0E00
0E00
0E00
0E00
0E00
0E00
0E00
0E00
0E00
0E00
0E00
0E00
0E00
0E00
0E00
0E00
0E00
0E00
0E00
0E00
0E00
0E00
0E00
0E00
ENDCHAR
STARTCHAR 012D
ENCODING 301
SWIDTH 249 0
DWIDTH 9 0
BBX 11 26 -1 0
BITMAP
C060
C060
71C0
7FC0
1F00
0000
0000
0000
0E00
0E00
0E00
0E00
0E00
0E00
0E00
0E00
0E00
0E00
0E00
0E00
0E00
0E00
0E00
0E00
0E00
0E00
ENDCHAR
STARTCHAR 012E
ENCODING 302
SWIDTH 276 0
DWIDTH 10 0
BBX 6 32 2 -8
BITMAP
70
70
70
70
70
70
70
70
70
70
70
70
70
70
70
70
70
70
70
70
70
70
70
70
30
60
C0
C0
C0
E0
FC
78
ENDCHAR
STARTCHAR 012F
ENCODING 303
SWIDTH 249 0
DWIDTH 9 0
BBX 6 34 1 -8
BITMAP
38
78
78
38
00
00
00
00
38
38
38
38
38
38
38
38
38
38
38
38
38
38
38
38
38
38
30
20
60
60
E0
E0
7C
3C
ENDCHAR
STARTCHAR 0130
ENCODING 304
SWIDTH 276 0
DWIDTH 10 0
BBX 4 30 3 0
BITMAP
E0
F0
F0
60
00
00
E0
E0
E0
E0
E0
E0
E0
E0
E0
E0
E0
E0
E0
E0
E0
E0
E0
E0
E0
E0
E0
E0
E0
E0
ENDCHAR
STARTCHAR 0131
ENCODING 305
SWIDTH 249 0
DWIDTH 9 0
BBX 3 18 3 0
BITMAP
E0
E0
E0
E0
E0
E0
E0
E0
E0
E0
E0
E0
E0
E0
E0
E0
E0
E0
ENDCHAR
STARTCHAR 0132
ENCODING 306
SWIDTH 526 0
DWIDTH 19 0
BBX 13 30 3 -6
BITMAP
E038
E038
E038
E038
E038
E038
E038
E038
E038
E038
E038
E038
E038
E038
E038
E038
E038
E038
E038
E038
E038
E038
E038
E038
0038
0038
0070
02F0
03F0
07C0
ENDCHAR
STARTCHAR 0133
ENCODING 307
SWIDTH 498 0
DWIDTH 18 0
BBX 13 33 2 -8
BITMAP
7038
F878
F078
7030
0000
0000
0000
7038
7038
7038
7038
7038
7038
7038
7038
7038
7038
7038
7038
7038
7038
7038
7038
7038
7038
0038
0038
0038
0038
0038
02F0
03F0
07C0
ENDCHAR
STARTCHAR 0134
ENCODING 308
SWIDTH 470 0
DWIDTH 17 0
BBX 17 31 1 0
BITMAP
003800
007C00
00EE00
01C700
038180
000000
000000
003800
003800
003800
003800
003800
003800
003800
003800
003800
003800
003800
003800
003800
003800
003800
003800
003800
003800
003800
603800
F07000
7FF000
3FE000
0F8000
ENDCHAR
STARTCHAR 0135
ENCODING 309
SWIDTH 249 0
DWIDTH 9 0
BBX 11 35 -1 -8
BITMAP
1E00
1F00
3B80
71C0
E0E0
4040
0000
0000
0000
0E00
0E00
0E00
0E00
0E00
0E00
0E00
0E00
0E00
0E00
0E00
0E00
0E00
0E00
0E00
0E00
0E00
0E00
0E00
0E00
0E00
0E00
0E00
BC00
FC00
F800
ENDCHAR
STARTCHAR 0136
ENCODING 310
SWIDTH 581 0
DWIDTH 21 0
BBX 17 32 3 -8
BITMAP
E00700
E00E00
E01E00
E03C00
E03800
E07000
E0E000
E1E000
E3C000
E78000
E7C000
EFE000
FEE000
FCF000
F87000
F03800
E03800
E01C00
E01E00
E00E00
E00F00
E00700
E00380
E00380
000000
000000
01C000
01E000
007000
006000
03E000
038000
ENDCHAR
STARTCHAR 0137
ENCODING 311
SWIDTH 498 0
DWIDTH 18 0
BBX 14 34 3 -8
BITMAP
E000
E000
E000
E000
E000
E000
E000
E000
E038
E078
E0F0
E0E0
E1C0
E380
E700
E700
EF80
FF80
F9C0
F1E0
F0E0
E070
E070
E038
E03C
E01C
0000
0000
0700
0780
01C0
0180
0F80
0E00
ENDCHAR
STARTCHAR 0138
ENCODING 312
SWIDTH 498 0
DWIDTH 18 0
BBX 14 18 3 0
BITMAP
E038
E078
E070
E0E0
E1C0
E380
E780
E700
EF80
FF80
F9C0
F1E0
F0E0
E070
E070
E038
E03C
E01C
ENDCHAR
STARTCHAR 0139
ENCODING 313
SWIDTH 498 0
DWIDTH 18 0
BBX 14 31 3 1
BITMAP
0C00
1E00
3800
F000
E000
0000
0000
E000
E000
E000
E000
E000
E000
E000
E000
E000
E000
E000
E000
E000
E000
E000
E000
E000
E000
E000
E000
E000
FFFC
FFFC
FFFC
ENDCHAR
STARTCHAR 013A
ENCODING 314
SWIDTH 249 0
DWIDTH 9 0
BBX 6 33 3 0
BITMAP
18
3C
78
F0
C0
00
00
E0
E0
E0
E0
E0
E0
E0
E0
E0
E0
E0
E0
E0
E0
E0
E0
E0
E0
E0
E0
E0
E0
E0
F0
F8
78
ENDCHAR
STARTCHAR 013B
ENCODING 315
SWIDTH 498 0
DWIDTH 18 0
BBX 14 32 3 -8
BITMAP
E000
E000
E000
E000
E000
E000
E000
E000
E000
E000
E000
E000
E000
E000
E000
E000
E000
E000
E000
E000
E000
FFFC
FFFC
FFFC
0000
0000
0300
03C0
00C0
00C0
0780
0F00
ENDCHAR
STARTCHAR 013C
ENCODING 316
SWIDTH 249 0
DWIDTH 9 0
BBX 7 34 2 -8
BITMAP
70
70
70
70
70
70
70
70
70
70
70
70
70
70
70
70
70
70
70
70
70
70
70
78
7C
3C
00
00
3C
1C
0E
0C
7C
F0
ENDCHAR
STARTCHAR 013D
ENCODING 317
SWIDTH 498 0
DWIDTH 18 0
BBX 14 27 3 0
BITMAP
0060
0060
0060
E060
E060
E060
E060
E060
E000
E000
E000
E000
E000
E000
E000
E000
E000
E000
E000
E000
E000
E000
E000
E000
FFFC
FFFC
FFFC
ENDCHAR
STARTCHAR 013E
ENCODING 318
SWIDTH 276 0
DWIDTH 10 0
BBX 7 28 3 0
BITMAP
06
06
E6
E6
E6
E6
E6
E4
E0
E0
E0
E0
E0
E0
E0
E0
E0
E0
E0
E0
E0
E0
E0
E0
E0
F0
F8
78
ENDCHAR
STARTCHAR 013F
ENCODING 319
SWIDTH 498 0
DWIDTH 18 0
BBX 14 24 3 0
BITMAP
E000
E000
E000
E000
E000
E000
E000
E000
E000
E000
E070
E078
E0F8
E070
E020
E000
E000
E000
E000
E000
E000
FFFC
FFFC
FFFC
ENDCHAR
STARTCHAR 0140
ENCODING 320
SWIDTH 360 0
DWIDTH 13 0
BBX 10 26 3 0
BITMAP
E000
E000
E000
E000
E000
E000
E000
E000
E000
E000
E000
E000
E3C0
E3C0
E3C0
E180
E000
E000
E000
E000
E000
E000
E000
F000
F800
7800
ENDCHAR
STARTCHAR 0141
ENCODING 321
SWIDTH 498 0
DWIDTH 18 0
BBX 17 24 0 0
BITMAP
1C0000
1C0000
1C0000
1C0000
1C0000
1C0000
1C0000
1C0000
1C0800
1C3C00
1CF800
1FE000
1F8000
3E0000
FC0000
FC0000
1C0000
1C0000
1C0000
1C0000
1C0000
1FFF80
1FFF80
1FFF80
ENDCHAR
STARTCHAR 0142
ENCODING 322
SWIDTH 249 0
DWIDTH 9 0
BBX 9 26 0 0
BITMAP
1C00
1C00
1C00
1C00
1C00
1C00
1C00
1C00
1C00
1F80
1F80
1E00
7C00
FC00
5C00
1C00
1C00
1C00
1C00
1C00
1C00
1C00
1C00
1F00
0F00
0F00
ENDCHAR
STARTCHAR 0143
ENCODING 323
SWIDTH 636 0
DWIDTH 23 0
BBX 17 31 3 1
BITMAP
001800
003C00
007000
01E000
01C000
000000
000000
F00380
F00380
F80380
F80380
FC0380
EC0380
EE0380
E70380
E70380
E38380
E38380
E1C380
E1C380
E0E380
E07380
E07380
E03B80
E03B80
E01D80
E01D80
E00F80
E00780
E00780
E00380
ENDCHAR
STARTCHAR 0144
ENCODING 324
SWIDTH 553 0
DWIDTH 20 0
BBX 14 29 3 0
BITMAP
0020
0030
0078
00F0
01C0
0380
0300
0000
0000
0000
0000
C3E0
E7F8
FFF8
F83C
F01C
E01C
E01C
E01C
E01C
E01C
E01C
E01C
E01C
E01C
E01C
E01C
E01C
E01C
ENDCHAR
STARTCHAR 0145
ENCODING 325
SWIDTH 636 0
DWIDTH 23 0
BBX 17 32 3 -8
BITMAP
F00380
F00380
F80380
F80380
FC0380
EC0380
EE0380
E70380
E70380
E38380
E38380
E1C380
E1C380
E0E380
E07380
E07380
E03B80
E03B80
E01D80
E01D80
E00F80
E00780
E00780
E00380
000000
000000
01C000
01E000
007000
007000
03E000
038000
ENDCHAR
STARTCHAR 0146
ENCODING 326
SWIDTH 553 0
DWIDTH 20 0
BBX 14 26 3 -8
BITMAP
C3E0
E7F8
FFF8
F83C
F01C
E01C
E01C
E01C
E01C
E01C
E01C
E01C
E01C
E01C
E01C
E01C
E01C
E01C
0000
0000
0700
07C0
00C0
01C0
0F80
0E00
ENDCHAR
STARTCHAR 0147
ENCODING 327
SWIDTH 636 0
DWIDTH 23 0
BBX 17 31 3 0
BITMAP
080C00
0E1C00
073800
03F000
01E000
000000
000000
F00380
F00380
F80380
F80380
FC0380
EC0380
EE0380
E70380
E70380
E38380
E38380
E1C380
E1C380
E0E380
E07380
E07380
E03B80
E03B80
E01D80
E01D80
E00F80
E00780
E00780
E00380
ENDCHAR
STARTCHAR 0148
ENCODING 328
SWIDTH 553 0
DWIDTH 20 0
BBX 14 27 3 0
BITMAP
3018
3838
1C70
0EE0
07C0
03C0
0000
0000
0000
C3E0
E7F8
FFF8
F83C
F01C
E01C
E01C
E01C
E01C
E01C
E01C
E01C
E01C
E01C
E01C
E01C
E01C
E01C
ENDCHAR
STARTCHAR 0149
ENCODING 329
SWIDTH 775 0
DWIDTH 28 0
BBX 23 25 2 0
BITMAP
700000
780000
780000
380000
180000
180000
300000
E061F0
4073FC
007FFC
007C1E
00780E
00700E
00700E
00700E
00700E
00700E
00700E
00700E
00700E
00700E
00700E
00700E
00700E
00700E
ENDCHAR
STARTCHAR 014A
ENCODING 330
SWIDTH 636 0
DWIDTH 23 0
BBX 18 24 3 0
BITMAP
E1F800
E7FE00
EFFF00
FC0F00
F80780
F00380
E003C0
E001C0
E001C0
E001C0
E001C0
E001C0
E001C0
E001C0
E001C0
E001C0
E001C0
E003C0
E00380
E00380
E00780
E07F00
E07E00
E07C00
ENDCHAR
STARTCHAR 014B
ENCODING 331
SWIDTH 553 0
DWIDTH 20 0
BBX 14 24 3 -6
BITMAP
C3E0
E7F8
FFF8
F83C
F01C
E01C
E01C
E01C
E01C
E01C
E01C
E01C
E01C
E01C
E01C
E01C
E01C
E01C
001C
001C
001C
003C
01F8
01F0
ENDCHAR
STARTCHAR 014C
ENCODING 332
SWIDTH 664 0
DWIDTH 24 0
BBX 20 28 2 0
BITMAP
07FE00
07FE00
000000
000000
01F800
07FE00
1FFF80
3E07C0
3803C0
7801E0
7000E0
F000F0
E00070
E00070
E00070
E00070
E00070
E00070
E00070
E00070
7000F0
7000E0
7801E0
3C01C0
1E0780
1FFF80
07FE00
01F800
ENDCHAR
STARTCHAR 014D
ENCODING 333
SWIDTH 553 0
DWIDTH 20 0
BBX 16 24 2 0
BITMAP
1FF8
1FF8
0000
0000
0000
0000
07E0
1FF0
3FFC
781C
700E
E00E
E00F
E007
E007
E007
E007
E007
E00E
700E
781C
3FFC
1FF0
07C0
ENDCHAR
STARTCHAR 014E
ENCODING 334
SWIDTH 664 0
DWIDTH 24 0
BBX 20 30 2 0
BITMAP
060600
060600
070E00
03FC00
00F000
000000
01F800
07FE00
1FFF80
3E07C0
3803C0
7801E0
7000E0
F000F0
E00070
E00070
E00070
E00070
E00070
E00070
E00070
E00070
7000F0
7000E0
7801E0
3C01C0
1E0780
1FFF80
07FE00
01F800
ENDCHAR
STARTCHAR 014F
ENCODING 335
SWIDTH 553 0
DWIDTH 20 0
BBX 16 26 2 0
BITMAP
3018
3818
1C38
0FF0
07C0
0000
0000
0000
07E0
1FF0
3FFC
781C
700E
E00E
E00F
E007
E007
E007
E007
E007
E00E
700E
781C
3FFC
1FF0
07C0
ENDCHAR
STARTCHAR 0150
ENCODING 336
SWIDTH 664 0
DWIDTH 24 0
BBX 20 31 2 1
BITMAP
006180
00E380
00C300
01C600
018E00
010400
000000
01F800
07FE00
1FFF80
3E07C0
3803C0
7801E0
7000E0
F000F0
E00070
E00070
E00070
E00070
E00070
E00070
E00070
E00070
7000F0
7000E0
7801E0
3C01C0
1E0780
1FFF80
07FE00
01F800
ENDCHAR
STARTCHAR 0151
ENCODING 337
SWIDTH 553 0
DWIDTH 20 0
BBX 16 27 2 0
BITMAP
018E
038C
031C
0718
0638
0E30
0000
0000
0000
07E0
1FF0
3FFC
781C
700E
E00E
E00F
E007
E007
E007
E007
E007
E00E
700E
781C
3FFC
1FF0
07C0
ENDCHAR
STARTCHAR 0152
ENCODING 338
SWIDTH 858 0
DWIDTH 31 0
BBX 27 24 2 0
BITMAP
00FFFFC0
07FFFFC0
0FE7FFC0
1E070000
3C070000
78070000
70070000
F0070000
E0070000
E0070000
E007FF80
E007FF80
E007FF80
E0070000
E0070000
E0070000
70070000
70070000
78070000
3C070000
1E070000
0FE7FFE0
07FFFFE0
01FFFFE0
ENDCHAR
STARTCHAR 0153
ENCODING 339
SWIDTH 830 0
DWIDTH 30 0
BBX 27 18 2 0
BITMAP
07C03E00
1FF0FF00
3EF9E780
783D81C0
701F00C0
E00F00E0
E00F00E0
E00E00E0
E00FFFE0
E00FFFE0
E00E0000
E00F0000
E00F0000
701F8000
781FC000
3EF9F7C0
1FF0FFC0
07C03E00
ENDCHAR
STARTCHAR 0154
ENCODING 340
SWIDTH 581 0
DWIDTH 21 0
BBX 16 32 3 0
BITMAP
0020
0070
00F0
01E0
0380
0300
0000
0000
FFF0
FFFC
E0FE
E00E
E00F
E007
E007
E007
E007
E00F
E01E
E0FC
FFF8
FFE0
E0E0
E0F0
E070
E038
E038
E01C
E01E
E00E
E00F
E007
ENDCHAR
STARTCHAR 0155
ENCODING 341
SWIDTH 360 0
DWIDTH 13 0
BBX 10 28 3 1
BITMAP
0180
03C0
0780
0F00
0E00
1C00
0800
0000
0000
0000
C3C0
EF80
EF80
F800
F000
F000
E000
E000
E000
E000
E000
E000
E000
E000
E000
E000
E000
E000
ENDCHAR
STARTCHAR 0156
ENCODING 342
SWIDTH 581 0
DWIDTH 21 0
BBX 16 32 3 -8
BITMAP
FFF0
FFFC
E0FE
E00E
E00F
E007
E007
E007
E007
E00F
E01E
E0FC
FFF8
FFE0
E0E0
E0F0
E070
E038
E038
E01C
E01E
E00E
E00F
E007
0000
0000
0380
03C0
00E0
00E0
07C0
0700
ENDCHAR
STARTCHAR 0157
ENCODING 343
SWIDTH 360 0
DWIDTH 13 0
BBX 12 26 1 -8
BITMAP
30F0
3BE0
3BE0
3E00
3C00
3C00
3800
3800
3800
3800
3800
3800
3800
3800
3800
3800
3800
3800
0000
0000
3000
3C00
0C00
0C00
7800
E000
ENDCHAR
STARTCHAR 0158
ENCODING 344
SWIDTH 581 0
DWIDTH 21 0
BBX 16 31 3 0
BITMAP
1010
1830
1CE0
0FC0
0780
0000
0000
FFF0
FFFC
E0FE
E00E
E00F
E007
E007
E007
E007
E00F
E01E
E0FC
FFF8
FFE0
E0E0
E0F0
E070
E038
E038
E01C
E01E
E00E
E00F
E007
ENDCHAR
STARTCHAR 0159
ENCODING 345
SWIDTH 360 0
DWIDTH 13 0
BBX 10 27 3 0
BITMAP
8040
C0C0
E380
7700
3F00
1E00
0000
0000
0000
C3C0
EF80
EF80
F800
F000
F000
E000
E000
E000
E000
E000
E000
E000
E000
E000
E000
E000
E000
ENDCHAR
STARTCHAR 015A
ENCODING 346
SWIDTH 526 0
DWIDTH 19 0
BBX 16 31 2 0
BITMAP
0030
0078
00F0
01E0
0380
0100
0000
07E0
1FF8
3FFE
780E
7004
7000
7000
7000
7800
3E00
1F80
0FF0
03F8
007E
001E
000F
0007
0007
0007
E00E
F01E
7FFC
3FF8
0FE0
ENDCHAR
STARTCHAR 015B
ENCODING 347
SWIDTH 415 0
DWIDTH 15 0
BBX 13 28 1 0
BITMAP
0060
0070
00E0
01C0
0380
0700
0200
0000
0000
0000
0FC0
3FF0
3CF0
7020
7000
7000
7800
3E00
1FC0
07E0
00F0
0078
0038
0038
6038
F8F0
7FE0
1F80
ENDCHAR
STARTCHAR 015C
ENCODING 348
SWIDTH 526 0
DWIDTH 19 0
BBX 16 30 2 0
BITMAP
03C0
07E0
0E70
1C38
1808
0000
07E0
1FF8
3FFE
780E
7004
7000
7000
7000
7800
3E00
1F80
0FF0
03F8
007E
001E
000F
0007
0007
0007
E00E
F01E
7FFC
3FF8
0FE0
ENDCHAR
STARTCHAR 015D
ENCODING 349
SWIDTH 415 0
DWIDTH 15 0
BBX 13 27 1 0
BITMAP
0780
0FC0
1DC0
18E0
3070
2030
0000
0000
0000
0FC0
3FF0
3CF0
7020
7000
7000
7800
3E00
1FC0
07E0
00F0
0078
0038
0038
6038
F8F0
7FE0
1F80
ENDCHAR
STARTCHAR 015E
ENCODING 350
SWIDTH 526 0
DWIDTH 19 0
BBX 16 32 2 -8
BITMAP
07E0
1FF8
3FFE
780E
7004
7000
7000
7000
7800
3E00
1F80
0FF0
03F8
007C
001E
000F
0007
0007
0007
E00F
F01E
7FFC
3FF8
0FE0
0180
0300
0380
00C0
00E0
00E0
07C0
0700
ENDCHAR
STARTCHAR 015F
ENCODING 351
SWIDTH 415 0
DWIDTH 15 0
BBX 13 26 1 -8
BITMAP
0FC0
3FF0
3CF0
7020
7000
7000
7800
3E00
1FC0
07E0
00F0
0078
0038
0038
6038
F8F0
7FE0
1F80
0300
0600
0780
01C0
01C0
01C0
0F80
0E00
ENDCHAR
STARTCHAR 0160
ENCODING 352
SWIDTH 526 0
DWIDTH 19 0
BBX 16 30 2 0
BITMAP
1818
0C38
0E70
07E0
03C0
0000
07E0
1FF8
3FFE
780E
7004
7000
7000
7000
7800
3E00
1F80
0FF0
03F8
007E
001E
000F
0007
0007
0007
E00E
F01E
7FFC
3FF8
0FE0
ENDCHAR
STARTCHAR 0161
ENCODING 353
SWIDTH 415 0
DWIDTH 15 0
BBX 13 27 1 0
BITMAP
2010
3030
1860
1CE0
0FC0
0780
0000
0000
0000
0FC0
3FF0
3CF0
7020
7000
7000
7800
3E00
1FC0
07E0
00F0
0078
0038
0038
6038
F8F0
7FE0
1F80
ENDCHAR
STARTCHAR 0162
ENCODING 354
SWIDTH 526 0
DWIDTH 19 0
BBX 17 32 1 -8
BITMAP
FFFF80
FFFF80
FFFF80
01C000
01C000
01C000
01C000
01C000
01C000
01C000
01C000
01C000
01C000
01C000
01C000
01C000
01C000
01C000
01C000
01C000
01C000
01C000
01C000
01C000
00C000
018000
01C000
00E000
006000
006000
03E000
078000
ENDCHAR
STARTCHAR 0163
ENCODING 355
SWIDTH 332 0
DWIDTH 12 0
BBX 11 31 1 -8
BITMAP
1800
1800
1800
1800
1800
FFC0
FFC0
3800
3800
3800
3800
3800
3800
3800
3800
3800
3800
3800
1C00
1C00
1F40
0FE0
07C0
0300
0600
0700
0380
01C0
01C0
0F80
0E00
ENDCHAR
STARTCHAR 0164
ENCODING 356
SWIDTH 526 0
DWIDTH 19 0
BBX 17 31 1 0
BITMAP
080800
0C1800
073800
03F000
01E000
000000
000000
FFFF80
FFFF80
FFFF80
01C000
01C000
01C000
01C000
01C000
01C000
01C000
01C000
01C000
01C000
01C000
01C000
01C000
01C000
01C000
01C000
01C000
01C000
01C000
01C000
01C000
ENDCHAR
STARTCHAR 0165
ENCODING 357
SWIDTH 332 0
DWIDTH 12 0
BBX 11 28 1 0
BITMAP
00C0
00C0
00C0
00C0
00C0
18C0
18C0
18C0
1800
1800
FFC0
FFC0
3800
3800
3800
3800
3800
3800
3800
3800
3800
3800
3800
1C00
1C00
1F40
0FE0
07C0
ENDCHAR
STARTCHAR 0166
ENCODING 358
SWIDTH 526 0
DWIDTH 19 0
BBX 17 24 1 0
BITMAP
FFFF80
FFFF80
FFFF80
01C000
01C000
01C000
01C000
01C000
01C000
01C000
01C000
1FFE00
1FFE00
01C000
01C000
01C000
01C000
01C000
01C000
01C000
01C000
01C000
01C000
01C000
ENDCHAR
STARTCHAR 0167
ENCODING 359
SWIDTH 332 0
DWIDTH 12 0
BBX 11 23 1 0
BITMAP
1800
1800
1800
1800
1800
FFC0
FFC0
3800
3800
3800
3800
3800
FFC0
FFC0
3800
3800
3800
3C00
1C00
1C00
1F40
0FE0
07C0
ENDCHAR
STARTCHAR 0168
ENCODING 360
SWIDTH 636 0
DWIDTH 23 0
BBX 17 31 3 0
BITMAP
0F0600
1F8600
19CE00
38FC00
303800
000000
000000
E00380
E00380
E00380
E00380
E00380
E00380
E00380
E00380
E00380
E00380
E00380
E00380
E00380
E00380
E00380
E00380
E00380
F00380
700780
780700
3C0F00
3FFE00
1FFC00
07F000
ENDCHAR
STARTCHAR 0169
ENCODING 361
SWIDTH 553 0
DWIDTH 20 0
BBX 14 26 3 0
BITMAP
3C18
7E18
67B8
61F0
60E0
0000
0000
0000
E01C
E01C
E01C
E01C
E01C
E01C
E01C
E01C
E01C
E01C
E01C
E01C
E01C
E03C
F07C
7FDC
7F9C
1F1C
ENDCHAR
STARTCHAR 016A
ENCODING 362
SWIDTH 636 0
DWIDTH 23 0
BBX 17 29 3 0
BITMAP
0FF800
0FF800
000000
000000
000000
E00380
E00380
E00380
E00380
E00380
E00380
E00380
E00380
E00380
E00380
E00380
E00380
E00380
E00380
E00380
E00380
E00380
F00380
700780
780700
3C0F00
3FFE00
1FFC00
07F000
ENDCHAR
STARTCHAR 016B
ENCODING 363
SWIDTH 553 0
DWIDTH 20 0
BBX 14 24 3 0
BITMAP
3FF0
3FF0
0000
0000
0000
0000
E01C
E01C
E01C
E01C
E01C
E01C
E01C
E01C
E01C
E01C
E01C
E01C
E01C
E03C
F07C
7FDC
7F9C
1F1C
ENDCHAR
STARTCHAR 016C
ENCODING 364
SWIDTH 636 0
DWIDTH 23 0
BBX 17 31 3 0
BITMAP
180C00
0C0C00
0E1800
07F800
03E000
000000
000000
E00380
E00380
E00380
E00380
E00380
E00380
E00380
E00380
E00380
E00380
E00380
E00380
E00380
E00380
E00380
E00380
E00380
F00380
700780
780700
3C0F00
3FFE00
1FFC00
07F000
ENDCHAR
STARTCHAR 016D
ENCODING 365
SWIDTH 553 0
DWIDTH 20 0
BBX 14 26 3 0
BITMAP
6030
3030
3870
1FE0
0F80
0000
0000
0000
E01C
E01C
E01C
E01C
E01C
E01C
E01C
E01C
E01C
E01C
E01C
E01C
E01C
E03C
F07C
7FDC
7F9C
1F1C
ENDCHAR
STARTCHAR 016E
ENCODING 366
SWIDTH 636 0
DWIDTH 23 0
BBX 17 32 3 0
BITMAP
01E000
037000
063000
063000
063000
03E000
000000
000000
E00380
E00380
E00380
E00380
E00380
E00380
E00380
E00380
E00380
E00380
E00380
E00380
E00380
E00380
E00380
E00380
E00380
F00380
700780
780700
3C0F00
3FFE00
1FFC00
07F000
ENDCHAR
STARTCHAR 016F
ENCODING 367
SWIDTH 553 0
DWIDTH 20 0
BBX 14 27 3 0
BITMAP
0FC0
18C0
1860
1860
18C0
0FC0
0000
0000
0000
E01C
E01C
E01C
E01C
E01C
E01C
E01C
E01C
E01C
E01C
E01C
E01C
E01C
E03C
F07C
7FDC
7F9C
1F1C
ENDCHAR
STARTCHAR 0170
ENCODING 368
SWIDTH 636 0
DWIDTH 23 0
BBX 17 32 3 0
BITMAP
008200
01C700
018600
038C00
031C00
061800
000000
000000
E00380
E00380
E00380
E00380
E00380
E00380
E00380
E00380
E00380
E00380
E00380
E00380
E00380
E00380
E00380
E00380
E00380
F00380
700780
780700
3C0F00
3FFE00
1FFC00
07F000
ENDCHAR
STARTCHAR 0171
ENCODING 369
SWIDTH 553 0
DWIDTH 20 0
BBX 14 28 3 0
BITMAP
0208
031C
0718
0638
0E30
0C60
0860
0000
0000
0000
E01C
E01C
E01C
E01C
E01C
E01C
E01C
E01C
E01C
E01C
E01C
E01C
E01C
E03C
F07C
7FDC
7F9C
1F1C
ENDCHAR
STARTCHAR 0172
ENCODING 370
SWIDTH 636 0
DWIDTH 23 0
BBX 17 32 3 -8
BITMAP
E00380
E00380
E00380
E00380
E00380
E00380
E00380
E00380
E00380
E00380
E00380
E00380
E00380
E00380
E00380
E00380
E00380
F00380
700780
780700
3C0F00
3FFE00
1FFC00
07F000
00C000
018000
018000
038000
038000
039000
01F000
00F000
ENDCHAR
STARTCHAR 0173
ENCODING 371
SWIDTH 553 0
DWIDTH 20 0
BBX 14 26 3 -8
BITMAP
E01C
E01C
E01C
E01C
E01C
E01C
E01C
E01C
E01C
E01C
E01C
E01C
E01C
E03C
F07C
7FDC
7F9C
1F1C
0038
0070
0060
00E0
00E0
00E0
007C
003C
ENDCHAR
STARTCHAR 0174
ENCODING 372
SWIDTH 775 0
DWIDTH 28 0
BBX 26 31 1 0
BITMAP
001E0000
001F0000
003B8000
0061C000
00C0E000
00000000
00000000
E00E00C0
E01E01C0
E01E01C0
701F01C0
701F01C0
703B0180
703B0380
70338380
38338380
38738380
38718300
3861C700
3861C700
1C61C700
1CE0C700
1CC0E600
1CC0E600
1CC0EE00
0DC06E00
0FC06E00
0F807C00
0F807C00
07803C00
07803C00
ENDCHAR
STARTCHAR 0175
ENCODING 373
SWIDTH 720 0
DWIDTH 26 0
BBX 24 27 1 0
BITMAP
003C00
007E00
00E700
00C300
018180
010080
000000
000000
000000
E03C07
E03C07
703C06
703C0E
707E0E
70660E
38660C
38661C
38E71C
38C31C
1CC318
1CC398
1DC3B8
0D81B8
0D81B0
0F81F0
0F81F0
0700E0
ENDCHAR
STARTCHAR 0176
ENCODING 374
SWIDTH 470 0
DWIDTH 17 0
BBX 17 31 0 0
BITMAP
01C000
03E000
077000
0E3800
1C0C00
000000
000000
E00380
700700
700700
380700
380E00
1C0E00
1C1C00
0E1C00
0E3800
063800
077000
077000
03E000
03E000
01C000
01C000
01C000
01C000
01C000
01C000
01C000
01C000
01C000
01C000
ENDCHAR
STARTCHAR 0177
ENCODING 375
SWIDTH 470 0
DWIDTH 17 0
BBX 15 35 1 -8
BITMAP
03C0
07E0
0EE0
1C70
3838
1018
0000
0000
0000
E00E
E00E
E00E
701C
701C
301C
3818
3838
1C38
1C30
1C70
0E70
0E60
06E0
07E0
07C0
03C0
03C0
0380
0380
0380
0700
0700
7E00
FC00
F800
ENDCHAR
STARTCHAR 0178
ENCODING 376
SWIDTH 470 0
DWIDTH 17 0
BBX 17 29 0 1
BITMAP
1E1C00
1E1C00
0C1C00
000000
000000
E00380
700700
700700
380700
380E00
1C0E00
1C1C00
0E1C00
0E3800
063800
077000
077000
03E000
03E000
01C000
01C000
01C000
01C000
01C000
01C000
01C000
01C000
01C000
01C000
ENDCHAR
STARTCHAR 0179
ENCODING 377
SWIDTH 526 0
DWIDTH 19 0
BBX 16 31 2 1
BITMAP
0030
0078
00F0
01C0
0180
0100
0000
7FFF
7FFF
7FFE
001E
001C
0038
0038
0070
00F0
00E0
01C0
03C0
0380
0700
0F00
0E00
1C00
1C00
3800
7800
7000
FFFF
FFFF
FFFF
ENDCHAR
STARTCHAR 017A
ENCODING 378
SWIDTH 415 0
DWIDTH 15 0
BBX 13 28 1 1
BITMAP
0070
0070
00E0
01C0
0380
0700
0200
0000
0000
0000
7FF8
7FF8
0078
0070
00E0
01E0
01C0
0380
0780
0700
0E00
1E00
1C00
3800
7800
7000
FFF8
FFF8
ENDCHAR
STARTCHAR 017B
ENCODING 379
SWIDTH 526 0
DWIDTH 19 0
BBX 16 30 2 0
BITMAP
01C0
03C0
03C0
0180
0000
0000
7FFF
7FFF
7FFE
001E
001C
0038
0038
0070
00F0
00E0
01C0
03C0
0380
0700
0F00
0E00
1C00
1C00
3800
7800
7000
FFFF
FFFF
FFFF
ENDCHAR
STARTCHAR 017C
ENCODING 380
SWIDTH 415 0
DWIDTH 15 0
BBX 13 26 1 0
BITMAP
0300
0780
0780
0380
0000
0000
0000
0000
7FF8
7FF8
0078
0070
00E0
01E0
01C0
0380
0780
0700
0E00
1E00
1C00
3800
7800
7000
FFF8
FFF8
ENDCHAR
STARTCHAR 017D
ENCODING 381
SWIDTH 526 0
DWIDTH 19 0
BBX 16 31 2 0
BITMAP
1808
1C38
0E70
07E0
03C0
0000
0000
7FFF
7FFF
7FFE
001E
001C
0038
0038
0070
00F0
00E0
01C0
03C0
0380
0700
0F00
0E00
1C00
1C00
3800
7800
7000
FFFF
FFFF
FFFF
ENDCHAR
STARTCHAR 017E
ENCODING 382
SWIDTH 415 0
DWIDTH 15 0
BBX 13 27 1 0
BITMAP
3010
3830
1C70
0EE0
07C0
0780
0000
0000
0000
7FF8
7FF8
0078
0070
00E0
01E0
01C0
0380
0780
0700
0E00
1E00
1C00
3800
7800
7000
FFF8
FFF8
ENDCHAR
STARTCHAR 0180
ENCODING 384
SWIDTH 553 0
DWIDTH 20 0
BBX 18 26 0 0
BITMAP
1C0000
1C0000
1C0000
FFF000
FFF000
1C0000
1C0000
1C0000
1C0000
1C7C00
1DFF00
1FFF80
1F0380
1C03C0
1C01C0
1C01C0
1C01C0
1C01C0
1C01C0
1C01C0
1C01C0
1C0380
1E0780
1FFF00
1DFE00
18F800
ENDCHAR
STARTCHAR 018F
ENCODING 399
SWIDTH 664 0
DWIDTH 24 0
BBX 20 24 2 0
BITMAP
01F800
0FFF00
1FFF80
1C03C0
0001C0
0000E0
0000E0
0000E0
000070
000070
000070
FFFFF0
FFFFF0
E00070
E00070
E00070
7000E0
7000E0
7801E0
3801C0
3C0780
1FFF00
07FE00
01F800
ENDCHAR
STARTCHAR 0192
ENCODING 402
SWIDTH 498 0
DWIDTH 18 0
BBX 16 27 1 -3
BITMAP
003E
007F
00FE
00E0
01C0
01C0
01C0
01C0
0180
1FFC
1FFC
0380
0380
0380
0380
0380
0380
0300
0300
0700
0700
0700
0700
0F00
0E00
FC00
F800
ENDCHAR
STARTCHAR 0193
ENCODING 403
SWIDTH 609 0
DWIDTH 22 0
BBX 20 29 2 0
BITMAP
0000F0
0001F0
0003D0
000380
000300
01FF80
07FF80
0FFF80
1E0180
3C0000
780000
700000
700000
E00000
E00000
E00000
E00000
E03FC0
E03FC0
E001C0
E001C0
7001C0
7001C0
7801C0
3C01C0
1E03C0
0FFFC0
07FF00
01FC00
ENDCHAR
STARTCHAR 01A0
ENCODING 416
SWIDTH 664 0
DWIDTH 24 0
BBX 20 29 2 0
BITMAP
000010
000070
000030
000030
000070
01F870
07FFE0
0FFF80
1E07C0
3C01C0
7801E0
7000E0
7000F0
E00070
E00070
E00070
E00070
E00070
E00070
E00070
F00070
7000F0
7000E0
7801E0
3C01C0
1E07C0
0FFF80
07FE00
01F800
ENDCHAR
STARTCHAR 01A1
ENCODING 417
SWIDTH 553 0
DWIDTH 20 0
BBX 17 23 2 1
BITMAP
000380
000380
000380
000380
000300
07EF00
1FFC00
3FFC00
781C00
700E00
E00E00
E00F00
E00700
E00700
E00700
E00700
E00700
E00E00
700E00
781C00
3FFC00
1FF000
07C000
ENDCHAR
STARTCHAR 01AF
ENCODING 431
SWIDTH 664 0
DWIDTH 24 0
BBX 21 30 3 0
BITMAP
000018
000038
000018
000018
000038
000070
E003E0
E00380
E00380
E00380
E00380
E00380
E00380
E00380
E00380
E00380
E00380
E00380
E00380
E00380
E00380
E00380
E00380
F00380
700780
780700
3C0F00
3FFE00
1FFC00
07F000
ENDCHAR
STARTCHAR 01B0
ENCODING 432
SWIDTH 553 0
DWIDTH 20 0
BBX 17 24 3 1
BITMAP
000380
000380
000380
000380
000380
000700
E01E00
E01C00
E01C00
E01C00
E01C00
E01C00
E01C00
E01C00
E01C00
E01C00
E01C00
E01C00
E01C00
E03C00
F07C00
7FDC00
7F9C00
1F1C00
ENDCHAR
STARTCHAR 01C2
ENCODING 450
SWIDTH 276 0
DWIDTH 10 0
BBX 10 36 0 -9
BITMAP
0C00
0C00
0C00
0C00
0C00
0C00
0C00
0C00
0C00
0C00
0C00
0C00
0C00
FFC0
FFC0
0C00
0C00
0C00
0C00
FFC0
FFC0
0C00
0C00
0C00
0C00
0C00
0C00
0C00
0C00
0C00
0C00
0C00
0C00
0C00
0C00
0C00
ENDCHAR
STARTCHAR 01CD
ENCODING 461
SWIDTH 553 0
DWIDTH 20 0
BBX 19 31 0 0
BITMAP
040600
070E00
039C00
01F800
00F000
000000
000000
00F000
00F000
01F000
01B800
01B800
039800
039C00
031C00
070C00
070E00
060E00
0E0600
0E0700
0C0700
1FFF00
1FFF80
180380
380380
3801C0
3801C0
7001C0
7000E0
7000E0
E000E0
ENDCHAR
STARTCHAR 01CE
ENCODING 462
SWIDTH 498 0
DWIDTH 18 0
BBX 14 27 2 0
BITMAP
3018
3838
1C70
0EE0
07C0
0780
0000
0000
0000
0FC0
3FF0
7FF8
6038
0038
001C
001C
01FC
0FFC
3C1C
701C
E01C
E01C
E03C
E07C
F9FC
7F9C
1E1C
ENDCHAR
STARTCHAR 01CF
ENCODING 463
SWIDTH 276 0
DWIDTH 10 0
BBX 10 31 0 0
BITMAP
8080
E1C0
7380
3F00
1E00
0000
0000
1C00
1C00
1C00
1C00
1C00
1C00
1C00
1C00
1C00
1C00
1C00
1C00
1C00
1C00
1C00
1C00
1C00
1C00
1C00
1C00
1C00
1C00
1C00
1C00
ENDCHAR
STARTCHAR 01D0
ENCODING 464
SWIDTH 249 0
DWIDTH 9 0
BBX 11 27 -1 0
BITMAP
C040
E0E0
71C0
3B80
1F00
0E00
0000
0000
0000
0E00
0E00
0E00
0E00
0E00
0E00
0E00
0E00
0E00
0E00
0E00
0E00
0E00
0E00
0E00
0E00
0E00
0E00
ENDCHAR
STARTCHAR 01D1
ENCODING 465
SWIDTH 664 0
DWIDTH 24 0
BBX 20 30 2 0
BITMAP
060600
070E00
039C00
01F800
00F000
000000
01F800
07FE00
1FFF80
3E07C0
3803C0
7801E0
7000E0
F000F0
E00070
E00070
E00070
E00070
E00070
E00070
E00070
E00070
7000F0
7000E0
7801E0
3C01C0
1E0780
1FFF80
07FE00
01F800
ENDCHAR
STARTCHAR 01D2
ENCODING 466
SWIDTH 553 0
DWIDTH 20 0
BBX 16 27 2 0
BITMAP
1018
1838
1C70
0EE0
07E0
03C0
0000
0000
0000
07E0
1FF0
3FFC
781C
700E
E00E
E00F
E007
E007
E007
E007
E007
E00E
700E
781C
3FFC
1FF0
07C0
ENDCHAR
STARTCHAR 01D3
ENCODING 467
SWIDTH 636 0
DWIDTH 23 0
BBX 17 31 3 0
BITMAP
080800
0C1C00
073800
03F000
01E000
000000
000000
E00380
E00380
E00380
E00380
E00380
E00380
E00380
E00380
E00380
E00380
E00380
E00380
E00380
E00380
E00380
E00380
E00380
F00380
700780
780700
3C0F00
3FFE00
1FFC00
07F000
ENDCHAR
STARTCHAR 01D4
ENCODING 468
SWIDTH 553 0
DWIDTH 20 0
BBX 14 27 3 0
BITMAP
2030
3070
38E0
1DC0
0FC0
0780
0000
0000
0000
E01C
E01C
E01C
E01C
E01C
E01C
E01C
E01C
E01C
E01C
E01C
E01C
E01C
E03C
F07C
7FDC
7F9C
1F1C
ENDCHAR
STARTCHAR 01D5
ENCODING 469
SWIDTH 636 0
DWIDTH 23 0
BBX 17 33 3 0
BITMAP
0FF800
0FF800
000000
000000
0C1C00
1E1C00
0C1C00
000000
000000
E00380
E00380
E00380
E00380
E00380
E00380
E00380
E00380
E00380
E00380
E00380
E00380
E00380
E00380
E00380
E00380
E00380
F00380
700780
780700
3C0F00
3FFE00
1FFC00
07F000
ENDCHAR
STARTCHAR 01D6
ENCODING 470
SWIDTH 553 0
DWIDTH 20 0
BBX 14 29 3 0
BITMAP
3FF0
3FF0
0000
0000
3870
3870
3870
0000
0000
0000
0000
E01C
E01C
E01C
E01C
E01C
E01C
E01C
E01C
E01C
E01C
E01C
E01C
E01C
E03C
F07C
7FDC
7F9C
1F1C
ENDCHAR
STARTCHAR 01D7
ENCODING 471
SWIDTH 636 0
DWIDTH 23 0
BBX 17 35 3 0
BITMAP
003000
007000
006000
00C000
008000
000000
0C1C00
1E1C00
0C1C00
000000
000000
E00380
E00380
E00380
E00380
E00380
E00380
E00380
E00380
E00380
E00380
E00380
E00380
E00380
E00380
E00380
E00380
E00380
F00380
700780
780700
3C0F00
3FFE00
1FFC00
07F000
ENDCHAR
STARTCHAR 01D8
ENCODING 472
SWIDTH 553 0
DWIDTH 20 0
BBX 14 31 3 0
BITMAP
0080
01C0
0180
0300
0200
0000
3870
3870
3870
0000
0000
0000
0000
E01C
E01C
E01C
E01C
E01C
E01C
E01C
E01C
E01C
E01C
E01C
E01C
E01C
E03C
F07C
7FDC
7F9C
1F1C
ENDCHAR
STARTCHAR 01D9
ENCODING 473
SWIDTH 636 0
DWIDTH 23 0
BBX 17 35 3 0
BITMAP
000800
0E1800
077000
03E000
01C000
000000
0C1C00
1E1C00
0C1C00
000000
000000
E00380
E00380
E00380
E00380
E00380
E00380
E00380
E00380
E00380
E00380
E00380
E00380
E00380
E00380
E00380
E00380
E00380
F00380
700780
780700
3C0F00
3FFE00
1FFC00
07F000
ENDCHAR
STARTCHAR 01DA
ENCODING 474
SWIDTH 553 0
DWIDTH 20 0
BBX 14 30 3 1
BITMAP
3860
1CC0
0F80
0700
0000
3870
3870
3870
0000
0000
0000
0000
E01C
E01C
E01C
E01C
E01C
E01C
E01C
E01C
E01C
E01C
E01C
E01C
E01C
E03C
F07C
7FDC
7F9C
1F1C
ENDCHAR
STARTCHAR 01DB
ENCODING 475
SWIDTH 636 0
DWIDTH 23 0
BBX 17 35 3 0
BITMAP
020000
070000
038000
01C000
00C000
000000
0C1C00
1E1C00
0C1C00
000000
000000
E00380
E00380
E00380
E00380
E00380
E00380
E00380
E00380
E00380
E00380
E00380
E00380
E00380
E00380
E00380
E00380
E00380
F00380
700780
780700
3C0F00
3FFE00
1FFC00
07F000
ENDCHAR
STARTCHAR 01DC
ENCODING 476
SWIDTH 553 0
DWIDTH 20 0
BBX 14 31 3 0
BITMAP
0400
0C00
0600
0300
0100
0000
3870
3870
3870
0000
0000
0000
0000
E01C
E01C
E01C
E01C
E01C
E01C
E01C
E01C
E01C
E01C
E01C
E01C
E01C
E03C
F07C
7FDC
7F9C
1F1C
ENDCHAR
STARTCHAR 01E2
ENCODING 482
SWIDTH 830 0
DWIDTH 30 0
BBX 27 29 1 0
BITMAP
0001FF00
0001FF00
00000000
00000000
00000000
001FFFE0
001FFFE0
003FFFE0
003F8000
00778000
00778000
00E78000
00E78000
01C78000
01C78000
0387FF80
0387FF80
0707FF80
07078000
0E078000
0FFF8000
1FFF8000
1C078000
38078000
38078000
70078000
7007FFE0
E007FFE0
E007FFE0
ENDCHAR
STARTCHAR 01E3
ENCODING 483
SWIDTH 775 0
DWIDTH 28 0
BBX 25 24 2 0
BITMAP
00FFC000
00FFC000
00000000
00000000
00000000
00000000
07C0F800
3FE3FE00
7FF7DE00
20360700
003E0300
001C0380
001C0380
01FC0380
0FFFFF80
3E1FFF80
781C0000
F01C0000
E01C0000
E01E0000
E03F0000
79F7CF00
7FC3FF00
1F00FC00
ENDCHAR
STARTCHAR 01E6
ENCODING 486
SWIDTH 609 0
DWIDTH 22 0
BBX 18 30 2 0
BITMAP
030300
038600
01DC00
00F800
007800
000000
01FC00
07FF00
0FFF80
1E0380
3C0000
780000
700000
700000
E00000
E00000
E00000
E00000
E03FC0
E03FC0
E001C0
E001C0
7001C0
7001C0
7801C0
3C01C0
1E03C0
0FFFC0
07FF00
01FC00
ENDCHAR
STARTCHAR 01E7
ENCODING 487
SWIDTH 498 0
DWIDTH 18 0
BBX 16 35 2 -8
BITMAP
1018
3838
1C70
0EE0
07C0
03C0
0000
0000
0000
0FFE
3FFE
78F0
7038
6038
E018
E018
E038
7038
7870
3FE0
37C0
6000
6000
6000
7C00
3FFC
3FFE
600F
E007
C007
C006
E00E
F03C
7FF8
1FE0
ENDCHAR
STARTCHAR 01EA
ENCODING 490
SWIDTH 664 0
DWIDTH 24 0
BBX 20 32 2 -8
BITMAP
01F800
07FE00
1FFF80
3E07C0
3803C0
7801E0
7000E0
F000F0
E00070
E00070
E00070
E00070
E00070
E00070
E00070
E00070
F000F0
7000E0
7801E0
3C01C0
3E0780
1FFF00
07FE00
01F800
007000
006000
00C000
00C000
00C000
00E000
00FC00
007800
ENDCHAR
STARTCHAR 01EB
ENCODING 491
SWIDTH 553 0
DWIDTH 20 0
BBX 16 26 2 -8
BITMAP
07E0
1FF0
3FFC
781C
700E
E00E
E00F
E007
E007
E007
E007
E007
E00E
700E
781C
3EFC
1FF0
07E0
0180
0300
0300
0300
0700
0700
03E0
01E0
ENDCHAR
STARTCHAR 01F4
ENCODING 500
SWIDTH 609 0
DWIDTH 22 0
BBX 18 31 2 0
BITMAP
000600
000E00
001E00
003800
007000
002000
000000
01FC00
07FF00
0FFF80
1E0380
3C0000
780000
700000
700000
E00000
E00000
E00000
E00000
E03FC0
E03FC0
E001C0
E001C0
7001C0
7001C0
7801C0
3C01C0
1E03C0
0FFFC0
07FF00
01FC00
ENDCHAR
STARTCHAR 01F5
ENCODING 501
SWIDTH 498 0
DWIDTH 18 0
BBX 16 36 2 -7
BITMAP
0030
0078
00F0
01E0
03C0
0380
0100
0000
0000
0000
0FFE
3FFE
78F0
7038
6038
E018
E018
E038
7038
7870
3FE0
37C0
6000
6000
6000
7C00
3FFC
3FFE
600F
E007
C007
C006
E00E
F03C
7FF8
1FE0
ENDCHAR
STARTCHAR 01F8
ENCODING 504
SWIDTH 636 0
DWIDTH 23 0
BBX 17 31 3 1
BITMAP
060000
0F0000
078000
01C000
00C000
000000
000000
F00380
F00380
F80380
F80380
FC0380
EC0380
EE0380
E70380
E70380
E38380
E38380
E1C380
E1C380
E0E380
E07380
E07380
E03B80
E03B80
E01D80
E01D80
E00F80
E00780
E00780
E00380
ENDCHAR
STARTCHAR 01F9
ENCODING 505
SWIDTH 553 0
DWIDTH 20 0
BBX 14 29 3 0
BITMAP
0800
1800
3C00
1E00
0700
0380
0180
0000
0000
0000
0000
C3E0
E7F8
FFF8
F83C
F01C
E01C
E01C
E01C
E01C
E01C
E01C
E01C
E01C
E01C
E01C
E01C
E01C
E01C
ENDCHAR
STARTCHAR 01FC
ENCODING 508
SWIDTH 830 0
DWIDTH 30 0
BBX 27 32 1 0
BITMAP
00000200
00000700
00000F00
00001C00
00003800
00003000
00000000
00000000
001FFFE0
001FFFE0
003FFFE0
003F8000
00778000
00778000
00E78000
00E78000
01C78000
01C78000
0387FF80
0387FF80
0707FF80
07078000
0E078000
0FFF8000
1FFF8000
1C078000
38078000
38078000
70078000
7007FFE0
E007FFE0
E007FFE0
ENDCHAR
STARTCHAR 01FD
ENCODING 509
SWIDTH 775 0
DWIDTH 28 0
BBX 25 28 2 0
BITMAP
00018000
0001C000
00038000
00070000
000E0000
001C0000
00080000
00000000
00000000
00000000
07C0F800
3FE3FE00
7FF7DE00
20360700
003E0300
001C0380
001C0380
01FC0380
0FFFFF80
3E1FFF80
781C0000
F01C0000
E01C0000
E01E0000
E03F0000
79F7CF00
7FC3FF00
1F00FC00
ENDCHAR
STARTCHAR 0218
ENCODING 536
SWIDTH 526 0
DWIDTH 19 0
BBX 16 32 2 -8
BITMAP
07E0
1FF8
3FFE
780E
7004
7000
7000
7000
7800
3E00
1F80
0FF0
03F8
007E
001E
000F
0007
0007
0007
E00E
F01E
7FFC
3FF8
0FE0
0000
0000
03C0
00E0
00E0
00E0
07C0
0700
ENDCHAR
STARTCHAR 0219
ENCODING 537
SWIDTH 415 0
DWIDTH 15 0
BBX 13 26 1 -8
BITMAP
0FC0
3FF0
3CF0
7020
7000
7000
7800
3E00
1FC0
07E0
00F0
0078
0038
0038
6038
F8F0
7FE0
1F80
0000
0000
0780
01C0
00C0
01C0
0F80
0E00
ENDCHAR
STARTCHAR 021A
ENCODING 538
SWIDTH 526 0
DWIDTH 19 0
BBX 17 32 1 -8
BITMAP
FFFF80
FFFF80
FFFF80
01C000
01C000
01C000
01C000
01C000
01C000
01C000
01C000
01C000
01C000
01C000
01C000
01C000
01C000
01C000
01C000
01C000
01C000
01C000
01C000
01C000
000000
000000
01C000
01E000
007000
006000
03E000
078000
ENDCHAR
STARTCHAR 021B
ENCODING 539
SWIDTH 332 0
DWIDTH 12 0
BBX 11 31 1 -8
BITMAP
1800
1800
1800
1800
1800
FFC0
FFC0
3800
3800
3800
3800
3800
3800
3800
3800
3800
3800
3800
1C00
1C00
1F40
0FE0
07C0
0000
0000
0700
0380
01C0
0180
0F80
1E00
ENDCHAR
STARTCHAR 0237
ENCODING 567
SWIDTH 249 0
DWIDTH 9 0
BBX 7 26 -1 -8
BITMAP
0E
0E
0E
0E
0E
0E
0E
0E
0E
0E
0E
0E
0E
0E
0E
0E
0E
0E
0E
0E
0E
0E
0E
BC
FC
F8
ENDCHAR
STARTCHAR 0243
ENCODING 579
SWIDTH 609 0
DWIDTH 22 0
BBX 19 24 1 0
BITMAP
1FFC00
1FFF00
1C0F80
1C03C0
1C01C0
1C01C0
1C01C0
1C01C0
1C0380
1C0700
1FFE00
1FFF00
1C07C0
1C01E0
1C00E0
1C00E0
FFE0E0
FFE0E0
1C00E0
1C00E0
1C01E0
1C0FC0
1FFF80
1FFC00
ENDCHAR
STARTCHAR 0250
ENCODING 592
SWIDTH 498 0
DWIDTH 18 0
BBX 13 18 3 0
BITMAP
C3E0
CFF0
DE78
F038
E038
E018
E038
E078
E1F0
FFC0
FE00
E000
E000
E000
F018
7EF8
3FF0
0FC0
ENDCHAR
STARTCHAR 0251
ENCODING 593
SWIDTH 553 0
DWIDTH 20 0
BBX 15 18 2 0
BITMAP
07C6
1FFE
3FFE
781E
700E
F00E
E00E
E00E
E00E
E00E
E00E
E00E
E00E
F00E
781E
3FFE
1FEE
0F86
ENDCHAR
STARTCHAR 0252
ENCODING 594
SWIDTH 553 0
DWIDTH 20 0
BBX 15 18 3 0
BITMAP
C3E0
EFF8
FFFC
F83C
E01E
E00E
E00E
E00E
E00E
E00E
E00E
E00E
E00E
E01C
F03C
FFF8
EFF0
C7C0
ENDCHAR
STARTCHAR 0253
ENCODING 595
SWIDTH 553 0
DWIDTH 20 0
BBX 15 26 3 0
BITMAP
1F80
3F80
7D00
7000
E000
E000
E000
E000
E3E0
EFF8
FFFC
F83C
E01E
E00E
E00E
E00E
E00E
E00E
E00E
E00E
E00E
E01C
F03C
FFF8
EFF0
C7C0
ENDCHAR
STARTCHAR 0254
ENCODING 596
SWIDTH 443 0
DWIDTH 16 0
BBX 14 18 1 0
BITMAP
1F80
7FE0
7BF0
40F0
0078
0038
003C
001C
001C
001C
001C
003C
0038
0078
40F0
FBF0
7FC0
1F00
ENDCHAR
STARTCHAR 0255
ENCODING 597
SWIDTH 443 0
DWIDTH 16 0
BBX 14 20 2 -2
BITMAP
07E0
1FF8
3F78
7810
7000
E000
E000
E000
E000
E000
E1F0
E7F8
EF1C
7C1C
781C
3E78
7FF0
67E0
E000
6000
ENDCHAR
STARTCHAR 0256
ENCODING 598
SWIDTH 553 0
DWIDTH 20 0
BBX 19 32 2 -6
BITMAP
000E00
000E00
000E00
000E00
000E00
000E00
000E00
000E00
07CE00
1FFE00
3FFE00
781E00
700E00
F00E00
E00E00
E00E00
E00E00
E00E00
E00E00
E00E00
E00E00
F00E00
781E00
3FFE00
1FEE00
0F8E00
000E00
000E00
000E00
0007C0
0007C0
0003E0
ENDCHAR
STARTCHAR 0257
ENCODING 599
SWIDTH 553 0
DWIDTH 20 0
BBX 19 26 2 0
BITMAP
0003E0
0007E0
000700
000E00
000E00
000E00
000E00
000E00
07CE00
1FFE00
3FFE00
781E00
700E00
F00E00
E00E00
E00E00
E00E00
E00E00
E00E00
E00E00
E00E00
F00E00
781E00
3FFE00
1FEE00
0F8600
ENDCHAR
STARTCHAR 0258
ENCODING 600
SWIDTH 498 0
DWIDTH 18 0
BBX 15 18 1 0
BITMAP
07C0
1FF0
3EF8
781C
701C
600E
E00E
E00E
FFFE
FFFE
000E
000E
000E
001C
003C
7DF8
3FF0
0FC0
ENDCHAR
STARTCHAR 0259
ENCODING 601
SWIDTH 498 0
DWIDTH 18 0
BBX 15 18 1 0
BITMAP
0FC0
3FF0
3CF8
203C
001C
000E
000E
000E
FFFE
FFFE
E00E
E00E
600E
701C
781C
3EF8
1FF0
07C0
ENDCHAR
STARTCHAR 025A
ENCODING 602
SWIDTH 636 0
DWIDTH 23 0
BBX 23 18 1 0
BITMAP
0FC000
3FF000
3CF800
203C00
001CE0
000FE0
001FE0
007E30
03FE3E
0FCE1C
3E0E00
F00E00
600E00
700E00
781C00
3E7800
1FF000
07E000
ENDCHAR
STARTCHAR 025B
ENCODING 603
SWIDTH 443 0
DWIDTH 16 0
BBX 13 18 2 0
BITMAP
0FC0
3FF0
7CF0
7000
7000
7000
7000
3C00
1FC0
3FC0
7000
E000
E000
E000
F010
7CF8
3FF0
0FC0
ENDCHAR
STARTCHAR 025C
ENCODING 604
SWIDTH 443 0
DWIDTH 16 0
BBX 13 18 2 0
BITMAP
1F80
FFC0
FBE0
40F0
0070
0070
00E0
01E0
1F80
1FE0
00F0
0070
0038
0038
8070
F3F0
FFE0
3F80
ENDCHAR
STARTCHAR 025E
ENCODING 606
SWIDTH 553 0
DWIDTH 20 0
BBX 16 18 2 0
BITMAP
0FC0
3FF8
7CFC
701E
700E
700F
7007
3807
1F87
3F87
7007
E007
E00F
E00E
F01E
7CFC
3FF8
0FC0
ENDCHAR
STARTCHAR 025F
ENCODING 607
SWIDTH 276 0
DWIDTH 10 0
BBX 10 26 -1 -8
BITMAP
0E00
0E00
0E00
0E00
0E00
0E00
0E00
0E00
7FC0
7FC0
0E00
0E00
0E00
0E00
0E00
0E00
0E00
0E00
0E00
0E00
0E00
0E00
0E00
DE00
FC00
F800
ENDCHAR
STARTCHAR 0260
ENCODING 608
SWIDTH 553 0
DWIDTH 20 0
BBX 19 31 2 -8
BITMAP
0001E0
0007E0
000780
000F00
000E00
07CE00
1FFE00
3FFE00
781E00
700E00
F00E00
E00E00
E00E00
E00E00
E00E00
E00E00
E00E00
E00E00
700E00
781E00
3EFE00
1FEE00
0F8E00
000E00
000E00
000E00
000E00
201C00
7EFC00
3FF800
0FE000
ENDCHAR
STARTCHAR 0261
ENCODING 609
SWIDTH 553 0
DWIDTH 20 0
BBX 15 26 2 -8
BITMAP
07C6
1FFE
3FFE
781E
700E
F00E
E00E
E00E
E00E
E00E
E00E
E00E
E00E
700E
781E
3EFE
1FEE
0F8E
000E
000E
000E
000E
201C
7EFC
3FF8
0FE0
ENDCHAR
STARTCHAR 0262
ENCODING 610
SWIDTH 498 0
DWIDTH 18 0
BBX 14 18 2 0
BITMAP
07E0
1FF8
3F7C
7808
7000
E000
E000
E000
E0FC
E0FC
E00C
E00C
F00C
700C
780C
3F7C
1FF8
07E0
ENDCHAR
STARTCHAR 0263
ENCODING 611
SWIDTH 470 0
DWIDTH 17 0
BBX 16 26 0 -8
BITMAP
F007
7007
7007
380E
380E
380C
1C1C
1C1C
0C18
0E38
0E38
0630
0770
0360
03E0
03E0
03E0
03E0
0770
0770
0630
0630
0630
0730
07F0
03E0
ENDCHAR
STARTCHAR 0264
ENCODING 612
SWIDTH 498 0
DWIDTH 18 0
BBX 17 18 1 0
BITMAP
F80F00
FE3F80
FF7F00
07F000
03E000
07E000
077000
0E3800
1C3800
1C1C00
381C00
380C00
380C00
381C00
3C1C00
1F7C00
0FF800
07E000
ENDCHAR
STARTCHAR 0265
ENCODING 613
SWIDTH 553 0
DWIDTH 20 0
BBX 14 25 3 -7
BITMAP
E01C
E01C
E01C
E01C
E01C
E01C
E01C
E01C
E01C
E01C
E01C
E01C
E01C
E03C
F07C
7FDC
7F9C
1F1C
001C
001C
001C
001C
001C
001C
001C
ENDCHAR
STARTCHAR 0266
ENCODING 614
SWIDTH 553 0
DWIDTH 20 0
BBX 14 26 3 0
BITMAP
1F80
3F80
7D00
7000
E000
E000
E000
E000
E3E0
E7F8
FFF8
F83C
F01C
E01C
E01C
E01C
E01C
E01C
E01C
E01C
E01C
E01C
E01C
E01C
E01C
E01C
ENDCHAR
STARTCHAR 0267
ENCODING 615
SWIDTH 553 0
DWIDTH 20 0
BBX 14 32 3 -6
BITMAP
1F80
3F80
7D00
7000
E000
E000
E000
E000
E3E0
E7F8
FFF8
F83C
F01C
E01C
E01C
E01C
E01C
E01C
E01C
E01C
E01C
E01C
E01C
E01C
E01C
E01C
001C
001C
001C
003C
01F8
01F0
ENDCHAR
STARTCHAR 0268
ENCODING 616
SWIDTH 276 0
DWIDTH 10 0
BBX 9 26 0 0
BITMAP
0C00
1E00
1E00
1C00
0000
0000
0000
0000
1C00
1C00
1C00
1C00
1C00
1C00
1C00
1C00
FF80
FF80
1C00
1C00
1C00
1C00
1C00
1C00
1C00
1C00
ENDCHAR
STARTCHAR 026A
ENCODING 618
SWIDTH 332 0
DWIDTH 12 0
BBX 9 18 2 0
BITMAP
FF80
FF80
1C00
1C00
1C00
1C00
1C00
1C00
1C00
1C00
1C00
1C00
1C00
1C00
1C00
1C00
FF80
FF80
ENDCHAR
STARTCHAR 026C
ENCODING 620
SWIDTH 304 0
DWIDTH 11 0
BBX 11 26 0 0
BITMAP
0700
0700
0700
0700
0700
0700
0700
0700
7700
FF00
CF00
C700
FFE0
3FE0
0700
0700
0700
0700
0700
0700
0700
0700
0700
0700
0780
03C0
ENDCHAR
STARTCHAR 026D
ENCODING 621
SWIDTH 249 0
DWIDTH 9 0
BBX 7 32 3 -6
BITMAP
E0
E0
E0
E0
E0
E0
E0
E0
E0
E0
E0
E0
E0
E0
E0
E0
E0
E0
E0
E0
E0
E0
E0
E0
E0
E0
E0
E0
E0
F0
7C
7E
ENDCHAR
STARTCHAR 026E
ENCODING 622
SWIDTH 581 0
DWIDTH 21 0
BBX 17 34 3 -8
BITMAP
E00000
E00000
E00000
E00000
E00000
E00000
E00000
E00000
FFFF00
FFFF00
E00700
E00E00
E01C00
E01C00
E03800
E07000
E0E000
E0E000
E1C000
E3FC00
E3FE00
E01F00
E00700
E00380
E00380
E00380
000380
000380
000380
000700
1C0F00
1FBE00
0FFC00
03F000
ENDCHAR
STARTCHAR 026F
ENCODING 623
SWIDTH 830 0
DWIDTH 30 0
BBX 24 18 3 0
BITMAP
E03807
E03807
E03807
E03807
E03807
E03807
E03807
E03807
E03807
E03807
E03807
E03807
E03C07
E03C0F
F07C1F
7FDFFF
7F8FF7
1E07C3
ENDCHAR
STARTCHAR 0270
ENCODING 624
SWIDTH 830 0
DWIDTH 30 0
BBX 24 25 3 -7
BITMAP
E03807
E03807
E03807
E03807
E03807
E03807
E03807
E03807
E03807
E03807
E03807
E03807
E03C07
E03C0F
F07C1F
7FDFFF
7F8FF7
1E07C7
000007
000007
000007
000007
000007
000007
000007
ENDCHAR
STARTCHAR 0271
ENCODING 625
SWIDTH 830 0
DWIDTH 30 0
BBX 24 24 3 -6
BITMAP
C3E078
EFF1FE
FFFBFE
F83E0F
F03C07
E03C07
E01C07
E01C07
E01C07
E01C07
E01C07
E01C07
E01C07
E01C07
E01C07
E01C07
E01C07
E01C07
000007
000007
000007
000007
00007E
00007E
ENDCHAR
STARTCHAR 0272
ENCODING 626
SWIDTH 553 0
DWIDTH 20 0
BBX 18 24 -1 -6
BITMAP
0E3E00
0E7F80
0FFF80
0F83C0
0F01C0
0E01C0
0E01C0
0E01C0
0E01C0
0E01C0
0E01C0
0E01C0
0E01C0
0E01C0
0E01C0
0E01C0
0E01C0
0E01C0
0E0000
0E0000
0E0000
1E0000
7C0000
F80000
ENDCHAR
STARTCHAR 0273
ENCODING 627
SWIDTH 553 0
DWIDTH 20 0
BBX 18 24 3 -6
BITMAP
C3E000
E7F800
FFF800
F83C00
F01C00
E01C00
E01C00
E01C00
E01C00
E01C00
E01C00
E01C00
E01C00
E01C00
E01C00
E01C00
E01C00
E01C00
001C00
001C00
001C00
001E00
000F80
0007C0
ENDCHAR
STARTCHAR 0274
ENCODING 628
SWIDTH 553 0
DWIDTH 20 0
BBX 14 18 3 0
BITMAP
E01C
F01C
F01C
F81C
F81C
FC1C
EE1C
E61C
E71C
E31C
E39C
E1DC
E0DC
E0FC
E07C
E07C
E03C
E01C
ENDCHAR
STARTCHAR 0275
ENCODING 629
SWIDTH 553 0
DWIDTH 20 0
BBX 16 18 2 0
BITMAP
07E0
1FF8
3E7C
781C
700E
E00E
E007
E007
FFFF
FFFF
E007
E007
E006
700E
781E
3E7C
1FF8
07E0
ENDCHAR
STARTCHAR 0276
ENCODING 630
SWIDTH 692 0
DWIDTH 25 0
BBX 23 18 2 0
BITMAP
07FFFC
1FFFFC
3F7C00
781C00
701C00
E01C00
E01C00
E01FF8
E01FF8
E01C00
E01C00
E01C00
F01C00
701C00
781C00
3F7C00
1FFFFE
07FFFE
ENDCHAR
STARTCHAR 0278
ENCODING 632
SWIDTH 692 0
DWIDTH 25 0
BBX 21 33 2 -7
BITMAP
007000
007000
007000
007000
007000
007000
007000
007000
03FE00
0FFF80
3E77C0
3871E0
7070F0
F07070
E07078
E07038
E07038
E07038
E07038
E07078
F07070
7070F0
7871E0
3F77C0
0FFF80
03FC00
007000
007000
007000
007000
007000
007000
007000
ENDCHAR
STARTCHAR 0279
ENCODING 633
SWIDTH 360 0
DWIDTH 13 0
BBX 10 18 0 0
BITMAP
01C0
01C0
01C0
01C0
01C0
01C0
01C0
01C0
01C0
01C0
01C0
01C0
03C0
07C0
0FC0
FDC0
F9C0
F1C0
ENDCHAR
STARTCHAR 027A
ENCODING 634
SWIDTH 360 0
DWIDTH 13 0
BBX 10 26 0 0
BITMAP
01C0
01C0
01C0
01C0
01C0
01C0
01C0
01C0
01C0
01C0
01C0
01C0
01C0
01C0
01C0
01C0
01C0
01C0
01C0
01C0
03C0
07C0
0FC0
FDC0
F9C0
F1C0
ENDCHAR
STARTCHAR 027B
ENCODING 635
SWIDTH 360 0
DWIDTH 13 0
BBX 13 24 0 -6
BITMAP
01C0
01C0
01C0
01C0
01C0
01C0
01C0
01C0
01C0
01C0
01C0
01C0
03C0
07C0
0FC0
FDC0
F9C0
F1C0
01C0
01C0
01C0
01E8
00F8
0078
ENDCHAR
STARTCHAR 027D
ENCODING 637
SWIDTH 360 0
DWIDTH 13 0
BBX 10 24 3 -6
BITMAP
C3C0
EF80
EF80
F800
F000
F000
E000
E000
E000
E000
E000
E000
E000
E000
E000
E000
E000
E000
E000
E000
E000
F000
7C00
7E00
ENDCHAR
STARTCHAR 027E
ENCODING 638
SWIDTH 332 0
DWIDTH 12 0
BBX 9 18 3 0
BITMAP
1F80
3F80
7F80
7000
E000
E000
E000
E000
E000
E000
E000
E000
E000
E000
E000
E000
E000
E000
ENDCHAR
STARTCHAR 0280
ENCODING 640
SWIDTH 498 0
DWIDTH 18 0
BBX 13 18 3 0
BITMAP
FFC0
FFE0
E1F0
E078
E038
E038
E038
E070
E0F0
FFE0
FF80
E3C0
E1C0
E0E0
E0E0
E070
E038
E038
ENDCHAR
STARTCHAR 0281
ENCODING 641
SWIDTH 498 0
DWIDTH 18 0
BBX 14 18 1 0
BITMAP
F01C
701C
381C
3C1C
1C1C
0E1C
0E1C
07FC
1FFC
3C1C
781C
701C
701C
701C
781C
3C1C
1FFC
0FFC
ENDCHAR
STARTCHAR 0282
ENCODING 642
SWIDTH 415 0
DWIDTH 15 0
BBX 13 24 1 -6
BITMAP
0FC0
3FF0
3CF0
7020
7000
7000
7800
3E00
1FC0
07E0
00F0
0078
0038
0038
4038
F8F0
FFE0
FF80
E000
E000
E000
7200
7E00
3E00
ENDCHAR
STARTCHAR 0283
ENCODING 643
SWIDTH 249 0
DWIDTH 9 0
BBX 11 34 -1 -8
BITMAP
03E0
07E0
0F00
0E00
0E00
0E00
0E00
0E00
0E00
0E00
0E00
0E00
0E00
0E00
0E00
0E00
0E00
0E00
0E00
0E00
0E00
0E00
0E00
0E00
0E00
0E00
0E00
0E00
0E00
0E00
0E00
BC00
FC00
F800
ENDCHAR
STARTCHAR 0284
ENCODING 644
SWIDTH 276 0
DWIDTH 10 0
BBX 12 34 -1 -8
BITMAP
03F0
07E0
0700
0700
0E00
0E00
0E00
0E00
0E00
0E00
0E00
0E00
0E00
0E00
0E00
0E00
7FC0
7FC0
0E00
0E00
0E00
0E00
0E00
0E00
0E00
0E00
0E00
0E00
0E00
0E00
0E00
DE00
FC00
F800
ENDCHAR
STARTCHAR 0288
ENCODING 648
SWIDTH 332 0
DWIDTH 12 0
BBX 11 29 1 -6
BITMAP
1800
1800
1800
1800
1800
FFC0
FFC0
3800
3800
3800
3800
3800
3800
3800
3800
3800
3800
3800
3800
3800
3800
3800
3800
3800
1C00
1C00
1E00
1FC0
0FE0
ENDCHAR
STARTCHAR 0289
ENCODING 649
SWIDTH 581 0
DWIDTH 21 0
BBX 20 18 0 0
BITMAP
1C0380
1C0380
1C0380
1C0380
1C0380
1C0380
FFFFF0
FFFFF0
1C0380
1C0380
1C0380
1C0380
1E0380
0E0380
0E0F80
0FFD80
07F980
03E180
ENDCHAR
STARTCHAR 028A
ENCODING 650
SWIDTH 553 0
DWIDTH 20 0
BBX 17 18 1 0
BITMAP
FE1F80
FE1F80
0C1C00
1C0E00
380600
300700
700700
700380
700380
700380
700380
700380
700700
380700
3C0F00
1F7E00
0FFC00
03F000
ENDCHAR
STARTCHAR 028B
ENCODING 651
SWIDTH 526 0
DWIDTH 19 0
BBX 14 18 3 0
BITMAP
E1E0
E1F8
E178
E03C
E01C
E01C
E01C
E01C
E01C
E01C
E01C
E01C
E03C
E038
7078
7DF0
3FE0
0F80
ENDCHAR
STARTCHAR 028C
ENCODING 652
SWIDTH 470 0
DWIDTH 17 0
BBX 16 18 0 0
BITMAP
03C0
03E0
03E0
0760
0770
0670
0E30
0E38
0C38
1C1C
1C1C
181C
380E
380E
300E
7007
7007
E007
ENDCHAR
STARTCHAR 028D
ENCODING 653
SWIDTH 720 0
DWIDTH 26 0
BBX 24 18 1 0
BITMAP
0F00E0
0F81F0
0F81F0
0D81B0
1D81B0
1DC3B8
1DC338
18C338
38C318
38E71C
38E61C
30661C
70660E
707C0E
707C0E
603C0E
E03C07
E03807
ENDCHAR
STARTCHAR 028E
ENCODING 654
SWIDTH 470 0
DWIDTH 17 0
BBX 15 26 1 0
BITMAP
001E
007E
00FE
00E0
01C0
0180
0380
0380
0300
0780
0780
07C0
0FC0
0CC0
1CE0
1CE0
1870
3870
3830
3038
7038
701C
701C
E01C
E00E
E00E
ENDCHAR
STARTCHAR 028F
ENCODING 655
SWIDTH 415 0
DWIDTH 15 0
BBX 15 18 0 0
BITMAP
E00E
F01C
701C
3838
3838
1C70
1C70
0E60
0EE0
07C0
07C0
0380
0380
0380
0380
0380
0380
0380
ENDCHAR
STARTCHAR 0290
ENCODING 656
SWIDTH 415 0
DWIDTH 15 0
BBX 17 24 1 -6
BITMAP
7FF800
7FF800
007800
007000
00E000
01E000
01C000
038000
078000
070000
0E0000
1E0000
1C0000
380000
780000
700000
FFF800
FFF800
003800
003800
003800
003C00
001F00
000F80
ENDCHAR
STARTCHAR 0291
ENCODING 657
SWIDTH 443 0
DWIDTH 16 0
BBX 16 21 1 -3
BITMAP
7FF8
7FF8
0070
0070
00E0
01C0
01C0
0380
0700
0700
0E1C
1C3E
1C63
38C3
70C3
718E
FFFE
FFF8
0300
0300
0300
ENDCHAR
STARTCHAR 0292
ENCODING 658
SWIDTH 415 0
DWIDTH 15 0
BBX 15 26 0 -8
BITMAP
3FFC
3FFC
0038
0078
0070
00E0
01C0
01C0
0380
0700
0E00
0FE0
0FF8
0878
003C
001C
000E
000E
000E
000E
001C
401C
603C
FFF8
3FF0
0FC0
ENDCHAR
STARTCHAR 0294
ENCODING 660
SWIDTH 415 0
DWIDTH 15 0
BBX 14 26 0 0
BITMAP
0FC0
3FF0
7FF8
E03C
401C
001C
001C
001C
001C
001C
003C
0078
00F0
01E0
07C0
0780
0700
0700
0700
0700
0700
0700
0700
0700
0700
0700
ENDCHAR
STARTCHAR 0295
ENCODING 661
SWIDTH 443 0
DWIDTH 16 0
BBX 14 26 1 0
BITMAP
07E0
1FF8
3FFC
781C
7008
E000
E000
E000
E000
7000
7000
7800
3C00
1F00
0F80
0380
0380
0380
0380
0380
0380
0380
0380
0380
0380
0380
ENDCHAR
STARTCHAR 0298
ENCODING 664
SWIDTH 526 0
DWIDTH 19 0
BBX 15 26 2 0
BITMAP
07C0
0FF0
1EF0
3838
383C
701C
701C
600C
E00E
E00E
E00E
E38E
E38E
E38E
E00E
E00E
E00E
E00E
600C
701C
701C
7818
3838
1EF0
1FE0
07C0
ENDCHAR
STARTCHAR 0299
ENCODING 665
SWIDTH 498 0
DWIDTH 18 0
BBX 14 18 3 0
BITMAP
FFC0
FFF0
E078
E038
E038
E038
E038
E070
FFE0
FFF0
E078
E01C
E01C
E01C
E01C
E078
FFF0
FFC0
ENDCHAR
STARTCHAR 029C
ENCODING 668
SWIDTH 553 0
DWIDTH 20 0
BBX 14 18 3 0
BITMAP
E01C
E01C
E01C
E01C
E01C
E01C
E01C
FFFC
FFFC
FFFC
E01C
E01C
E01C
E01C
E01C
E01C
E01C
E01C
ENDCHAR
STARTCHAR 029D
ENCODING 669
SWIDTH 276 0
DWIDTH 10 0
BBX 14 35 -3 -10
BITMAP
01C0
01E0
01E0
00C0
0000
0000
0000
01C0
01C0
01C0
01C0
01C0
01C0
01C0
01C0
01C0
01C0
01C0
01C0
01C0
01C0
01C0
01C0
01C0
01C0
3FC0
7FC0
E3C0
C1E0
E1E0
F7F0
7F38
3E38
001C
0018
ENDCHAR
STARTCHAR 029F
ENCODING 671
SWIDTH 415 0
DWIDTH 15 0
BBX 11 18 3 0
BITMAP
E000
E000
E000
E000
E000
E000
E000
E000
E000
E000
E000
E000
E000
E000
E000
E000
FFE0
FFE0
ENDCHAR
STARTCHAR 02A1
ENCODING 673
SWIDTH 443 0
DWIDTH 16 0
BBX 15 26 0 0
BITMAP
07E0
3FF0
7FF8
703C
201E
000E
000E
000E
000E
001C
001C
0038
0070
00E0
03C0
FFFE
FFFE
0380
0380
0380
0380
0380
0380
0380
0380
0380
ENDCHAR
STARTCHAR 02A2
ENCODING 674
SWIDTH 443 0
DWIDTH 16 0
BBX 15 26 1 0
BITMAP
07E0
1FF8
3FFC
781C
F008
E000
E000
E000
E000
7000
7000
3800
3C00
0E00
0780
FFFE
FFFE
0380
0380
0380
0380
0380
0380
0380
0380
0380
ENDCHAR
STARTCHAR 02B0
ENCODING 688
SWIDTH 360 0
DWIDTH 13 0
BBX 10 17 2 14
BITMAP
C000
C000
C000
C000
C000
CF00
FF80
E180
C1C0
C1C0
C1C0
C1C0
C1C0
C1C0
C1C0
C1C0
C1C0
ENDCHAR
STARTCHAR 02B2
ENCODING 690
SWIDTH 166 0
DWIDTH 6 0
BBX 6 22 -1 9
BITMAP
18
1C
18
00
00
18
18
18
18
18
18
18
18
18
18
18
18
18
18
18
F8
F0
ENDCHAR
STARTCHAR 02B3
ENCODING 691
SWIDTH 249 0
DWIDTH 9 0
BBX 7 12 2 14
BITMAP
CE
DC
F0
E0
C0
C0
C0
C0
C0
C0
C0
C0
ENDCHAR
STARTCHAR 02B7
ENCODING 695
SWIDTH 498 0
DWIDTH 18 0
BBX 16 12 1 14
BITMAP
C183
C383
C3C6
63C6
62C6
6646
666C
366C
346C
3C28
3C38
1C38
ENDCHAR
STARTCHAR 02B8
ENCODING 696
SWIDTH 332 0
DWIDTH 12 0
BBX 11 17 0 9
BITMAP
E060
6060
60C0
30C0
30C0
3180
1980
1980
0D00
0F00
0F00
0600
0600
0E00
0C00
7800
7000
ENDCHAR
STARTCHAR 02B9
ENCODING 697
SWIDTH 249 0
DWIDTH 9 0
BBX 4 9 3 16
BITMAP
70
60
60
E0
E0
E0
C0
C0
C0
ENDCHAR
STARTCHAR 02BB
ENCODING 699
SWIDTH 249 0
DWIDTH 9 0
BBX 5 10 2 15
BITMAP
10
38
70
60
C0
C0
F0
F0
F0
60
ENDCHAR
STARTCHAR 02BC
ENCODING 700
SWIDTH 249 0
DWIDTH 9 0
BBX 5 9 2 15
BITMAP
70
78
78
38
18
18
30
70
E0
ENDCHAR
STARTCHAR 02BE
ENCODING 702
SWIDTH 166 0
DWIDTH 6 0
BBX 4 7 1 20
BITMAP
E0
70
30
10
10
30
E0
ENDCHAR
STARTCHAR 02BF
ENCODING 703
SWIDTH 166 0
DWIDTH 6 0
BBX 4 7 1 20
BITMAP
70
E0
80
80
80
C0
70
ENDCHAR
STARTCHAR 02C1
ENCODING 705
SWIDTH 304 0
DWIDTH 11 0
BBX 9 17 1 15
BITMAP
1E00
7F80
E180
C080
C000
C000
C000
E000
7000
3C00
0C00
0C00
0C00
0C00
0C00
0C00
0C00
ENDCHAR
STARTCHAR 02C6
ENCODING 710
SWIDTH 553 0
DWIDTH 20 0
BBX 10 6 5 21
BITMAP
1E00
3E00
7700
E380
C1C0
80C0
ENDCHAR
STARTCHAR 02C7
ENCODING 711
SWIDTH 553 0
DWIDTH 20 0
BBX 10 6 5 21
BITMAP
80C0
C1C0
E380
7700
3F00
1E00
ENDCHAR
STARTCHAR 02C8
ENCODING 712
SWIDTH 110 0
DWIDTH 4 0
BBX 2 7 1 19
BITMAP
C0
C0
C0
C0
C0
C0
C0
ENDCHAR
STARTCHAR 02C9
ENCODING 713
SWIDTH 276 0
DWIDTH 10 0
BBX 10 2 0 22
BITMAP
FFC0
FFC0
ENDCHAR
STARTCHAR 02CA
ENCODING 714
SWIDTH 221 0
DWIDTH 8 0
BBX 7 8 2 20
BITMAP
04
0E
1E
3C
78
F0
E0
40
ENDCHAR
STARTCHAR 02CB
ENCODING 715
SWIDTH 221 0
DWIDTH 8 0
BBX 7 8 -1 20
BITMAP
40
E0
F0
78
3C
1E
0E
04
ENDCHAR
STARTCHAR 02CC
ENCODING 716
SWIDTH 110 0
DWIDTH 4 0
BBX 2 7 1 -10
BITMAP
C0
C0
C0
C0
C0
C0
C0
ENDCHAR
STARTCHAR 02D0
ENCODING 720
SWIDTH 249 0
DWIDTH 9 0
BBX 5 17 2 0
BITMAP
F8
F0
70
20
20
00
00
00
00
00
00
00
20
20
70
70
F8
ENDCHAR
STARTCHAR 02D1
ENCODING 721
SWIDTH 249 0
DWIDTH 9 0
BBX 5 5 2 10
BITMAP
F8
F0
70
20
20
ENDCHAR
STARTCHAR 02D8
ENCODING 728
SWIDTH 553 0
DWIDTH 20 0
BBX 11 6 4 21
BITMAP
4020
C060
6060
70E0
3FC0
1F00
ENDCHAR
STARTCHAR 02D9
ENCODING 729
SWIDTH 553 0
DWIDTH 20 0
BBX 4 4 8 21
BITMAP
60
F0
F0
60
ENDCHAR
STARTCHAR 02DA
ENCODING 730
SWIDTH 553 0
DWIDTH 20 0
BBX 8 7 6 20
BITMAP
3C
E6
C3
C3
C3
E6
3C
ENDCHAR
STARTCHAR 02DB
ENCODING 731
SWIDTH 553 0
DWIDTH 20 0
BBX 6 8 7 -8
BITMAP
18
30
60
60
E0
E0
7C
3C
ENDCHAR
STARTCHAR 02DC
ENCODING 732
SWIDTH 553 0
DWIDTH 20 0
BBX 12 5 4 21
BITMAP
7830
FC30
CE70
C7E0
C3C0
ENDCHAR
STARTCHAR 02DD
ENCODING 733
SWIDTH 553 0
DWIDTH 20 0
BBX 10 7 7 20
BITMAP
2080
31C0
7180
6300
C300
C600
8600
ENDCHAR
STARTCHAR 02DE
ENCODING 734
SWIDTH 138 0
DWIDTH 5 0
BBX 10 6 -4 8
BITMAP
1C00
7C00
FC00
C600
07C0
0380
ENDCHAR
STARTCHAR 02E0
ENCODING 736
SWIDTH 304 0
DWIDTH 11 0
BBX 11 17 0 9
BITMAP
E060
6060
60C0
30C0
3180
3180
1980
1B00
0F00
0F00
0E00
0F00
1B00
1980
1980
1F00
0F00
ENDCHAR
STARTCHAR 02E1
ENCODING 737
SWIDTH 166 0
DWIDTH 6 0
BBX 3 17 2 14
BITMAP
C0
C0
C0
C0
C0
C0
C0
C0
C0
C0
C0
C0
C0
C0
C0
E0
60
ENDCHAR
STARTCHAR 02E2
ENCODING 738
SWIDTH 276 0
DWIDTH 10 0
BBX 8 12 1 14
BITMAP
3E
7F
E0
C0
70
7C
1F
03
03
C3
FF
3E
ENDCHAR
STARTCHAR 02E3
ENCODING 739
SWIDTH 304 0
DWIDTH 11 0
BBX 11 12 0 14
BITMAP
60C0
31C0
3980
1B00
0F00
0E00
0E00
1B00
3B80
3180
60C0
E0E0
ENDCHAR
STARTCHAR 0300
ENCODING 768
SWIDTH 0 0
DWIDTH 0 0
BBX 7 8 -5 20
BITMAP
40
E0
F0
78
3C
1E
0E
04
ENDCHAR
STARTCHAR 0301
ENCODING 769
SWIDTH 0 0
DWIDTH 0 0
BBX 7 8 -2 20
BITMAP
04
0E
1E
3C
78
F0
E0
40
ENDCHAR
STARTCHAR 0302
ENCODING 770
SWIDTH 0 0
DWIDTH 0 0
BBX 10 6 -5 21
BITMAP
1E00
3F00
7F80
6380
C0C0
8040
ENDCHAR
STARTCHAR 0303
ENCODING 771
SWIDTH 0 0
DWIDTH 0 0
BBX 12 5 -6 21
BITMAP
3830
7C30
EE30
C3E0
C1E0
ENDCHAR
STARTCHAR 0304
ENCODING 772
SWIDTH 0 0
DWIDTH 0 0
BBX 10 2 -5 22
BITMAP
FFC0
FFC0
ENDCHAR
STARTCHAR 0305
ENCODING 773
SWIDTH 0 0
DWIDTH 0 0
BBX 10 2 -5 22
BITMAP
FFC0
FFC0
ENDCHAR
STARTCHAR 0306
ENCODING 774
SWIDTH 0 0
DWIDTH 0 0
BBX 12 6 -6 21
BITMAP
4020
E070
6060
70E0
3FC0
1F80
ENDCHAR
STARTCHAR 0307
ENCODING 775
SWIDTH 0 0
DWIDTH 0 0
BBX 4 4 -2 21
BITMAP
60
F0
F0
60
ENDCHAR
STARTCHAR 0308
ENCODING 776
SWIDTH 0 0
DWIDTH 0 0
BBX 10 4 -5 21
BITMAP
4080
E1C0
E1C0
E1C0
ENDCHAR
STARTCHAR 0309
ENCODING 777
SWIDTH 0 0
DWIDTH 0 0
BBX 5 7 -2 20
BITMAP
E0
F0
38
18
38
70
40
ENDCHAR
STARTCHAR 030A
ENCODING 778
SWIDTH 0 0
DWIDTH 0 0
BBX 8 7 -4 20
BITMAP
3C
66
C3
C3
C3
66
3C
ENDCHAR
STARTCHAR 030B
ENCODING 779
SWIDTH 0 0
DWIDTH 0 0
BBX 10 7 -3 20
BITMAP
3080
31C0
7180
6380
E300
C600
8200
ENDCHAR
STARTCHAR 030C
ENCODING 780
SWIDTH 0 0
DWIDTH 0 0
BBX 10 6 -5 21
BITMAP
8040
C0C0
6180
7380
3F00
1E00
ENDCHAR
STARTCHAR 030F
ENCODING 783
SWIDTH 0 0
DWIDTH 0 0
BBX 10 7 -7 20
BITMAP
4300
E300
6380
7180
31C0
38C0
1040
ENDCHAR
STARTCHAR 0311
ENCODING 785
SWIDTH 0 0
DWIDTH 0 0
BBX 11 6 -5 20
BITMAP
1F00
7F80
E1C0
C0C0
C0E0
8040
ENDCHAR
STARTCHAR 0312
ENCODING 786
SWIDTH 0 0
DWIDTH 0 0
BBX 4 6 -2 21
BITMAP
70
40
C0
E0
E0
60
ENDCHAR
STARTCHAR 0313
ENCODING 787
SWIDTH 0 0
DWIDTH 0 0
BBX 4 6 -2 20
BITMAP
60
70
70
30
20
E0
ENDCHAR
STARTCHAR 0318
ENCODING 792
SWIDTH 0 0
DWIDTH 0 0
BBX 6 7 -3 -9
BITMAP
0C
0C
0C
FC
FC
0C
0C
ENDCHAR
STARTCHAR 0319
ENCODING 793
SWIDTH 0 0
DWIDTH 0 0
BBX 6 7 -3 -9
BITMAP
C0
C0
C0
FC
FC
C0
C0
ENDCHAR
STARTCHAR 031A
ENCODING 794
SWIDTH 0 0
DWIDTH 0 0
BBX 6 5 -3 21
BITMAP
FC
FC
0C
0C
0C
ENDCHAR
STARTCHAR 031B
ENCODING 795
SWIDTH 0 0
DWIDTH 0 0
BBX 5 7 0 15
BITMAP
18
38
18
18
38
70
E0
ENDCHAR
STARTCHAR 031C
ENCODING 796
SWIDTH 0 0
DWIDTH 0 0
BBX 4 7 -2 -9
BITMAP
70
E0
C0
80
80
C0
70
ENDCHAR
STARTCHAR 031D
ENCODING 797
SWIDTH 0 0
DWIDTH 0 0
BBX 6 6 -3 -8
BITMAP
30
30
30
30
FC
FC
ENDCHAR
STARTCHAR 031E
ENCODING 798
SWIDTH 0 0
DWIDTH 0 0
BBX 6 6 -3 -9
BITMAP
FC
FC
30
30
30
30
ENDCHAR
STARTCHAR 031F
ENCODING 799
SWIDTH 0 0
DWIDTH 0 0
BBX 6 7 -3 -9
BITMAP
30
30
30
FC
FC
30
30
ENDCHAR
STARTCHAR 0320
ENCODING 800
SWIDTH 0 0
DWIDTH 0 0
BBX 6 2 -3 -7
BITMAP
FC
FC
ENDCHAR
STARTCHAR 0323
ENCODING 803
SWIDTH 0 0
DWIDTH 0 0
BBX 4 4 -2 -8
BITMAP
60
F0
F0
60
ENDCHAR
STARTCHAR 0324
ENCODING 804
SWIDTH 0 0
DWIDTH 0 0
BBX 10 4 -5 -7
BITMAP
4080
E1C0
E1C0
E1C0
ENDCHAR
STARTCHAR 0325
ENCODING 805
SWIDTH 0 0
DWIDTH 0 0
BBX 8 7 -4 -9
BITMAP
3C
66
C3
C3
C3
66
3C
ENDCHAR
STARTCHAR 0326
ENCODING 806
SWIDTH 0 0
DWIDTH 0 0
BBX 6 6 -3 -8
BITMAP
70
7C
1C
1C
F8
E0
ENDCHAR
STARTCHAR 0327
ENCODING 807
SWIDTH 0 0
DWIDTH 0 0
BBX 6 8 -3 -8
BITMAP
30
60
70
3C
1C
1C
F8
E0
ENDCHAR
STARTCHAR 0328
ENCODING 808
SWIDTH 0 0
DWIDTH 0 0
BBX 5 8 -2 -8
BITMAP
30
60
C0
C0
C0
C0
F8
78
ENDCHAR
STARTCHAR 0329
ENCODING 809
SWIDTH 0 0
DWIDTH 0 0
BBX 2 7 -1 -10
BITMAP
C0
C0
C0
C0
C0
C0
C0
ENDCHAR
STARTCHAR 032A
ENCODING 810
SWIDTH 0 0
DWIDTH 0 0
BBX 8 5 -4 -8
BITMAP
FF
FF
81
81
81
ENDCHAR
STARTCHAR 032C
ENCODING 812
SWIDTH 0 0
DWIDTH 0 0
BBX 10 6 -5 -8
BITMAP
8040
C0C0
6180
7380
3F00
1E00
ENDCHAR
STARTCHAR 032E
ENCODING 814
SWIDTH 0 0
DWIDTH 0 0
BBX 12 6 -6 -8
BITMAP
4020
E070
6060
70E0
3FC0
1F80
ENDCHAR
STARTCHAR 032F
ENCODING 815
SWIDTH 0 0
DWIDTH 0 0
BBX 11 6 -5 -9
BITMAP
1F00
7F80
E1C0
C0C0
C0E0
8040
ENDCHAR
STARTCHAR 0330
ENCODING 816
SWIDTH 0 0
DWIDTH 0 0
BBX 12 5 -6 -8
BITMAP
7830
7E30
C770
C3E0
C1C0
ENDCHAR
STARTCHAR 0331
ENCODING 817
SWIDTH 0 0
DWIDTH 0 0
BBX 10 2 -5 -6
BITMAP
FFC0
FFC0
ENDCHAR
STARTCHAR 0334
ENCODING 820
SWIDTH 0 0
DWIDTH 0 0
BBX 12 5 -6 7
BITMAP
3830
7C30
EE30
C3E0
C1E0
ENDCHAR
STARTCHAR 0339
ENCODING 825
SWIDTH 0 0
DWIDTH 0 0
BBX 4 7 -2 -9
BITMAP
E0
70
30
10
10
30
E0
ENDCHAR
STARTCHAR 033A
ENCODING 826
SWIDTH 0 0
DWIDTH 0 0
BBX 8 5 -4 -8
BITMAP
81
81
81
FF
FF
ENDCHAR
STARTCHAR 033B
ENCODING 827
SWIDTH 0 0
DWIDTH 0 0
BBX 8 5 -4 -8
BITMAP
FF
81
81
81
FF
ENDCHAR
STARTCHAR 033C
ENCODING 828
SWIDTH 0 0
DWIDTH 0 0
BBX 12 6 -6 -9
BITMAP
39C0
7FE0
C630
C630
C630
4020
ENDCHAR
STARTCHAR 033D
ENCODING 829
SWIDTH 0 0
DWIDTH 0 0
BBX 6 6 -3 20
BITMAP
48
FC
78
78
FC
48
ENDCHAR
STARTCHAR 0342
ENCODING 834
SWIDTH 0 0
DWIDTH 0 0
BBX 12 5 -6 21
BITMAP
3830
7C30
EE30
C3E0
C1E0
ENDCHAR
STARTCHAR 0345
ENCODING 837
SWIDTH 0 0
DWIDTH 0 0
BBX 4 5 -1 -7
BITMAP
C0
C0
C0
F0
70
ENDCHAR
STARTCHAR 0361
ENCODING 865
SWIDTH 0 0
DWIDTH 0 0
BBX 32 6 -16 20
BITMAP
003FFC00
03FFFFC0
0FE007F0
3C00007E
F000000F
C0000003
ENDCHAR
STARTCHAR 0374
ENCODING 884
SWIDTH 249 0
DWIDTH 9 0
BBX 4 9 3 16
BITMAP
70
60
60
E0
E0
E0
C0
C0
C0
ENDCHAR
STARTCHAR 0375
ENCODING 885
SWIDTH 249 0
DWIDTH 9 0
BBX 4 9 2 0
BITMAP
30
30
30
70
70
70
60
60
E0
ENDCHAR
STARTCHAR 037A
ENCODING 890
SWIDTH 553 0
DWIDTH 20 0
BBX 4 5 9 -7
BITMAP
C0
C0
C0
F0
70
ENDCHAR
STARTCHAR 037E
ENCODING 894
SWIDTH 249 0
DWIDTH 9 0
BBX 5 23 2 -6
BITMAP
70
F8
F8
70
20
00
00
00
00
00
00
00
00
70
78
78
78
18
18
30
70
E0
C0
ENDCHAR
STARTCHAR 0384
ENCODING 900
SWIDTH 553 0
DWIDTH 20 0
BBX 4 8 9 20
BITMAP
40
70
70
E0
E0
E0
C0
C0
ENDCHAR
STARTCHAR 0385
ENCODING 901
SWIDTH 553 0
DWIDTH 20 0
BBX 12 7 4 20
BITMAP
0300
0300
0300
6660
E670
6660
0400
ENDCHAR
STARTCHAR 0386
ENCODING 902
SWIDTH 553 0
DWIDTH 20 0
BBX 20 24 0 0
BITMAP
707000
70F800
60D800
60D800
61DC00
E1DC00
C18C00
038E00
038E00
030600
070700
070700
060300
0E0380
0FFF80
0FFF80
1C01C0
1C01C0
1C01C0
3800E0
3800E0
3800E0
700070
700070
ENDCHAR
STARTCHAR 0387
ENCODING 903
SWIDTH 249 0
DWIDTH 9 0
BBX 5 5 2 12
BITMAP
70
F8
F8
70
20
ENDCHAR
STARTCHAR 0388
ENCODING 904
SWIDTH 581 0
DWIDTH 21 0
BBX 21 24 -1 0
BITMAP
71FFF0
71FFF0
61FFF0
61C000
61C000
E1C000
C1C000
01C000
01C000
01C000
01FFE0
01FFE0
01FFE0
01C000
01C000
01C000
01C000
01C000
01C000
01C000
01C000
01FFF8
01FFF8
01FFF8
ENDCHAR
STARTCHAR 0389
ENCODING 905
SWIDTH 720 0
DWIDTH 26 0
BBX 24 24 -1 0
BITMAP
71C007
71C007
61C007
61C007
61C007
E1C007
C1C007
01C007
01C007
01C007
01FFFF
01FFFF
01FFFF
01C007
01C007
01C007
01C007
01C007
01C007
01C007
01C007
01C007
01C007
01C007
ENDCHAR
STARTCHAR 038A
ENCODING 906
SWIDTH 332 0
DWIDTH 12 0
BBX 10 24 -1 0
BITMAP
71C0
71C0
61C0
61C0
61C0
E1C0
C1C0
01C0
01C0
01C0
01C0
01C0
01C0
01C0
01C0
01C0
01C0
01C0
01C0
01C0
01C0
01C0
01C0
01C0
ENDCHAR
STARTCHAR 038C
ENCODING 908
SWIDTH 720 0
DWIDTH 26 0
BBX 25 24 -1 0
BITMAP
700FC000
707FF000
60FFF800
61E03C00
63C01E00
63800F00
C3800700
07000700
07000780
07000780
07000380
07000380
07000380
07000380
07000780
07000700
07000700
03800700
03800E00
03C01E00
01F03C00
00FFF800
007FF000
001FC000
ENDCHAR
STARTCHAR 038E
ENCODING 910
SWIDTH 609 0
DWIDTH 22 0
BBX 22 24 -1 0
BITMAP
73801C
73801C
61C038
61C038
60E038
E0E070
C07070
0070E0
0030E0
0039C0
0039C0
001F80
001F80
000F00
000F00
000700
000700
000700
000700
000700
000700
000700
000700
000700
ENDCHAR
STARTCHAR 038F
ENCODING 911
SWIDTH 720 0
DWIDTH 26 0
BBX 26 24 -1 0
BITMAP
700FC000
703FF000
60FFFC00
61F03E00
E1C01E00
E3C00F00
C3800700
07800780
07000380
07000380
07000380
07000380
07000380
07000380
07000380
07000780
03800700
03800700
01C00E00
01E00C00
00E01C00
00703800
0FF87FC0
0FF87FC0
ENDCHAR
STARTCHAR 0390
ENCODING 912
SWIDTH 249 0
DWIDTH 9 0
BBX 11 28 -1 0
BITMAP
0700
0700
0600
E6E0
E6E0
ECE0
0C00
0000
0000
0000
0E00
0E00
0E00
0E00
0E00
0E00
0E00
0E00
0E00
0E00
0E00
0E00
0E00
0E00
0E00
0F80
0F80
0780
ENDCHAR
STARTCHAR 0391
ENCODING 913
SWIDTH 553 0
DWIDTH 20 0
BBX 19 24 0 0
BITMAP
00F000
00F000
01F000
01B800
01B800
039800
039C00
031C00
070C00
070E00
060E00
0E0600
0E0700
0C0700
1FFF00
1FFF80
180380
380380
3801C0
3801C0
7001C0
7000E0
7000E0
E000E0
ENDCHAR
STARTCHAR 0392
ENCODING 914
SWIDTH 581 0
DWIDTH 21 0
BBX 17 24 3 0
BITMAP
FFE000
FFF800
E0FC00
E01E00
E00E00
E00E00
E00E00
E00E00
E00E00
E03C00
FFF800
FFFC00
E07E00
E00F00
E00700
E00380
E00380
E00380
E00380
E00700
E00F00
E07E00
FFFC00
FFF000
ENDCHAR
STARTCHAR 0393
ENCODING 915
SWIDTH 498 0
DWIDTH 18 0
BBX 14 24 3 0
BITMAP
FFFC
FFFC
FFFC
E000
E000
E000
E000
E000
E000
E000
E000
E000
E000
E000
E000
E000
E000
E000
E000
E000
E000
E000
E000
E000
ENDCHAR
STARTCHAR 0394
ENCODING 916
SWIDTH 581 0
DWIDTH 21 0
BBX 19 24 1 0
BITMAP
00F000
01F000
01F000
01B800
03B800
039800
031C00
071C00
071C00
060E00
0E0E00
0E0E00
1C0700
1C0700
1C0700
380380
380380
3803C0
7001C0
7001C0
7001E0
FFFFE0
FFFFE0
FFFFE0
ENDCHAR
STARTCHAR 0395
ENCODING 917
SWIDTH 526 0
DWIDTH 19 0
BBX 14 24 3 0
BITMAP
FFFC
FFFC
FFFC
E000
E000
E000
E000
E000
E000
E000
FFF0
FFF0
FFF0
E000
E000
E000
E000
E000
E000
E000
E000
FFFC
FFFC
FFFC
ENDCHAR
STARTCHAR 0396
ENCODING 918
SWIDTH 526 0
DWIDTH 19 0
BBX 16 24 2 0
BITMAP
7FFF
7FFF
7FFE
001E
001C
0038
0038
0070
00F0
00E0
01C0
03C0
0380
0700
0F00
0E00
1C00
1C00
3800
7800
7000
FFFF
FFFF
FFFF
ENDCHAR
STARTCHAR 0397
ENCODING 919
SWIDTH 664 0
DWIDTH 24 0
BBX 17 24 3 0
BITMAP
E00380
E00380
E00380
E00380
E00380
E00380
E00380
E00380
E00380
E00380
FFFF80
FFFF80
FFFF80
E00380
E00380
E00380
E00380
E00380
E00380
E00380
E00380
E00380
E00380
E00380
ENDCHAR
STARTCHAR 0398
ENCODING 920
SWIDTH 664 0
DWIDTH 24 0
BBX 20 24 2 0
BITMAP
01F800
07FE00
1FFF80
3E07C0
3801C0
7801E0
7000E0
F000F0
E00070
E00070
E3FC70
E3FC70
E3FC70
E00070
E00070
E00070
7000E0
7000E0
7801E0
3C01C0
1E0780
1FFF80
07FE00
01F800
ENDCHAR
STARTCHAR 0399
ENCODING 921
SWIDTH 276 0
DWIDTH 10 0
BBX 3 24 3 0
BITMAP
E0
E0
E0
E0
E0
E0
E0
E0
E0
E0
E0
E0
E0
E0
E0
E0
E0
E0
E0
E0
E0
E0
E0
E0
ENDCHAR
STARTCHAR 039A
ENCODING 922
SWIDTH 581 0
DWIDTH 21 0
BBX 17 24 3 0
BITMAP
E00700
E00E00
E01E00
E03C00
E03800
E07000
E0E000
E1E000
E3C000
E78000
E7C000
EFE000
FEE000
FCF000
F87000
F03800
E03800
E01C00
E01E00
E00E00
E00F00
E00700
E00380
E00380
ENDCHAR
STARTCHAR 039B
ENCODING 923
SWIDTH 526 0
DWIDTH 19 0
BBX 18 24 0 0
BITMAP
01E000
01E000
01F000
03F000
03B000
033800
073800
071800
071C00
061C00
0E1C00
0E0E00
0C0E00
1C0E00
1C0700
1C0700
380700
380780
380380
700380
700380
7001C0
E001C0
E001C0
ENDCHAR
STARTCHAR 039C
ENCODING 924
SWIDTH 720 0
DWIDTH 26 0
BBX 20 24 3 0
BITMAP
F000F0
F000F0
F801F0
F801F0
F801B0
FC03F0
EC0370
EE0370
EE0770
E60670
E70670
E70E70
E30C70
E38C70
E39C70
E19870
E1D870
E0F870
E0F070
E0F070
E07070
E06070
E00070
E00070
ENDCHAR
STARTCHAR 039D
ENCODING 925
SWIDTH 636 0
DWIDTH 23 0
BBX 17 24 3 0
BITMAP
F00380
F00380
F80380
F80380
FC0380
EC0380
EE0380
E70380
E70380
E38380
E38380
E1C380
E1C380
E0E380
E07380
E07380
E03B80
E03B80
E01D80
E01D80
E00F80
E00780
E00780
E00380
ENDCHAR
STARTCHAR 039E
ENCODING 926
SWIDTH 526 0
DWIDTH 19 0
BBX 15 24 2 0
BITMAP
FFFE
FFFE
FFFE
0000
0000
0000
0000
0000
0000
0000
3FF8
3FF8
3FF8
0000
0000
0000
0000
0000
0000
0000
0000
FFFE
FFFE
FFFE
ENDCHAR
STARTCHAR 039F
ENCODING 927
SWIDTH 664 0
DWIDTH 24 0
BBX 20 24 2 0
BITMAP
01F800
07FE00
1FFF80
3E07C0
3803C0
7801E0
7000E0
F000F0
E00070
E00070
E00070
E00070
E00070
E00070
E00070
E00070
7000F0
7000E0
7801E0
3C01C0
1E0780
1FFF80
07FE00
01F800
ENDCHAR
STARTCHAR 03A0
ENCODING 928
SWIDTH 636 0
DWIDTH 23 0
BBX 17 24 3 0
BITMAP
FFFF80
FFFF80
FFFF80
E00380
E00380
E00380
E00380
E00380
E00380
E00380
E00380
E00380
E00380
E00380
E00380
E00380
E00380
E00380
E00380
E00380
E00380
E00380
E00380
E00380
ENDCHAR
STARTCHAR 03A1
ENCODING 929
SWIDTH 553 0
DWIDTH 20 0
BBX 16 24 3 0
BITMAP
FFE0
FFF8
E1FE
E01E
E00F
E007
E007
E007
E007
E00F
E00E
E03E
FFFC
FFF0
E000
E000
E000
E000
E000
E000
E000
E000
E000
E000
ENDCHAR
STARTCHAR 03A3
ENCODING 931
SWIDTH 526 0
DWIDTH 19 0
BBX 16 24 2 0
BITMAP
FFFE
FFFE
FFFE
7000
3800
1C00
1E00
0E00
0700
0380
01C0
01E0
01C0
0380
0380
0700
0E00
1C00
3C00
3800
7000
FFFF
FFFF
FFFF
ENDCHAR
STARTCHAR 03A4
ENCODING 932
SWIDTH 526 0
DWIDTH 19 0
BBX 17 24 1 0
BITMAP
FFFF80
FFFF80
FFFF80
01C000
01C000
01C000
01C000
01C000
01C000
01C000
01C000
01C000
01C000
01C000
01C000
01C000
01C000
01C000
01C000
01C000
01C000
01C000
01C000
01C000
ENDCHAR
STARTCHAR 03A5
ENCODING 933
SWIDTH 470 0
DWIDTH 17 0
BBX 17 24 0 0
BITMAP
E00380
700700
700700
380700
380E00
1C0E00
1C1C00
0E1C00
0E3800
063800
077000
077000
03E000
03E000
01C000
01C000
01C000
01C000
01C000
01C000
01C000
01C000
01C000
01C000
ENDCHAR
STARTCHAR 03A6
ENCODING 934
SWIDTH 720 0
DWIDTH 26 0
BBX 22 25 2 -1
BITMAP
003000
003000
003000
01FF00
0FFFC0
1F37E0
3C30F0
703038
F0303C
E0301C
E0301C
E0301C
E0301C
E0301C
E0301C
F0301C
703038
783078
3E31F0
1FFFC0
07FF80
003000
003000
003000
003000
ENDCHAR
STARTCHAR 03A7
ENCODING 935
SWIDTH 526 0
DWIDTH 19 0
BBX 17 24 1 0
BITMAP
F00700
700700
780E00
380E00
3C1C00
1C1C00
0E3800
0E3000
077000
076000
03E000
03C000
03E000
07E000
077000
0E7000
0E3800
1C3800
1C1C00
381C00
780E00
700F00
F00700
E00780
ENDCHAR
STARTCHAR 03A8
ENCODING 936
SWIDTH 692 0
DWIDTH 25 0
BBX 21 24 2 0
BITMAP
E07038
E07038
E07038
E07038
E07038
E07038
E07038
E07038
707038
707070
787070
3C70F0
3FF7E0
0FFFC0
03FE00
007000
007000
007000
007000
007000
007000
007000
007000
007000
ENDCHAR
STARTCHAR 03A9
ENCODING 937
SWIDTH 664 0
DWIDTH 24 0
BBX 21 24 2 0
BITMAP
01FC00
07FF00
0FFF80
1E07C0
3C01E0
7800E0
7000F0
700070
F00070
E00070
E00070
E00070
E00070
E00070
F00070
700070
7000E0
7800E0
3801C0
1C01C0
1E0380
0F0700
FF0FF8
FF0FF8
ENDCHAR
STARTCHAR 03AA
ENCODING 938
SWIDTH 276 0
DWIDTH 10 0
BBX 11 30 -1 0
BITMAP
0040
F0E0
F0E0
60E0
0000
0000
0E00
0E00
0E00
0E00
0E00
0E00
0E00
0E00
0E00
0E00
0E00
0E00
0E00
0E00
0E00
0E00
0E00
0E00
0E00
0E00
0E00
0E00
0E00
0E00
ENDCHAR
STARTCHAR 03AB
ENCODING 939
SWIDTH 470 0
DWIDTH 17 0
BBX 17 29 0 1
BITMAP
1E1C00
1E1C00
0C1C00
000000
000000
E00380
700700
700700
380700
380E00
1C0E00
1C1C00
0E1C00
0E3800
063800
077000
077000
03E000
03E000
01C000
01C000
01C000
01C000
01C000
01C000
01C000
01C000
01C000
01C000
ENDCHAR
STARTCHAR 03AC
ENCODING 940
SWIDTH 553 0
DWIDTH 20 0
BBX 18 28 2 0
BITMAP
004000
00E000
00E000
00E000
00C000
01C000
01C000
018000
000000
000000
07C700
1FE700
3FF700
783F00
701F00
E00E00
E00E00
E00E00
E00E00
E00E00
E00E00
E00C00
E01C00
F01C00
703C00
7FEF80
3FCFC0
0F87C0
ENDCHAR
STARTCHAR 03AD
ENCODING 941
SWIDTH 443 0
DWIDTH 16 0
BBX 13 28 2 0
BITMAP
0180
01C0
01C0
0180
0380
0380
0300
0300
0000
0000
0FC0
3FF0
7CF8
7010
7000
7000
7000
7800
1FC0
3FC0
7000
E000
E000
E000
E018
FCF8
3FF0
0FC0
ENDCHAR
STARTCHAR 03AE
ENCODING 942
SWIDTH 553 0
DWIDTH 20 0
BBX 14 34 3 -6
BITMAP
00C0
00E0
01C0
01C0
01C0
0180
0180
0100
0000
0000
C1E0
E7F8
EFF8
F838
F01C
E01C
E01C
E01C
E01C
E01C
E01C
E01C
E01C
E01C
E01C
E01C
E01C
E01C
001C
001C
001C
001C
001C
001C
ENDCHAR
STARTCHAR 03AF
ENCODING 943
SWIDTH 249 0
DWIDTH 9 0
BBX 5 28 3 0
BITMAP
38
70
70
70
60
60
E0
00
00
00
E0
E0
E0
E0
E0
E0
E0
E0
E0
E0
E0
E0
E0
E0
E0
F8
F8
78
ENDCHAR
STARTCHAR 03B0
ENCODING 944
SWIDTH 498 0
DWIDTH 18 0
BBX 14 28 2 0
BITMAP
0180
0180
0380
3330
7370
3330
0600
0000
0000
0000
E018
E038
E01C
E01C
E01C
E01C
E01C
E01C
E01C
E01C
E01C
E01C
E01C
701C
7038
7FF0
3FE0
0FC0
ENDCHAR
STARTCHAR 03B1
ENCODING 945
SWIDTH 553 0
DWIDTH 20 0
BBX 18 18 2 0
BITMAP
07C700
1FE700
3FF700
783F00
701F00
E00E00
E00E00
E00E00
E00E00
E00E00
E00E00
E00C00
E01C00
F01C00
703C00
7FEF80
3FCFC0
0F87C0
ENDCHAR
STARTCHAR 03B2
ENCODING 946
SWIDTH 553 0
DWIDTH 20 0
BBX 16 32 3 -6
BITMAP
0FC0
1FF0
3EF8
7038
F03C
E01C
E01C
E01C
E038
E038
E070
E1E0
E3F0
E3FC
E01E
E00E
E00F
E007
E007
E007
E007
E00E
F81E
FFFC
EFF8
E3F0
E000
E000
E000
E000
E000
E000
ENDCHAR
STARTCHAR 03B3
ENCODING 947
SWIDTH 470 0
DWIDTH 17 0
BBX 16 24 1 -6
BITMAP
E007
E006
F00E
700E
380E
380E
1C1C
1C1C
1C18
0E38
0E38
0670
0770
07E0
07E0
03C0
03C0
0380
0380
0380
0380
0380
0380
0380
ENDCHAR
STARTCHAR 03B4
ENCODING 948
SWIDTH 526 0
DWIDTH 19 0
BBX 15 26 2 0
BITMAP
07F0
1FFE
3C7E
3800
3800
3800
1C00
1E00
0F80
03C0
03E0
0FF8
3C3C
381C
700E
E00E
E00E
E006
E006
E00E
E00E
700E
781C
3FFC
1FF8
07E0
ENDCHAR
STARTCHAR 03B5
ENCODING 949
SWIDTH 443 0
DWIDTH 16 0
BBX 13 18 2 0
BITMAP
0FC0
3FF0
7CF8
7010
7000
7000
7000
7800
1FC0
3FC0
7000
E000
E000
E000
E018
FCF8
3FF0
0FC0
ENDCHAR
STARTCHAR 03B6
ENCODING 950
SWIDTH 415 0
DWIDTH 15 0
BBX 13 32 2 -6
BITMAP
7FF8
7FF8
0070
00E0
01C0
0380
0700
0E00
1E00
1C00
3800
3800
7000
7000
E000
E000
E000
E000
E000
E000
E000
F000
7800
7F00
1FE0
07F0
00F8
0038
0038
0038
0070
0070
ENDCHAR
STARTCHAR 03B7
ENCODING 951
SWIDTH 553 0
DWIDTH 20 0
BBX 14 24 3 -6
BITMAP
C1E0
E7F8
EFF8
F838
F01C
E01C
E01C
E01C
E01C
E01C
E01C
E01C
E01C
E01C
E01C
E01C
E01C
E01C
001C
001C
001C
001C
001C
001C
ENDCHAR
STARTCHAR 03B8
ENCODING 952
SWIDTH 526 0
DWIDTH 19 0
BBX 15 26 2 0
BITMAP
07C0
0FE0
1EF0
3838
3838
701C
701C
701C
E00C
E00E
E00E
E00E
FFFE
FFFE
E00E
E00E
E00E
E00C
601C
701C
701C
7038
3838
1EF0
1FE0
07C0
ENDCHAR
STARTCHAR 03B9
ENCODING 953
SWIDTH 249 0
DWIDTH 9 0
BBX 5 18 3 0
BITMAP
E0
E0
E0
E0
E0
E0
E0
E0
E0
E0
E0
E0
E0
E0
E0
F8
F8
78
ENDCHAR
STARTCHAR 03BA
ENCODING 954
SWIDTH 498 0
DWIDTH 18 0
BBX 15 18 3 0
BITMAP
E00C
E03C
E07C
E0F0
E1E0
E380
E700
E700
EF00
FF80
F9C0
F1C0
F0E0
E0F0
E070
E038
E03C
E01E
ENDCHAR
STARTCHAR 03BB
ENCODING 955
SWIDTH 498 0
DWIDTH 18 0
BBX 16 26 1 0
BITMAP
FC00
FE00
FF00
0700
0380
0380
01C0
01C0
01C0
01E0
03E0
0360
0770
0770
0E30
0E38
0C38
1C1C
1C1C
381C
380E
700E
700E
7007
E007
E007
ENDCHAR
STARTCHAR 03BC
ENCODING 956
SWIDTH 553 0
DWIDTH 20 0
BBX 16 24 3 -6
BITMAP
E01C
E01C
E01C
E01C
E01C
E01C
E01C
E01C
E01C
E01C
E01C
E01C
E01C
E03C
F07C
FFDF
FFCF
EF0F
E000
E000
E000
E000
E000
E000
ENDCHAR
STARTCHAR 03BD
ENCODING 957
SWIDTH 470 0
DWIDTH 17 0
BBX 15 18 1 0
BITMAP
E00E
E00E
F00E
700E
780E
381C
381C
1C1C
1C18
0C38
0E38
0E70
0670
0760
07E0
07C0
03C0
0380
ENDCHAR
STARTCHAR 03BE
ENCODING 958
SWIDTH 443 0
DWIDTH 16 0
BBX 14 32 1 -6
BITMAP
FFFC
FFFC
0780
0E00
1C00
1C00
1C00
1C00
1C00
1E00
0F00
03F0
07F0
1F00
3C00
3800
7000
7000
7000
7000
7000
7800
3C00
3FC0
0FF8
03FC
003C
001C
000C
001C
0038
0018
ENDCHAR
STARTCHAR 03BF
ENCODING 959
SWIDTH 526 0
DWIDTH 19 0
BBX 16 18 2 0
BITMAP
07C0
1FF0
3EF8
781C
701E
E00E
E00E
E00F
E007
E007
E007
E00E
E00E
701E
781C
3EF8
1FF0
07C0
ENDCHAR
STARTCHAR 03C0
ENCODING 960
SWIDTH 581 0
DWIDTH 21 0
BBX 19 18 1 0
BITMAP
FFFFE0
FFFFE0
0E0700
0E0700
0E0700
0E0700
0E0700
0E0700
0C0700
0C0700
0C0700
1C0700
1C0600
1C0600
1C0700
1C07E0
1C07E0
1C03E0
ENDCHAR
STARTCHAR 03C1
ENCODING 961
SWIDTH 553 0
DWIDTH 20 0
BBX 15 24 3 -6
BITMAP
07C0
1FF0
3FF8
783C
701C
E00E
E00E
E00E
E00E
E00E
E00E
E00E
E01E
E01C
F03C
FFF8
EFF0
E7C0
E000
E000
E000
E000
E000
E000
ENDCHAR
STARTCHAR 03C2
ENCODING 962
SWIDTH 443 0
DWIDTH 16 0
BBX 12 24 2 -6
BITMAP
07C0
1FF0
3FF0
7820
7000
E000
E000
E000
E000
E000
E000
E000
F000
7800
7C00
3F80
0FE0
03E0
00F0
0070
0060
0060
00E0
01C0
ENDCHAR
STARTCHAR 03C3
ENCODING 963
SWIDTH 553 0
DWIDTH 20 0
BBX 17 18 2 0
BITMAP
07FF80
1FFF80
3EF000
783800
701C00
E00C00
E00E00
E00E00
E00E00
E00E00
E00E00
E00E00
E00E00
701C00
783C00
3EF800
1FF000
07C000
ENDCHAR
STARTCHAR 03C4
ENCODING 964
SWIDTH 470 0
DWIDTH 17 0
BBX 15 18 1 0
BITMAP
FFFE
FFFE
0380
0380
0380
0380
0380
0380
0380
0380
0380
0380
0380
0380
0380
03F0
03F0
01F0
ENDCHAR
STARTCHAR 03C5
ENCODING 965
SWIDTH 498 0
DWIDTH 18 0
BBX 14 18 2 0
BITMAP
E018
E038
E01C
E01C
E01C
E01C
E01C
E01C
E01C
E01C
E01C
E01C
E01C
701C
7038
7FF0
3FE0
0FC0
ENDCHAR
STARTCHAR 03C6
ENCODING 966
SWIDTH 692 0
DWIDTH 25 0
BBX 21 29 2 -6
BITMAP
007000
007000
007000
007000
007000
03FE00
0FFF80
3E77C0
3871E0
7070F0
F07070
E07078
E07038
E07038
E07038
E07038
E07078
F07070
7070F0
7871E0
3F77C0
0FFF80
03FC00
007000
007000
007000
007000
007000
007000
ENDCHAR
STARTCHAR 03C7
ENCODING 967
SWIDTH 470 0
DWIDTH 17 0
BBX 16 25 1 -7
BITMAP
E00E
E00E
F01C
701C
3838
3C38
1C70
1E70
0EE0
07E0
07C0
03C0
03C0
07C0
07E0
0EE0
0E70
1C38
1C38
381C
381C
700E
F00F
E007
E006
ENDCHAR
STARTCHAR 03C8
ENCODING 968
SWIDTH 692 0
DWIDTH 25 0
BBX 21 28 2 -6
BITMAP
007000
007000
007000
007000
E07060
E07070
E07070
E07070
E07078
E07038
E07038
E07038
E07038
E07038
E07038
607070
707070
7070F0
3871E0
3F77C0
0FFF80
03FE00
007000
007000
007000
007000
007000
007000
ENDCHAR
STARTCHAR 03C9
ENCODING 969
SWIDTH 692 0
DWIDTH 25 0
BBX 21 18 2 0
BITMAP
100060
3C00E0
380070
700070
700038
E00038
E00038
E07038
E07038
E07038
E07038
E07038
E07038
E07038
70F878
7FDFF0
3FCFE0
0F07C0
ENDCHAR
STARTCHAR 03CA
ENCODING 970
SWIDTH 249 0
DWIDTH 9 0
BBX 11 25 -1 0
BITMAP
60C0
F1E0
F1E0
60C0
0000
0000
0000
0E00
0E00
0E00
0E00
0E00
0E00
0E00
0E00
0E00
0E00
0E00
0E00
0E00
0E00
0E00
0F80
0F80
0780
ENDCHAR
STARTCHAR 03CB
ENCODING 971
SWIDTH 498 0
DWIDTH 18 0
BBX 14 25 2 0
BITMAP
3870
3870
3870
1020
0000
0000
0000
E018
E038
E01C
E01C
E01C
E01C
E01C
E01C
E01C
E01C
E01C
E01C
E01C
701C
7038
7FF0
3FE0
0FC0
ENDCHAR
STARTCHAR 03CC
ENCODING 972
SWIDTH 526 0
DWIDTH 19 0
BBX 16 28 2 0
BITMAP
00C0
00E0
00E0
01C0
01C0
0180
0180
0180
0000
0000
07C0
1FF0
3EF8
781C
701E
E00E
E00E
E00F
E007
E007
E007
E00E
E00E
701E
781C
3EF8
1FF0
07C0
ENDCHAR
STARTCHAR 03CD
ENCODING 973
SWIDTH 498 0
DWIDTH 18 0
BBX 14 28 2 0
BITMAP
0180
01C0
01C0
0380
0380
0380
0300
0300
0000
0000
E018
E038
E01C
E01C
E01C
E01C
E01C
E01C
E01C
E01C
E01C
E01C
E01C
701C
7038
7FF0
3FE0
0FC0
ENDCHAR
STARTCHAR 03CE
ENCODING 974
SWIDTH 692 0
DWIDTH 25 0
BBX 21 28 2 0
BITMAP
001800
001C00
003800
003800
003800
003000
003000
003000
000000
000000
100060
3C00E0
380070
700070
700038
E00038
E00038
E07038
E07038
E07038
E07038
E07038
E07038
E07038
70F878
7FDFF0
3FCFE0
0F07C0
ENDCHAR
STARTCHAR 03D0
ENCODING 976
SWIDTH 553 0
DWIDTH 20 0
BBX 16 26 3 0
BITMAP
0FC0
3FE0
7FF0
7038
F038
E038
E018
E038
E038
E070
E0F0
E3C0
FFE0
FFF8
E01C
E00E
E00E
E007
E007
E007
E00E
700E
781E
3FFC
1FF8
07E0
ENDCHAR
STARTCHAR 03D1
ENCODING 977
SWIDTH 526 0
DWIDTH 19 0
BBX 15 26 2 0
BITMAP
0F80
1FE0
3FF0
7078
7038
E01C
E01C
E01C
700C
700E
780E
3E0E
1FFE
03FE
000E
000E
700E
700C
701C
701C
701C
7018
3838
3EF0
1FF0
0FC0
ENDCHAR
STARTCHAR 03D5
ENCODING 981
SWIDTH 692 0
DWIDTH 25 0
BBX 21 24 2 -6
BITMAP
100F80
3C1FC0
383FE0
7030F0
707070
E07078
E07038
E07038
E07038
E07038
E07038
E07078
E07070
7070F0
7871E0
3F77C0
0FFF80
03FC00
007000
007000
007000
007000
007000
007000
ENDCHAR
STARTCHAR 03D7
ENCODING 983
SWIDTH 498 0
DWIDTH 18 0
BBX 15 25 3 -7
BITMAP
E00C
E03C
E07C
E0F0
E1E0
E380
E700
E700
EF00
FF80
FBC0
F1C0
F0E0
E0F0
E070
E078
E03C
E01E
001E
001C
0038
0078
00F0
00E0
01C0
ENDCHAR
STARTCHAR 03D9
ENCODING 985
SWIDTH 526 0
DWIDTH 19 0
BBX 16 24 2 -6
BITMAP
07C0
1FF0
3EF8
783C
701E
E00E
E00E
E00F
E007
E007
E007
E00E
E00E
700E
781C
3E7C
1FF0
07E0
0380
0380
0380
0380
0380
0380
ENDCHAR
STARTCHAR 03DB
ENCODING 987
SWIDTH 470 0
DWIDTH 17 0
BBX 14 24 2 -6
BITMAP
07FC
1FFC
3F1C
7800
7000
E000
E000
E000
E000
E000
E000
E000
F000
7800
7C00
3F80
0FE0
03F0
0078
0038
0038
0030
0070
0060
ENDCHAR
STARTCHAR 03DD
ENCODING 989
SWIDTH 415 0
DWIDTH 15 0
BBX 11 25 3 -7
BITMAP
FFE0
FFE0
E000
E000
E000
E000
E000
E000
E000
E000
E000
FFC0
FFC0
E000
E000
E000
E000
E000
E000
E000
E000
E000
E000
E000
E000
ENDCHAR
STARTCHAR 03E1
ENCODING 993
SWIDTH 498 0
DWIDTH 18 0
BBX 16 31 1 -6
BITMAP
1000
3800
3E00
1F00
0F80
03C0
01C0
01E0
00F0
0070
0038
00F8
03FC
1F9C
7E1E
F80E
E00E
000E
007F
01FF
07E7
1F87
1E07
1807
0007
0007
0007
0007
0007
0007
0007
ENDCHAR
STARTCHAR 0400
ENCODING 1024
SWIDTH 526 0
DWIDTH 19 0
BBX 14 31 3 1
BITMAP
1800
1C00
0F00
0780
0380
0000
0000
FFFC
FFFC
FFFC
E000
E000
E000
E000
E000
E000
E000
FFF0
FFF0
FFF0
E000
E000
E000
E000
E000
E000
E000
E000
FFFC
FFFC
FFFC
ENDCHAR
STARTCHAR 0401
ENCODING 1025
SWIDTH 526 0
DWIDTH 19 0
BBX 14 30 3 0
BITMAP
1000
3878
3878
3830
0000
0000
FFFC
FFFC
FFFC
E000
E000
E000
E000
E000
E000
E000
FFF0
FFF0
FFF0
E000
E000
E000
E000
E000
E000
E000
E000
FFFC
FFFC
FFFC
ENDCHAR
STARTCHAR 0402
ENCODING 1026
SWIDTH 692 0
DWIDTH 25 0
BBX 22 24 1 0
BITMAP
FFFFC0
FFFFC0
FFFFC0
038000
038000
038000
038000
038000
038000
03FF80
03FFE0
03FFF0
038078
03803C
03801C
03801C
03801C
03801C
03801C
03803C
038038
0383F8
0383F0
0387C0
ENDCHAR
STARTCHAR 0403
ENCODING 1027
SWIDTH 498 0
DWIDTH 18 0
BBX 14 31 3 1
BITMAP
0070
00F0
01E0
03C0
0300
0000
0000
FFFC
FFFC
FFFC
E000
E000
E000
E000
E000
E000
E000
E000
E000
E000
E000
E000
E000
E000
E000
E000
E000
E000
E000
E000
E000
ENDCHAR
STARTCHAR 0404
ENCODING 1028
SWIDTH 581 0
DWIDTH 21 0
BBX 17 24 2 0
BITMAP
01F800
07FE00
1FFF80
1E0300
380000
700000
700000
E00000
E00000
E00000
FFF800
FFF800
FFF800
E00000
E00000
E00000
F00000
700000
780000
380100
3E0380
1FFF80
07FE00
01F800
ENDCHAR
STARTCHAR 0405
ENCODING 1029
SWIDTH 526 0
DWIDTH 19 0
BBX 16 24 2 0
BITMAP
07E0
1FF8
3FFE
780E
7004
7000
7000
7000
7800
3E00
1F80
0FF0
03F8
007E
001E
000F
0007
0007
0007
E00E
F01E
7FFC
3FF8
0FE0
ENDCHAR
STARTCHAR 0406
ENCODING 1030
SWIDTH 276 0
DWIDTH 10 0
BBX 3 24 3 0
BITMAP
E0
E0
E0
E0
E0
E0
E0
E0
E0
E0
E0
E0
E0
E0
E0
E0
E0
E0
E0
E0
E0
E0
E0
E0
ENDCHAR
STARTCHAR 0407
ENCODING 1031
SWIDTH 276 0
DWIDTH 10 0
BBX 11 30 -1 0
BITMAP
0040
F0E0
F0E0
60E0
0000
0000
0E00
0E00
0E00
0E00
0E00
0E00
0E00
0E00
0E00
0E00
0E00
0E00
0E00
0E00
0E00
0E00
0E00
0E00
0E00
0E00
0E00
0E00
0E00
0E00
ENDCHAR
STARTCHAR 0408
ENCODING 1032
SWIDTH 470 0
DWIDTH 17 0
BBX 13 24 1 0
BITMAP
0038
0038
0038
0038
0038
0038
0038
0038
0038
0038
0038
0038
0038
0038
0038
0038
0038
0038
0038
6038
F070
7FF0
3FE0
0F80
ENDCHAR
STARTCHAR 0409
ENCODING 1033
SWIDTH 913 0
DWIDTH 33 0
BBX 31 24 0 0
BITMAP
00FFE000
00FFE000
01FFE000
01C0E000
01C0E000
01C0E000
01C0E000
0180E000
0380E000
0380E000
0380FFE0
0380FFF8
0300E07C
0700E01C
0700E00E
0700E00E
0700E00E
0700E00E
0E00E00E
0E00E01E
0E00E03C
7C00E3F8
7C00FFF0
F000FFC0
ENDCHAR
STARTCHAR 040A
ENCODING 1034
SWIDTH 941 0
DWIDTH 34 0
BBX 29 24 3 0
BITMAP
E0038000
E0038000
E0038000
E0038000
E0038000
E0038000
E0038000
E0038000
E0038000
E0038000
FFFFFF00
FFFFFFC0
FFFF87F0
E00380F0
E0038078
E0038038
E0038038
E0038038
E0038038
E0038078
E00380F0
E0038FE0
E003FFC0
E003FF00
ENDCHAR
STARTCHAR 040B
ENCODING 1035
SWIDTH 692 0
DWIDTH 25 0
BBX 22 24 1 0
BITMAP
FFFFC0
FFFFC0
FFFFC0
038000
038000
038000
038000
038000
038000
038000
03FFC0
03FFF0
0380F8
038038
038038
03801C
03801C
03801C
03801C
03801C
03801C
03801C
03801C
03801C
ENDCHAR
STARTCHAR 040C
ENCODING 1036
SWIDTH 581 0
DWIDTH 21 0
BBX 18 31 3 1
BITMAP
003800
007800
00F000
01E000
018000
000000
000000
E00380
E00780
E00F80
E01C00
E01C00
E03800
E03800
E07000
E0E000
E0E000
E1C000
FFC000
FFC000
E0E000
E0F000
E07000
E03800
E03C00
E01C00
E00E00
E00F00
E00700
E00380
E003C0
ENDCHAR
STARTCHAR 040D
ENCODING 1037
SWIDTH 664 0
DWIDTH 24 0
BBX 17 31 3 1
BITMAP
060000
0F0000
038000
01E000
00C000
000000
000000
E00380
E00780
E00780
E00F80
E00D80
E01D80
E01980
E03980
E07180
E07180
E0E380
E0E380
E1C380
E38380
E38380
E70380
E70380
EE0380
EE0380
FC0380
F80380
F80380
F00380
F00380
ENDCHAR
STARTCHAR 040E
ENCODING 1038
SWIDTH 526 0
DWIDTH 19 0
BBX 18 31 0 0
BITMAP
0C0E00
0E0E00
0E1C00
07F800
01F000
000000
000000
F001C0
7001C0
7001C0
380380
380380
1C0700
1C0700
0E0700
0E0E00
0E0E00
071C00
071C00
039C00
03B800
01B800
01F000
00F000
00E000
00E000
00E000
01C000
1FC000
1F8000
1E0000
ENDCHAR
STARTCHAR 040F
ENCODING 1039
SWIDTH 636 0
DWIDTH 23 0
BBX 17 31 3 -7
BITMAP
E00380
E00380
E00380
E00380
E00380
E00380
E00380
E00380
E00380
E00380
E00380
E00380
E00380
E00380
E00380
E00380
E00380
E00380
E00380
E00380
E00380
FFFF80
FFFF80
FFFF80
01C000
01C000
01C000
01C000
01C000
01C000
01C000
ENDCHAR
STARTCHAR 0410
ENCODING 1040
SWIDTH 553 0
DWIDTH 20 0
BBX 19 24 0 0
BITMAP
00F000
00F000
01F000
01B800
01B800
039800
039C00
031C00
070C00
070E00
060E00
0E0600
0E0700
0C0700
1FFF00
1FFF80
180380
380380
3801C0
3801C0
7001C0
7000E0
7000E0
E000E0
ENDCHAR
STARTCHAR 0411
ENCODING 1041
SWIDTH 581 0
DWIDTH 21 0
BBX 16 24 3 0
BITMAP
FFFE
FFFE
FFFE
E000
E000
E000
E000
E000
E000
E000
FFF0
FFFC
E07E
E00F
E007
E007
E007
E007
E007
E007
E00F
E07E
FFFC
FFF0
ENDCHAR
STARTCHAR 0412
ENCODING 1042
SWIDTH 581 0
DWIDTH 21 0
BBX 17 24 3 0
BITMAP
FFE000
FFF800
E0FC00
E01E00
E00E00
E00E00
E00E00
E00E00
E00E00
E03C00
FFF800
FFFC00
E07E00
E00F00
E00700
E00380
E00380
E00380
E00380
E00700
E00F00
E07E00
FFFC00
FFF000
ENDCHAR
STARTCHAR 0413
ENCODING 1043
SWIDTH 498 0
DWIDTH 18 0
BBX 14 24 3 0
BITMAP
FFFC
FFFC
FFFC
E000
E000
E000
E000
E000
E000
E000
E000
E000
E000
E000
E000
E000
E000
E000
E000
E000
E000
E000
E000
E000
ENDCHAR
STARTCHAR 0414
ENCODING 1044
SWIDTH 636 0
DWIDTH 23 0
BBX 21 31 1 -7
BITMAP
03FFC0
03FFC0
03FFC0
0381C0
0381C0
0301C0
0701C0
0701C0
0701C0
0701C0
0701C0
0601C0
0E01C0
0E01C0
0E01C0
0E01C0
0C01C0
1C01C0
1C01C0
1801C0
3801C0
FFFFF8
FFFFF8
FFFFF8
E00038
E00038
E00038
E00038
E00038
E00038
E00038
ENDCHAR
STARTCHAR 0415
ENCODING 1045
SWIDTH 526 0
DWIDTH 19 0
BBX 14 24 3 0
BITMAP
FFFC
FFFC
FFFC
E000
E000
E000
E000
E000
E000
E000
FFF0
FFF0
FFF0
E000
E000
E000
E000
E000
E000
E000
E000
FFFC
FFFC
FFFC
ENDCHAR
STARTCHAR 0416
ENCODING 1046
SWIDTH 803 0
DWIDTH 29 0
BBX 29 24 0 0
BITMAP
70070078
780700F0
7C0701F0
1E0703C0
0E070380
07070700
07070700
03870600
03870E00
03870E00
01C71C00
01FFFC00
01FFFC00
03870E00
03870E00
07070700
07070700
0E070380
1E0703C0
1C0701C0
380700E0
380700E0
70070070
F0070078
ENDCHAR
STARTCHAR 0417
ENCODING 1047
SWIDTH 553 0
DWIDTH 20 0
BBX 17 24 2 0
BITMAP
07E000
3FF800
7FFC00
701E00
000E00
000E00
000E00
000E00
000E00
003C00
07F800
07F800
007E00
000F00
000700
000700
000380
000380
000700
C00700
F00F00
7FFE00
3FFC00
0FE000
ENDCHAR
STARTCHAR 0418
ENCODING 1048
SWIDTH 664 0
DWIDTH 24 0
BBX 17 24 3 0
BITMAP
E00380
E00780
E00780
E00F80
E00D80
E01D80
E01980
E03980
E07180
E07180
E0E380
E0E380
E1C380
E38380
E38380
E70380
E70380
EE0380
EE0380
FC0380
F80380
F80380
F00380
F00380
ENDCHAR
STARTCHAR 0419
ENCODING 1049
SWIDTH 664 0
DWIDTH 24 0
BBX 17 31 3 0
BITMAP
0C0C00
0C0C00
0E1C00
07F800
03F000
000000
000000
E00380
E00780
E00780
E00F80
E00D80
E01D80
E01980
E03980
E07180
E07180
E0E380
E0E380
E1C380
E38380
E38380
E70380
E70380
EE0380
EE0380
FC0380
F80380
F80380
F00380
F00380
ENDCHAR
STARTCHAR 041A
ENCODING 1050
SWIDTH 581 0
DWIDTH 21 0
BBX 18 24 3 0
BITMAP
E00380
E00780
E00F80
E01C00
E01C00
E03800
E03800
E07000
E0E000
E0E000
E1C000
FFC000
FFC000
E0E000
E0F000
E07000
E03800
E03C00
E01C00
E00E00
E00F00
E00700
E00380
E003C0
ENDCHAR
STARTCHAR 041B
ENCODING 1051
SWIDTH 636 0
DWIDTH 23 0
BBX 19 24 0 0
BITMAP
00FFE0
01FFE0
01FFE0
01C0E0
01C0E0
01C0E0
0180E0
0380E0
0380E0
0380E0
0380E0
0300E0
0700E0
0700E0
0700E0
0700E0
0600E0
0E00E0
0E00E0
0E00E0
1C00E0
FC00E0
F800E0
F000E0
ENDCHAR
STARTCHAR 041C
ENCODING 1052
SWIDTH 720 0
DWIDTH 26 0
BBX 20 24 3 0
BITMAP
F000F0
F000F0
F801F0
F801F0
F801B0
FC03F0
EC0370
EE0370
EE0770
E60670
E70670
E70E70
E30C70
E38C70
E39C70
E19870
E1D870
E0F870
E0F070
E0F070
E07070
E06070
E00070
E00070
ENDCHAR
STARTCHAR 041D
ENCODING 1053
SWIDTH 664 0
DWIDTH 24 0
BBX 17 24 3 0
BITMAP
E00380
E00380
E00380
E00380
E00380
E00380
E00380
E00380
E00380
E00380
FFFF80
FFFF80
FFFF80
E00380
E00380
E00380
E00380
E00380
E00380
E00380
E00380
E00380
E00380
E00380
ENDCHAR
STARTCHAR 041E
ENCODING 1054
SWIDTH 664 0
DWIDTH 24 0
BBX 20 24 2 0
BITMAP
01F800
07FE00
1FFF80
3E07C0
3803C0
7801E0
7000E0
F000F0
E00070
E00070
E00070
E00070
E00070
E00070
E00070
E00070
7000F0
7000E0
7801E0
3C01C0
1E0780
1FFF80
07FE00
01F800
ENDCHAR
STARTCHAR 041F
ENCODING 1055
SWIDTH 636 0
DWIDTH 23 0
BBX 17 24 3 0
BITMAP
FFFF80
FFFF80
FFFF80
E00380
E00380
E00380
E00380
E00380
E00380
E00380
E00380
E00380
E00380
E00380
E00380
E00380
E00380
E00380
E00380
E00380
E00380
E00380
E00380
E00380
ENDCHAR
STARTCHAR 0420
ENCODING 1056
SWIDTH 553 0
DWIDTH 20 0
BBX 16 24 3 0
BITMAP
FFE0
FFF8
E1FE
E01E
E00F
E007
E007
E007
E007
E00F
E00E
E03E
FFFC
FFF0
E000
E000
E000
E000
E000
E000
E000
E000
E000
E000
ENDCHAR
STARTCHAR 0421
ENCODING 1057
SWIDTH 581 0
DWIDTH 21 0
BBX 17 24 2 0
BITMAP
01F800
07FE00
0FFF80
1E0300
3C0100
780000
700000
700000
E00000
E00000
E00000
E00000
E00000
E00000
E00000
E00000
F00000
700000
780000
3C0100
1E0380
1FFF80
07FE00
01F800
ENDCHAR
STARTCHAR 0422
ENCODING 1058
SWIDTH 526 0
DWIDTH 19 0
BBX 17 24 1 0
BITMAP
FFFF80
FFFF80
FFFF80
01C000
01C000
01C000
01C000
01C000
01C000
01C000
01C000
01C000
01C000
01C000
01C000
01C000
01C000
01C000
01C000
01C000
01C000
01C000
01C000
01C000
ENDCHAR
STARTCHAR 0423
ENCODING 1059
SWIDTH 526 0
DWIDTH 19 0
BBX 18 24 0 0
BITMAP
F001C0
7001C0
7001C0
380380
380380
1C0700
1C0700
0E0700
0E0E00
0E0E00
071C00
071C00
039C00
03B800
01B800
01F000
00F000
00E000
00E000
00E000
01C000
1FC000
1F8000
1E0000
ENDCHAR
STARTCHAR 0424
ENCODING 1060
SWIDTH 720 0
DWIDTH 26 0
BBX 23 24 2 0
BITMAP
003800
003800
003800
03FF00
0FFFE0
3FFFF0
7C3878
70383C
F0381C
E0381E
E0380E
E0380E
E0380E
E0380E
E0381C
70381C
703838
3C38F0
1FFFE0
07FF80
003800
003800
003800
003800
ENDCHAR
STARTCHAR 0425
ENCODING 1061
SWIDTH 526 0
DWIDTH 19 0
BBX 17 24 1 0
BITMAP
F00700
700700
780E00
380E00
3C1C00
1C1C00
0E3800
0E3000
077000
076000
03E000
03C000
03E000
07E000
077000
0E7000
0E3800
1C3800
1C1C00
381C00
780E00
700F00
F00700
E00780
ENDCHAR
STARTCHAR 0426
ENCODING 1062
SWIDTH 636 0
DWIDTH 23 0
BBX 19 31 3 -7
BITMAP
E00380
E00380
E00380
E00380
E00380
E00380
E00380
E00380
E00380
E00380
E00380
E00380
E00380
E00380
E00380
E00380
E00380
E00380
E00380
E00380
E00380
FFFFE0
FFFFE0
FFFFE0
0000E0
0000E0
0000E0
0000E0
0000E0
0000E0
0000E0
ENDCHAR
STARTCHAR 0427
ENCODING 1063
SWIDTH 609 0
DWIDTH 22 0
BBX 16 24 2 0
BITMAP
E007
E007
E007
E007
E007
E007
E007
7007
7007
7807
3C07
3FFF
0FFF
0007
0007
0007
0007
0007
0007
0007
0007
0007
0007
0007
ENDCHAR
STARTCHAR 0428
ENCODING 1064
SWIDTH 858 0
DWIDTH 31 0
BBX 25 24 3 0
BITMAP
E01C0380
E01C0380
E01C0380
E01C0380
E01C0380
E01C0380
E01C0380
E01C0380
E01C0380
E01C0380
E01C0380
E01C0380
E01C0380
E01C0380
E01C0380
E01C0380
E01C0380
E01C0380
E01C0380
E01C0380
E01C0380
FFFFFF80
FFFFFF80
FFFFFF80
ENDCHAR
STARTCHAR 0429
ENCODING 1065
SWIDTH 886 0
DWIDTH 32 0
BBX 28 31 3 -7
BITMAP
E01C0380
E01C0380
E01C0380
E01C0380
E01C0380
E01C0380
E01C0380
E01C0380
E01C0380
E01C0380
E01C0380
E01C0380
E01C0380
E01C0380
E01C0380
E01C0380
E01C0380
E01C0380
E01C0380
E01C0380
E01C0380
FFFFFFF0
FFFFFFF0
FFFFFFF0
00000070
00000070
00000060
00000060
00000060
00000060
00000060
ENDCHAR
STARTCHAR 042A
ENCODING 1066
SWIDTH 720 0
DWIDTH 26 0
BBX 23 24 1 0
BITMAP
FFE000
FFE000
FFE000
00E000
00E000
00E000
00E000
00E000
00E000
00E000
00FFE0
00FFF8
00E1FC
00E01E
00E00E
00E00E
00E00E
00E00E
00E00E
00E00E
00E01E
00E1FC
00FFF8
00FFC0
ENDCHAR
STARTCHAR 042B
ENCODING 1067
SWIDTH 803 0
DWIDTH 29 0
BBX 23 24 3 0
BITMAP
E0000E
E0000E
E0000E
E0000E
E0000E
E0000E
E0000E
E0000E
E0000E
E0000E
FFE00E
FFF80E
E1FC0E
E01E0E
E00E0E
E0070E
E0070E
E0070E
E00F0E
E00E0E
E01E0E
E1FC0E
FFF80E
FFE00E
ENDCHAR
STARTCHAR 042C
ENCODING 1068
SWIDTH 581 0
DWIDTH 21 0
BBX 16 24 3 0
BITMAP
E000
E000
E000
E000
E000
E000
E000
E000
E000
E000
FFF0
FFFC
E0FE
E00F
E007
E007
E007
E007
E007
E007
E00E
E0FE
FFFC
FFE0
ENDCHAR
STARTCHAR 042D
ENCODING 1069
SWIDTH 581 0
DWIDTH 21 0
BBX 18 24 1 0
BITMAP
07E000
1FF800
7FFE00
701E00
200F00
000780
000380
000380
000380
0001C0
07FFC0
07FFC0
07FFC0
0001C0
0001C0
000380
000380
000380
000700
600F00
F01E00
7FFC00
3FF800
0FE000
ENDCHAR
STARTCHAR 042E
ENCODING 1070
SWIDTH 913 0
DWIDTH 33 0
BBX 28 24 3 0
BITMAP
E001F800
E007FE00
E00FFF80
E01E07C0
E03C01C0
E03801E0
E07800E0
E07000E0
E07000F0
E0700070
FFF00070
FFF00070
FFF00070
E0700070
E0700070
E07000F0
E07000E0
E07800E0
E03801E0
E03C01C0
E01E0780
E00FFF00
E007FE00
E001F800
ENDCHAR
STARTCHAR 042F
ENCODING 1071
SWIDTH 581 0
DWIDTH 21 0
BBX 17 24 1 0
BITMAP
03FF80
1FFF80
3F8380
380380
780380
700380
700380
700380
700380
780380
3C0380
1F8380
0FFF80
03FF80
038380
070380
070380
0E0380
1E0380
1C0380
380380
780380
700380
F00380
ENDCHAR
STARTCHAR 0430
ENCODING 1072
SWIDTH 498 0
DWIDTH 18 0
BBX 14 18 2 0
BITMAP
0FC0
3FF0
7FF8
6038
0038
001C
001C
01FC
0FFC
3C1C
701C
E01C
E01C
E03C
E07C
F9FC
7F9C
1E1C
ENDCHAR
STARTCHAR 0431
ENCODING 1073
SWIDTH 553 0
DWIDTH 20 0
BBX 16 27 2 0
BITMAP
0002
003E
03FE
0FFC
1F80
3C00
3800
7000
7000
6000
E3F0
EFFC
FC3C
F01E
E00E
E007
E007
E007
E007
E007
E007
700E
700E
381C
3FFC
1FF8
07E0
ENDCHAR
STARTCHAR 0432
ENCODING 1074
SWIDTH 498 0
DWIDTH 18 0
BBX 14 18 3 0
BITMAP
FFC0
FFF0
E078
E038
E038
E038
E038
E070
FFE0
FFF0
E078
E01C
E01C
E01C
E01C
E078
FFF0
FFC0
ENDCHAR
STARTCHAR 0433
ENCODING 1075
SWIDTH 415 0
DWIDTH 15 0
BBX 11 18 3 0
BITMAP
FFE0
FFE0
E000
E000
E000
E000
E000
E000
E000
E000
E000
E000
E000
E000
E000
E000
E000
E000
ENDCHAR
STARTCHAR 0434
ENCODING 1076
SWIDTH 526 0
DWIDTH 19 0
BBX 17 24 1 -6
BITMAP
0FFE00
0FFE00
0C0E00
0C0E00
1C0E00
1C0E00
1C0E00
1C0E00
1C0E00
180E00
180E00
180E00
380E00
380E00
300E00
700E00
FFFF80
FFFF80
E00180
E00180
E00180
E00180
E00180
E00180
ENDCHAR
STARTCHAR 0435
ENCODING 1077
SWIDTH 498 0
DWIDTH 18 0
BBX 15 18 2 0
BITMAP
07C0
1FF0
3EF8
781C
701C
E00C
E00C
E00E
FFFE
FFFC
E000
E000
E000
7000
7800
3F78
1FF8
07E0
ENDCHAR
STARTCHAR 0436
ENCODING 1078
SWIDTH 692 0
DWIDTH 25 0
BBX 23 18 1 0
BITMAP
E0380E
F0383C
F8383C
1C3870
1C3860
0C38E0
0E38C0
0E39C0
07FFC0
0FFFC0
0E38E0
1C38E0
1C3870
383870
383838
70381C
F0381C
E0380E
ENDCHAR
STARTCHAR 0437
ENCODING 1079
SWIDTH 443 0
DWIDTH 16 0
BBX 13 18 2 0
BITMAP
1F80
FFE0
F9F0
4070
0070
0070
0070
00E0
1FC0
1FE0
0070
0038
0038
0038
8078
F9F0
FFE0
3F80
ENDCHAR
STARTCHAR 0438
ENCODING 1080
SWIDTH 553 0
DWIDTH 20 0
BBX 14 18 3 0
BITMAP
E01C
E01C
E03C
E07C
E06C
E0EC
E1CC
E18C
E38C
E70C
E70C
EE0C
EC0C
FC0C
F80C
F00C
F00C
E00C
ENDCHAR
STARTCHAR 0439
ENCODING 1081
SWIDTH 553 0
DWIDTH 20 0
BBX 14 27 3 0
BITMAP
3038
3038
3838
1C70
1FE0
0380
0000
0000
0000
E01C
E01C
E03C
E07C
E06C
E0EC
E1CC
E18C
E38C
E70C
E70C
EE0C
EC0C
FC0C
F80C
F00C
F00C
E00C
ENDCHAR
STARTCHAR 043A
ENCODING 1082
SWIDTH 498 0
DWIDTH 18 0
BBX 14 18 3 0
BITMAP
E01C
E078
E078
E0E0
E0C0
E1C0
E180
E380
FF80
FF80
E1C0
E1C0
E0E0
E070
E070
E038
E03C
E01C
ENDCHAR
STARTCHAR 043B
ENCODING 1083
SWIDTH 526 0
DWIDTH 19 0
BBX 16 18 0 0
BITMAP
07FF
07FF
0707
0707
0707
0607
0607
0607
0E07
0E07
0E07
0E07
0E07
0C07
1C07
7C07
7807
F007
ENDCHAR
STARTCHAR 043C
ENCODING 1084
SWIDTH 636 0
DWIDTH 23 0
BBX 17 18 3 0
BITMAP
F00780
F00780
F00F80
F80F80
D80F80
DC1F80
EC1B80
EC1B80
EE3B80
E63380
E77380
E76380
E36380
E3E380
E1C380
E1C380
E00380
E00380
ENDCHAR
STARTCHAR 043D
ENCODING 1085
SWIDTH 553 0
DWIDTH 20 0
BBX 14 18 3 0
BITMAP
E01C
E01C
E01C
E01C
E01C
E01C
E01C
FFFC
FFFC
FFFC
E01C
E01C
E01C
E01C
E01C
E01C
E01C
E01C
ENDCHAR
STARTCHAR 043E
ENCODING 1086
SWIDTH 553 0
DWIDTH 20 0
BBX 16 18 2 0
BITMAP
07E0
1FF0
3FFC
781C
700E
E00E
E00F
E007
E007
E007
E007
E007
E00E
700E
781C
3FFC
1FF0
07C0
ENDCHAR
STARTCHAR 043F
ENCODING 1087
SWIDTH 553 0
DWIDTH 20 0
BBX 14 18 3 0
BITMAP
FFFC
FFFC
E01C
E01C
E01C
E01C
E01C
E01C
E01C
E01C
E01C
E01C
E01C
E01C
E01C
E01C
E01C
E01C
ENDCHAR
STARTCHAR 0440
ENCODING 1088
SWIDTH 553 0
DWIDTH 20 0
BBX 15 26 3 -8
BITMAP
C3E0
EFF8
FFFC
F83C
E01E
E00E
E00E
E00E
E00E
E00E
E00E
E00E
E00E
E01C
F03C
FFF8
EFF0
E7C0
E000
E000
E000
E000
E000
E000
E000
E000
ENDCHAR
STARTCHAR 0441
ENCODING 1089
SWIDTH 443 0
DWIDTH 16 0
BBX 13 18 2 0
BITMAP
07E0
1FF8
3FF8
7810
7000
F000
E000
E000
E000
E000
E000
E000
F000
7000
7818
3FF8
1FF8
07E0
ENDCHAR
STARTCHAR 0442
ENCODING 1090
SWIDTH 470 0
DWIDTH 17 0
BBX 15 18 1 0
BITMAP
FFFE
FFFE
0380
0380
0380
0380
0380
0380
0380
0380
0380
0380
0380
0380
0380
0380
0380
0380
ENDCHAR
STARTCHAR 0443
ENCODING 1091
SWIDTH 470 0
DWIDTH 17 0
BBX 15 26 1 -8
BITMAP
E00E
E00E
E00E
701C
701C
301C
3818
3838
1C38
1C30
1C70
0E70
0E60
06E0
07E0
07C0
03C0
03C0
0380
0380
0380
0700
0700
7E00
FC00
F800
ENDCHAR
STARTCHAR 0444
ENCODING 1092
SWIDTH 747 0
DWIDTH 27 0
BBX 23 34 2 -8
BITMAP
003800
003800
003800
003800
003800
003800
003800
003800
0FBBE0
1FFFF0
3FFFF8
78383C
70381C
E0381E
E0380E
E0380E
E0380E
E0380E
E0380E
E0381E
E0381C
F0381C
783838
7FFFF8
3FFFF0
0FBBC0
003800
003800
003800
003800
003800
003800
003800
003800
ENDCHAR
STARTCHAR 0445
ENCODING 1093
SWIDTH 443 0
DWIDTH 16 0
BBX 14 18 1 0
BITMAP
E01C
7038
7838
3870
1C70
1CE0
0EC0
07C0
0780
0780
0FC0
1DE0
1CE0
3870
3870
7038
E03C
E01C
ENDCHAR
STARTCHAR 0446
ENCODING 1094
SWIDTH 553 0
DWIDTH 20 0
BBX 16 24 3 -6
BITMAP
E01C
E01C
E01C
E01C
E01C
E01C
E01C
E01C
E01C
E01C
E01C
E01C
E01C
E01C
E01C
E01C
FFFF
FFFF
0007
0007
0007
0007
0007
0007
ENDCHAR
STARTCHAR 0447
ENCODING 1095
SWIDTH 498 0
DWIDTH 18 0
BBX 14 18 2 0
BITMAP
E01C
E01C
E01C
E01C
E01C
E01C
E01C
701C
7E7C
3FFC
0FFC
001C
001C
001C
001C
001C
001C
001C
ENDCHAR
STARTCHAR 0448
ENCODING 1096
SWIDTH 747 0
DWIDTH 27 0
BBX 21 18 3 0
BITMAP
E07038
E07038
E07038
E07038
E07038
E07038
E07038
E07038
E07038
E07038
E07038
E07038
E07038
E07038
E07038
E07038
FFFFF8
FFFFF8
ENDCHAR
STARTCHAR 0449
ENCODING 1097
SWIDTH 747 0
DWIDTH 27 0
BBX 24 24 3 -6
BITMAP
E07038
E07038
E07038
E07038
E07038
E07038
E07038
E07038
E07038
E07038
E07038
E07038
E07038
E07038
E07038
E07038
FFFFFF
FFFFFF
000007
000007
000007
000006
000006
000006
ENDCHAR
STARTCHAR 044A
ENCODING 1098
SWIDTH 609 0
DWIDTH 22 0
BBX 19 18 1 0
BITMAP
FF8000
FF8000
038000
038000
038000
038000
038000
03FF00
03FFC0
0383C0
0380E0
0380E0
0380E0
0380E0
0381E0
0387C0
03FF80
03FE00
ENDCHAR
STARTCHAR 044B
ENCODING 1099
SWIDTH 664 0
DWIDTH 24 0
BBX 18 18 3 0
BITMAP
E001C0
E001C0
E001C0
E001C0
E001C0
E001C0
E001C0
FFC1C0
FFE1C0
E0F1C0
E071C0
E071C0
E071C0
E071C0
E071C0
E3F1C0
FFE1C0
FF81C0
ENDCHAR
STARTCHAR 044C
ENCODING 1100
SWIDTH 498 0
DWIDTH 18 0
BBX 13 18 3 0
BITMAP
E000
E000
E000
E000
E000
E000
E000
FFC0
FFF0
E078
E038
E038
E038
E038
E038
E1F0
FFE0
FFC0
ENDCHAR
STARTCHAR 044D
ENCODING 1101
SWIDTH 443 0
DWIDTH 16 0
BBX 14 18 1 0
BITMAP
1F80
7FE0
7BF0
4070
0038
0038
001C
001C
1FFC
1FFC
001C
001C
0038
0038
4078
FBF0
7FE0
1F80
ENDCHAR
STARTCHAR 044E
ENCODING 1102
SWIDTH 747 0
DWIDTH 27 0
BBX 22 18 3 0
BITMAP
E00F80
E03FE0
E07FF0
E0E078
E0E038
E1C03C
E1C01C
FFC01C
FFC01C
FFC01C
E1C01C
E1C01C
E1C038
E0E038
E0F078
E07FF0
E03FE0
E00F80
ENDCHAR
STARTCHAR 044F
ENCODING 1103
SWIDTH 526 0
DWIDTH 19 0
BBX 15 18 1 0
BITMAP
07FE
1FFE
3E0E
380E
380E
780E
380E
380E
3E0E
1FFE
07FE
070E
0E0E
1E0E
1C0E
380E
780E
F00E
ENDCHAR
STARTCHAR 0450
ENCODING 1104
SWIDTH 498 0
DWIDTH 18 0
BBX 15 28 2 0
BITMAP
0800
1C00
1E00
0F00
0700
0380
0180
0000
0000
0000
07C0
1FF0
3EF8
781C
701C
E00C
E00C
E00E
FFFE
FFFC
E000
E000
E000
7000
7800
3F78
1FF8
07E0
ENDCHAR
STARTCHAR 0451
ENCODING 1105
SWIDTH 498 0
DWIDTH 18 0
BBX 15 25 2 0
BITMAP
1830
3C78
3C78
1830
0000
0000
0000
07C0
1FF0
3EF8
781C
701C
E00C
E00C
E00E
FFFE
FFFC
E000
E000
E000
7000
7800
3F78
1FF8
07E0
ENDCHAR
STARTCHAR 0452
ENCODING 1106
SWIDTH 553 0
DWIDTH 20 0
BBX 18 34 0 -8
BITMAP
1C0000
1C0000
1C0000
FFF000
FFF000
1C0000
1C0000
1C0000
1C0000
1C1800
1CFE00
1DFF00
1F8780
1E0380
1C0380
1C01C0
1C01C0
1C01C0
1C01C0
1C01C0
1C01C0
1C01C0
1C01C0
1C01C0
1C01C0
1C01C0
0001C0
000380
000380
000380
000700
005F00
007E00
00F800
ENDCHAR
STARTCHAR 0453
ENCODING 1107
SWIDTH 415 0
DWIDTH 15 0
BBX 11 28 3 1
BITMAP
00C0
01E0
03C0
0780
0700
0E00
0400
0000
0000
0000
FFE0
FFE0
E000
E000
E000
E000
E000
E000
E000
E000
E000
E000
E000
E000
E000
E000
E000
E000
ENDCHAR
STARTCHAR 0454
ENCODING 1108
SWIDTH 443 0
DWIDTH 16 0
BBX 13 18 2 0
BITMAP
07E0
1FF8
3E78
7810
7000
E000
E000
E000
FFE0
FFE0
E000
E000
E000
F000
7808
3E78
1FF8
07E0
ENDCHAR
STARTCHAR 0455
ENCODING 1109
SWIDTH 415 0
DWIDTH 15 0
BBX 13 18 1 0
BITMAP
0FC0
3FF0
3CF0
7020
7000
7000
7800
3E00
1FC0
07E0
00F0
0078
0038
0038
6038
F8F0
7FE0
1F80
ENDCHAR
STARTCHAR 0456
ENCODING 1110
SWIDTH 249 0
DWIDTH 9 0
BBX 5 26 2 0
BITMAP
70
70
F8
70
00
00
00
00
70
70
70
70
70
70
70
70
70
70
70
70
70
70
70
70
70
70
ENDCHAR
STARTCHAR 0457
ENCODING 1111
SWIDTH 249 0
DWIDTH 9 0
BBX 11 25 -1 0
BITMAP
60C0
F1E0
F1E0
6080
0000
0000
0000
0E00
0E00
0E00
0E00
0E00
0E00
0E00
0E00
0E00
0E00
0E00
0E00
0E00
0E00
0E00
0E00
0E00
0E00
ENDCHAR
STARTCHAR 0458
ENCODING 1112
SWIDTH 249 0
DWIDTH 9 0
BBX 8 34 -1 -8
BITMAP
0E
0E
1F
0E
00
00
00
00
0E
0E
0E
0E
0E
0E
0E
0E
0E
0E
0E
0E
0E
0E
0E
0E
0E
0E
0E
0E
0E
0E
0E
BC
FC
F8
ENDCHAR
STARTCHAR 0459
ENCODING 1113
SWIDTH 747 0
DWIDTH 27 0
BBX 24 18 1 0
BITMAP
0FFE00
0FFE00
0E0E00
0E0E00
0E0E00
0E0E00
0E0E00
0C0FF8
0C0FFE
0C0E1E
1C0E07
1C0E07
1C0E07
1C0E07
380E0F
F80E3E
F00FFC
E00FF0
ENDCHAR
STARTCHAR 045A
ENCODING 1114
SWIDTH 747 0
DWIDTH 27 0
BBX 23 18 3 0
BITMAP
E01C00
E01C00
E01C00
E01C00
E01C00
E01C00
E01C00
FFFFF0
FFFFFC
FFFC3C
E01C0E
E01C0E
E01C0E
E01C0E
E01C1E
E01C7C
E01FF8
E01FE0
ENDCHAR
STARTCHAR 045B
ENCODING 1115
SWIDTH 553 0
DWIDTH 20 0
BBX 17 26 0 0
BITMAP
1C0000
1C0000
1C0000
FFF000
FFF000
1C0000
1C0000
1C0000
1C0000
1C1000
1CFE00
1DFF00
1F8700
1E0780
1C0380
1C0380
1C0380
1C0380
1C0380
1C0380
1C0380
1C0380
1C0380
1C0380
1C0380
1C0380
ENDCHAR
STARTCHAR 045C
ENCODING 1116
SWIDTH 498 0
DWIDTH 18 0
BBX 14 28 3 1
BITMAP
0060
00F0
01E0
01C0
0380
0700
0200
0000
0000
0000
E01C
E078
E078
E0E0
E0C0
E1C0
E180
E380
FF80
FF80
E1C0
E1C0
E0E0
E070
E070
E038
E03C
E01C
ENDCHAR
STARTCHAR 045D
ENCODING 1117
SWIDTH 553 0
DWIDTH 20 0
BBX 14 28 3 1
BITMAP
1800
3C00
1E00
0F00
0780
0380
0100
0000
0000
0000
E01C
E01C
E03C
E07C
E06C
E0EC
E1CC
E18C
E38C
E70C
E70C
EE0C
EC0C
FC0C
F80C
F00C
F00C
E00C
ENDCHAR
STARTCHAR 045E
ENCODING 1118
SWIDTH 470 0
DWIDTH 17 0
BBX 15 35 1 -8
BITMAP
3818
3818
3818
1C38
0FF0
07C0
0000
0000
0000
E00E
E00E
E00E
701C
701C
301C
3818
3838
1C38
1C30
1C70
0E70
0E60
06E0
07E0
07C0
03C0
03C0
0380
0380
0380
0700
0700
7E00
FC00
F800
ENDCHAR
STARTCHAR 045F
ENCODING 1119
SWIDTH 553 0
DWIDTH 20 0
BBX 14 24 3 -6
BITMAP
E01C
E01C
E01C
E01C
E01C
E01C
E01C
E01C
E01C
E01C
E01C
E01C
E01C
E01C
E01C
E01C
FFFC
FFFC
0380
0380
0300
0300
0300
0300
ENDCHAR
STARTCHAR 0462
ENCODING 1122
SWIDTH 609 0
DWIDTH 22 0
BBX 20 26 1 0
BITMAP
070000
070000
070000
070000
070000
FFFF00
FFFF00
070000
070000
070000
070000
070000
070000
07FF00
07FFC0
0703E0
0700E0
0700E0
070070
070070
070060
0700E0
0701E0
070FC0
07FF80
07FE00
ENDCHAR
STARTCHAR 0463
ENCODING 1123
SWIDTH 581 0
DWIDTH 21 0
BBX 18 23 1 0
BITMAP
070000
070000
070000
070000
070000
FFFE00
FFFE00
070000
070000
070000
070000
070000
07FE00
07FF80
0707C0
0701C0
0701C0
0701C0
0701C0
0701C0
070F80
07FF80
07FE00
ENDCHAR
STARTCHAR 0472
ENCODING 1138
SWIDTH 664 0
DWIDTH 24 0
BBX 20 24 2 0
BITMAP
01F800
07FF00
1FFF80
3C03C0
3801C0
7000E0
7000E0
E00070
E00070
E00070
FFFFF0
FFFFF0
E00070
E00070
E00070
E00070
7000F0
7000E0
7800E0
3801C0
3E03C0
1FFF80
07FE00
01F800
ENDCHAR
STARTCHAR 0473
ENCODING 1139
SWIDTH 553 0
DWIDTH 20 0
BBX 16 18 2 0
BITMAP
07E0
1FF8
3E7C
781C
700E
E00E
E007
E007
FFFF
FFFF
E007
E007
E006
700E
781E
3E7C
1FF8
07E0
ENDCHAR
STARTCHAR 0474
ENCODING 1140
SWIDTH 526 0
DWIDTH 19 0
BBX 20 24 0 0
BITMAP
E00070
F001F0
7001F0
700380
780380
380380
380700
380700
1C0700
1C0600
1C0E00
0E0E00
0E0E00
0E1C00
061C00
071C00
071800
033800
03B800
03B800
03B000
01F000
01F000
01E000
ENDCHAR
STARTCHAR 0475
ENCODING 1141
SWIDTH 470 0
DWIDTH 17 0
BBX 17 18 1 0
BITMAP
E00780
E00F80
E00F00
701C00
701C00
701800
383800
383800
383000
1C7000
1C7000
1C6000
0EE000
0EE000
06C000
06C000
07C000
03C000
ENDCHAR
STARTCHAR 0490
ENCODING 1168
SWIDTH 498 0
DWIDTH 18 0
BBX 14 30 3 0
BITMAP
000C
000C
001C
001C
001C
001C
FFFC
FFFC
FFFC
E000
E000
E000
E000
E000
E000
E000
E000
E000
E000
E000
E000
E000
E000
E000
E000
E000
E000
E000
E000
E000
ENDCHAR
STARTCHAR 0491
ENCODING 1169
SWIDTH 415 0
DWIDTH 15 0
BBX 11 24 3 0
BITMAP
0060
0060
0060
0060
0060
00E0
FFE0
FFE0
E000
E000
E000
E000
E000
E000
E000
E000
E000
E000
E000
E000
E000
E000
E000
E000
ENDCHAR
STARTCHAR 0492
ENCODING 1170
SWIDTH 526 0
DWIDTH 19 0
BBX 17 24 1 0
BITMAP
1FFF80
1FFF80
1FFF80
1C0000
1C0000
1C0000
1C0000
1C0000
1C0000
1C0000
1C0000
FFE000
FFE000
1C0000
1C0000
1C0000
1C0000
1C0000
1C0000
1C0000
1C0000
1C0000
1C0000
1C0000
ENDCHAR
STARTCHAR 0493
ENCODING 1171
SWIDTH 415 0
DWIDTH 15 0
BBX 13 18 1 0
BITMAP
3FF8
3FF8
3800
3800
3800
3800
3800
3800
FFC0
FFC0
3800
3800
3800
3800
3800
3800
3800
3800
ENDCHAR
STARTCHAR 0496
ENCODING 1174
SWIDTH 858 0
DWIDTH 31 0
BBX 30 31 0 -7
BITMAP
70070078
780700F0
7C0701F0
1E0703C0
0E070380
07070700
07070700
03870600
03870E00
03870E00
01C71C00
01FFFC00
01FFFC00
03870E00
03870E00
07070700
07070700
0E070380
1E0703C0
1C0701C0
380700E0
380700FC
7007007C
F007007C
0000001C
0000001C
00000018
00000018
00000018
00000018
00000018
ENDCHAR
STARTCHAR 0497
ENCODING 1175
SWIDTH 720 0
DWIDTH 26 0
BBX 24 24 1 -6
BITMAP
E0380E
F0383C
F8383C
1C3870
1C3860
0C38E0
0E38C0
0E39C0
07FFC0
0FFFC0
0E38E0
1C38E0
1C3870
383870
383838
70381C
F0381F
E0380F
000007
000007
000007
000007
000007
000007
ENDCHAR
STARTCHAR 0498
ENCODING 1176
SWIDTH 553 0
DWIDTH 20 0
BBX 17 30 2 -6
BITMAP
07E000
3FF800
7FFC00
701E00
000E00
000E00
000E00
000E00
000E00
003C00
07F800
07F800
007E00
000F00
000700
000700
000380
000380
000700
C00700
F00F00
FFFE00
3FFC00
0FF000
01C000
01C000
018000
018000
018000
018000
ENDCHAR
STARTCHAR 0499
ENCODING 1177
SWIDTH 443 0
DWIDTH 16 0
BBX 13 24 2 -6
BITMAP
1F80
FFE0
F9F0
4070
0070
0070
0070
00E0
1FC0
1FE0
00F0
0038
0038
0038
8078
F1F0
FFE0
3F80
0600
0600
0600
0600
0600
0600
ENDCHAR
STARTCHAR 049A
ENCODING 1178
SWIDTH 636 0
DWIDTH 23 0
BBX 19 31 3 -7
BITMAP
E00380
E00780
E00F80
E01C00
E01C00
E03800
E03800
E07000
E0E000
E0E000
E1C000
FFC000
FFC000
E0E000
E0F000
E07000
E03800
E03C00
E01C00
E00E00
E00F00
E007E0
E003E0
E003E0
0000E0
0000E0
0000E0
0000E0
0000E0
0000C0
0000C0
ENDCHAR
STARTCHAR 049B
ENCODING 1179
SWIDTH 526 0
DWIDTH 19 0
BBX 16 24 3 -6
BITMAP
E01C
E078
E078
E0E0
E0C0
E1C0
E180
E380
FF80
FF80
E1C0
E1C0
E0E0
E070
E070
E038
E03F
E01F
0007
0007
0007
0006
0006
0006
ENDCHAR
STARTCHAR 04A0
ENCODING 1184
SWIDTH 720 0
DWIDTH 26 0
BBX 24 24 1 0
BITMAP
FFC007
FFC00F
FFC01F
01C038
01C078
01C070
01C0E0
01C0E0
01C1C0
01C1C0
01FF80
01FF80
01C3C0
01C1C0
01C1E0
01C0E0
01C070
01C078
01C038
01C01C
01C01E
01C00E
01C007
01C007
ENDCHAR
STARTCHAR 04A1
ENCODING 1185
SWIDTH 609 0
DWIDTH 22 0
BBX 20 18 1 0
BITMAP
FF8070
FF80F0
0381E0
038380
038380
038700
038700
038600
03FE00
03FE00
038700
038780
038380
0381C0
0381C0
0380E0
0380F0
038070
ENDCHAR
STARTCHAR 04A2
ENCODING 1186
SWIDTH 664 0
DWIDTH 24 0
BBX 20 31 3 -7
BITMAP
E00380
E00380
E00380
E00380
E00380
E00380
E00380
E00380
E00380
E00380
FFFF80
FFFF80
FFFF80
E00380
E00380
E00380
E00380
E00380
E00380
E00380
E00380
E003F0
E003F0
E003F0
000070
000070
000070
000070
000070
000070
000070
ENDCHAR
STARTCHAR 04A3
ENCODING 1187
SWIDTH 581 0
DWIDTH 21 0
BBX 17 24 3 -6
BITMAP
E01C00
E01C00
E01C00
E01C00
E01C00
E01C00
E01C00
FFFC00
FFFC00
FFFC00
E01C00
E01C00
E01C00
E01C00
E01C00
E01C00
E01F80
E01F80
000380
000380
000380
000380
000380
000380
ENDCHAR
STARTCHAR 04AA
ENCODING 1194
SWIDTH 581 0
DWIDTH 21 0
BBX 17 30 2 -6
BITMAP
01F800
07FE00
0FFF80
1E0300
3C0100
780000
700000
700000
E00000
E00000
E00000
E00000
E00000
E00000
E00000
E00000
F00000
700000
780000
3C0100
3E0380
1FFF80
07FE00
01FC00
007000
007000
007000
007000
007000
006000
ENDCHAR
STARTCHAR 04AB
ENCODING 1195
SWIDTH 443 0
DWIDTH 16 0
BBX 13 24 2 -6
BITMAP
07E0
1FF8
3FF8
7810
7000
F000
E000
E000
E000
E000
E000
E000
E000
7000
7808
3E38
1FF8
07E0
0380
0380
0380
0380
0380
0380
ENDCHAR
STARTCHAR 04AE
ENCODING 1198
SWIDTH 470 0
DWIDTH 17 0
BBX 17 24 0 0
BITMAP
E00380
700380
700700
780700
380E00
3C0E00
1C1C00
1C1C00
0E3800
0E3800
073000
077000
03E000
03E000
01C000
01C000
01C000
01C000
01C000
01C000
01C000
01C000
01C000
01C000
ENDCHAR
STARTCHAR 04AF
ENCODING 1199
SWIDTH 470 0
DWIDTH 17 0
BBX 15 25 1 -7
BITMAP
E00E
E00E
E00E
701C
701C
7018
3838
3838
1830
1C70
1C70
0C60
0EE0
0EC0
06C0
07C0
0380
0380
0380
0380
0380
0380
0380
0380
0380
ENDCHAR
STARTCHAR 04B0
ENCODING 1200
SWIDTH 470 0
DWIDTH 17 0
BBX 17 24 0 0
BITMAP
E00380
700780
700700
380700
380E00
1C0E00
1C1C00
0E1C00
0E3800
063800
077000
037000
03E000
3FFE00
3FFE00
01C000
01C000
01C000
01C000
01C000
01C000
01C000
01C000
01C000
ENDCHAR
STARTCHAR 04B1
ENCODING 1201
SWIDTH 470 0
DWIDTH 17 0
BBX 16 25 0 -7
BITMAP
F007
7007
7007
380E
380E
380E
1C1C
1C1C
1C18
0E38
0E38
0630
0770
0770
0360
03E0
3FFE
3FFE
01C0
01C0
01C0
01C0
01C0
01C0
01C0
ENDCHAR
STARTCHAR 04B2
ENCODING 1202
SWIDTH 553 0
DWIDTH 20 0
BBX 18 31 1 -7
BITMAP
F00700
700700
780E00
380E00
3C1C00
1C1C00
0E3800
0E3000
077000
076000
03E000
03C000
03E000
07E000
077000
0E7000
0E3800
1C3800
1C1C00
381C00
780E00
700FC0
F007C0
E007C0
0001C0
0001C0
0001C0
0001C0
0001C0
0001C0
0001C0
ENDCHAR
STARTCHAR 04B3
ENCODING 1203
SWIDTH 470 0
DWIDTH 17 0
BBX 16 24 1 -6
BITMAP
E01C
7038
7838
3870
1C70
1CE0
0EC0
07C0
0780
0780
0FC0
1DC0
1CE0
3870
3870
7038
E03F
E01F
0007
0007
0007
0006
0006
0006
ENDCHAR
STARTCHAR 04B6
ENCODING 1206
SWIDTH 609 0
DWIDTH 22 0
BBX 19 31 2 -7
BITMAP
E00700
E00700
E00700
E00700
E00700
E00700
E00700
700700
700700
780700
3C0700
3FFF00
0FFF00
000700
000700
000700
000700
000700
000700
000700
000700
0007E0
0007E0
0007E0
0000E0
0000E0
0000E0
0000E0
0000E0
0000E0
0000E0
ENDCHAR
STARTCHAR 04B7
ENCODING 1207
SWIDTH 526 0
DWIDTH 19 0
BBX 16 24 2 -6
BITMAP
E01C
E01C
E01C
E01C
E01C
E01C
E01C
701C
7E7C
3FFC
0FFC
001C
001C
001C
001C
001C
001F
001F
0007
0007
0007
0007
0007
0007
ENDCHAR
STARTCHAR 04BA
ENCODING 1210
SWIDTH 609 0
DWIDTH 22 0
BBX 16 24 3 0
BITMAP
E000
E000
E000
E000
E000
E000
E000
E000
E000
FFF0
FFFC
FFFE
E01E
E00F
E007
E007
E007
E007
E007
E007
E007
E007
E007
E007
ENDCHAR
STARTCHAR 04BB
ENCODING 1211
SWIDTH 553 0
DWIDTH 20 0
BBX 14 26 3 0
BITMAP
E000
E000
E000
E000
E000
E000
E000
E000
E3E0
EFF8
FFF8
F83C
F01C
E01C
E01C
E01C
E01C
E01C
E01C
E01C
E01C
E01C
E01C
E01C
E01C
E01C
ENDCHAR
STARTCHAR 04C0
ENCODING 1216
SWIDTH 276 0
DWIDTH 10 0
BBX 3 24 3 0
BITMAP
E0
E0
E0
E0
E0
E0
E0
E0
E0
E0
E0
E0
E0
E0
E0
E0
E0
E0
E0
E0
E0
E0
E0
E0
ENDCHAR
STARTCHAR 04C1
ENCODING 1217
SWIDTH 803 0
DWIDTH 29 0
BBX 28 30 1 0
BITMAP
00E0E000
00E0E000
0071C000
003F8000
000E0000
00000000
E00E00F0
F00E01E0
F80E03E0
3C0E0780
1C0E0700
0E0E0E00
0E0E0E00
070E0C00
070E1C00
070E1C00
038E3800
03FFF800
03FFF800
070E1C00
070E1C00
0E0E0E00
0E0E0E00
1C0E0700
3C0E0780
380E0380
780E03C0
700E01C0
E00E00E0
E00E00E0
ENDCHAR
STARTCHAR 04C2
ENCODING 1218
SWIDTH 692 0
DWIDTH 25 0
BBX 23 27 1 0
BITMAP
030180
030380
038380
038700
01FE00
007C00
000000
000000
000000
E0380E
F0383C
F8383C
1C3870
1C3860
0C38E0
0E38C0
0E39C0
07FFC0
0FFFC0
0E38E0
1C38E0
1C3870
383870
383838
70381C
E0381C
E0380E
ENDCHAR
STARTCHAR 04CF
ENCODING 1231
SWIDTH 249 0
DWIDTH 9 0
BBX 5 26 3 0
BITMAP
E0
E0
E0
E0
E0
E0
E0
E0
E0
E0
E0
E0
E0
E0
E0
E0
E0
E0
E0
E0
E0
E0
E0
F0
F8
78
ENDCHAR
STARTCHAR 04D0
ENCODING 1232
SWIDTH 553 0
DWIDTH 20 0
BBX 19 31 0 0
BITMAP
0E0600
060E00
070E00
03FC00
01F800
000000
000000
00F000
00F000
01F000
01B800
01B800
039800
039C00
031C00
070C00
070E00
060E00
0E0600
0E0700
0C0700
1FFF00
1FFF80
180380
380380
3801C0
3801C0
7001C0
7000E0
7000E0
E000E0
ENDCHAR
STARTCHAR 04D1
ENCODING 1233
SWIDTH 498 0
DWIDTH 18 0
BBX 14 27 2 0
BITMAP
3018
3018
3838
1830
1FF0
07C0
0000
0000
0000
0FC0
3FF0
7FF8
6038
0038
001C
001C
01FC
0FFC
3C1C
701C
E01C
E01C
E03C
E07C
F9FC
7F9C
1E1C
ENDCHAR
STARTCHAR 04D4
ENCODING 1236
SWIDTH 830 0
DWIDTH 30 0
BBX 27 24 1 0
BITMAP
001FFFE0
001FFFE0
003FFFE0
003F8000
00778000
00778000
00E78000
00E78000
01C78000
01C78000
0387FF80
0387FF80
0707FF80
07078000
0E078000
0FFF8000
1FFF8000
1C078000
38078000
38078000
70078000
7007FFE0
E007FFE0
E007FFE0
ENDCHAR
STARTCHAR 04D5
ENCODING 1237
SWIDTH 775 0
DWIDTH 28 0
BBX 25 18 2 0
BITMAP
07C0F800
3FE3FE00
7FF7DE00
20360700
003E0300
001C0380
001C0380
01FC0380
0FFFFF80
3E1FFF80
781C0000
F01C0000
E01C0000
E01E0000
E03F0000
79F7CF00
7FC3FF00
1F00FC00
ENDCHAR
STARTCHAR 04D6
ENCODING 1238
SWIDTH 526 0
DWIDTH 19 0
BBX 14 31 3 0
BITMAP
3038
3838
3870
1FE0
07C0
0000
0000
FFFC
FFFC
FFFC
E000
E000
E000
E000
E000
E000
E000
FFF0
FFF0
FFF0
E000
E000
E000
E000
E000
E000
E000
E000
FFFC
FFFC
FFFC
ENDCHAR
STARTCHAR 04D7
ENCODING 1239
SWIDTH 498 0
DWIDTH 18 0
BBX 15 27 2 0
BITMAP
3018
3018
3838
1830
1FF0
07C0
0000
0000
0000
07C0
1FF0
3EF8
781C
701C
E00C
E00C
E00E
FFFE
FFFC
E000
E000
E000
7000
7800
3F78
1FF8
07E0
ENDCHAR
STARTCHAR 04D8
ENCODING 1240
SWIDTH 664 0
DWIDTH 24 0
BBX 20 24 2 0
BITMAP
01F800
0FFF00
1FFF80
1C03C0
0001C0
0000E0
0000E0
0000E0
000070
000070
000070
FFFFF0
FFFFF0
E00070
E00070
E00070
7000E0
7000E0
7801E0
3801C0
3C0780
1FFF00
07FE00
01F800
ENDCHAR
STARTCHAR 04D9
ENCODING 1241
SWIDTH 498 0
DWIDTH 18 0
BBX 15 18 1 0
BITMAP
0FC0
3FF0
3CF8
203C
001C
000E
000E
000E
FFFE
FFFE
E00E
E00E
600E
701C
781C
3EF8
1FF0
07C0
ENDCHAR
STARTCHAR 04E2
ENCODING 1250
SWIDTH 664 0
DWIDTH 24 0
BBX 17 29 3 0
BITMAP
0FFC00
0FFC00
000000
000000
000000
E00380
E00780
E00780
E00F80
E00D80
E01D80
E01980
E03980
E07180
E07180
E0E380
E0E380
E1C380
E38380
E38380
E70380
E70380
EE0380
EE0380
FC0380
F80380
F80380
F00380
F00380
ENDCHAR
STARTCHAR 04E3
ENCODING 1251
SWIDTH 553 0
DWIDTH 20 0
BBX 14 24 3 0
BITMAP
3FF0
3FF0
0000
0000
0000
0000
E01C
E01C
E03C
E07C
E06C
E0EC
E1CC
E18C
E38C
E70C
E70C
EE0C
EC0C
FC0C
F80C
F00C
F00C
E00C
ENDCHAR
STARTCHAR 04E6
ENCODING 1254
SWIDTH 664 0
DWIDTH 24 0
BBX 20 29 2 0
BITMAP
070E00
070E00
070E00
000400
000000
01F800
07FE00
1FFF80
3E07C0
3803C0
7801E0
7000E0
F000F0
E00070
E00070
E00070
E00070
E00070
E00070
E00070
E00070
7000F0
7000E0
7801E0
3C01C0
1E0780
1FFF80
07FE00
01F800
ENDCHAR
STARTCHAR 04E7
ENCODING 1255
SWIDTH 553 0
DWIDTH 20 0
BBX 16 25 2 0
BITMAP
1C38
1C38
1C38
0810
0000
0000
0000
07E0
1FF0
3FFC
781C
700E
E00E
E00F
E007
E007
E007
E007
E007
E00E
700E
781C
3FFC
1FF0
07C0
ENDCHAR
STARTCHAR 04E8
ENCODING 1256
SWIDTH 664 0
DWIDTH 24 0
BBX 20 24 2 0
BITMAP
01F800
07FF00
1FFF80
3C03C0
3801C0
7000E0
7000E0
E00070
E00070
E00070
FFFFF0
FFFFF0
E00070
E00070
E00070
E00070
7000F0
7000E0
7800E0
3801C0
3E03C0
1FFF80
07FE00
01F800
ENDCHAR
STARTCHAR 04E9
ENCODING 1257
SWIDTH 553 0
DWIDTH 20 0
BBX 16 18 2 0
BITMAP
07E0
1FF8
3E7C
781C
700E
E00E
E007
E007
FFFF
FFFF
E007
E007
E006
700E
781E
3E7C
1FF8
07E0
ENDCHAR
STARTCHAR 04EE
ENCODING 1262
SWIDTH 526 0
DWIDTH 19 0
BBX 18 29 0 0
BITMAP
0FFC00
0FFC00
000000
000000
000000
F001C0
7001C0
7001C0
380380
380380
1C0700
1C0700
0E0700
0E0E00
0E0E00
071C00
071C00
039C00
03B800
01B800
01F000
00F000
00E000
00E000
00E000
01C000
1FC000
1F8000
1E0000
ENDCHAR
STARTCHAR 04EF
ENCODING 1263
SWIDTH 470 0
DWIDTH 17 0
BBX 15 32 1 -8
BITMAP
1FF8
1FF8
0000
0000
0000
0000
E00E
E00E
E00E
701C
701C
301C
3818
3838
1C38
1C30
1C70
0E70
0E60
06E0
07E0
07C0
03C0
03C0
0380
0380
0380
0700
0700
7E00
FC00
F800
ENDCHAR
STARTCHAR 04F2
ENCODING 1266
SWIDTH 526 0
DWIDTH 19 0
BBX 18 32 0 0
BITMAP
00C200
00C300
01C600
018E00
030C00
021800
000000
000000
F001C0
7001C0
7003C0
380380
380380
1C0700
1C0700
0E0600
0E0E00
0E0E00
071C00
071C00
039800
03B800
01B800
01F000
00F000
00E000
00E000
00E000
01C000
1FC000
1F8000
1E0000
ENDCHAR
STARTCHAR 04F3
ENCODING 1267
SWIDTH 470 0
DWIDTH 17 0
BBX 15 35 1 -8
BITMAP
0104
018E
038C
0318
0618
0630
0430
0000
0000
0000
E00E
E00E
E00E
701C
701C
3818
3838
3838
1C30
1C70
0C70
0E60
0E60
06E0
07C0
03C0
03C0
0380
0380
0380
0700
0700
7E00
FC00
F800
ENDCHAR
STARTCHAR 1D43
ENCODING 7491
SWIDTH 332 0
DWIDTH 12 0
BBX 10 12 1 14
BITMAP
1F00
7F80
6180
01C0
01C0
1FC0
70C0
60C0
E0C0
E1C0
7EC0
3CC0
ENDCHAR
STARTCHAR 1D47
ENCODING 7495
SWIDTH 387 0
DWIDTH 14 0
BBX 10 17 2 14
BITMAP
C000
C000
C000
C000
C000
CF00
FF80
E1C0
C0C0
C0C0
C0C0
C0C0
C0C0
C1C0
E180
FF80
DE00
ENDCHAR
STARTCHAR 1D48
ENCODING 7496
SWIDTH 387 0
DWIDTH 14 0
BBX 11 17 1 14
BITMAP
00E0
00E0
00E0
00E0
00E0
1EE0
3FE0
70E0
60E0
E0E0
E0E0
E0E0
E0E0
60E0
71E0
3F60
1E60
ENDCHAR
STARTCHAR 1D49
ENCODING 7497
SWIDTH 332 0
DWIDTH 12 0
BBX 10 12 1 14
BITMAP
1F00
3F80
61C0
E0C0
C0C0
FFC0
C000
C000
E000
7000
3FC0
1F00
ENDCHAR
STARTCHAR 1D4D
ENCODING 7501
SWIDTH 332 0
DWIDTH 12 0
BBX 11 17 1 9
BITMAP
3FE0
7FE0
6180
E180
E180
6180
7F80
3E00
6000
6000
7FC0
7FE0
C060
C060
C0E0
7FC0
3F00
ENDCHAR
STARTCHAR 1D4F
ENCODING 7503
SWIDTH 332 0
DWIDTH 12 0
BBX 10 17 2 14
BITMAP
C000
C000
C000
C000
C000
C180
C300
C700
CE00
DC00
DC00
FC00
E600
C700
C300
C180
C1C0
ENDCHAR
STARTCHAR 1D50
ENCODING 7504
SWIDTH 553 0
DWIDTH 20 0
BBX 16 12 2 14
BITMAP
CF1E
FFBF
E3C3
C183
C183
C183
C183
C183
C183
C183
C183
C183
ENDCHAR
STARTCHAR 1D52
ENCODING 7506
SWIDTH 360 0
DWIDTH 13 0
BBX 11 12 1 14
BITMAP
1F00
3F80
71C0
60E0
E060
C060
C060
E060
E0E0
70C0
3F80
1F00
ENDCHAR
STARTCHAR 1D56
ENCODING 7510
SWIDTH 387 0
DWIDTH 14 0
BBX 10 17 2 9
BITMAP
CF00
FF80
E1C0
C0C0
C0C0
C0C0
C0C0
C0C0
C1C0
E180
FF80
DE00
C000
C000
C000
C000
C000
ENDCHAR
STARTCHAR 1D57
ENCODING 7511
SWIDTH 221 0
DWIDTH 8 0
BBX 7 15 1 14
BITMAP
30
30
70
FE
FE
70
70
70
70
70
70
70
70
3E
1E
ENDCHAR
STARTCHAR 1D58
ENCODING 7512
SWIDTH 360 0
DWIDTH 13 0
BBX 10 12 2 14
BITMAP
C1C0
C1C0
C1C0
C1C0
C1C0
C1C0
C1C0
C1C0
C1C0
E3C0
FEC0
78C0
ENDCHAR
STARTCHAR 1D5B
ENCODING 7515
SWIDTH 332 0
DWIDTH 12 0
BBX 11 12 0 14
BITMAP
E060
6060
60C0
70C0
30C0
3180
1980
1980
1B00
0F00
0F00
0E00
ENDCHAR
STARTCHAR 1D9C
ENCODING 7580
SWIDTH 304 0
DWIDTH 11 0
BBX 9 12 1 14
BITMAP
1F00
3F80
7000
6000
E000
C000
C000
E000
E000
7080
3F80
1F00
ENDCHAR
STARTCHAR 1DA0
ENCODING 7584
SWIDTH 193 0
DWIDTH 7 0
BBX 7 18 1 14
BITMAP
1E
3E
30
70
70
70
FC
FC
70
70
70
70
70
70
70
70
70
70
ENDCHAR
STARTCHAR 1DBB
ENCODING 7611
SWIDTH 276 0
DWIDTH 10 0
BBX 9 12 1 14
BITMAP
FF80
FF00
0700
0600
0C00
1C00
1800
3000
7000
6000
FF80
FF80
ENDCHAR
STARTCHAR 1E06
ENCODING 7686
SWIDTH 581 0
DWIDTH 21 0
BBX 17 30 3 -6
BITMAP
FFE000
FFF800
E0FC00
E01E00
E00E00
E00E00
E00E00
E00E00
E00E00
E03C00
FFF800
FFFC00
E07E00
E00F00
E00700
E00380
E00380
E00380
E00380
E00700
E00F00
E07E00
FFFC00
FFF000
000000
000000
000000
000000
1FF800
1FF800
ENDCHAR
STARTCHAR 1E07
ENCODING 7687
SWIDTH 553 0
DWIDTH 20 0
BBX 15 32 3 -6
BITMAP
E000
E000
E000
E000
E000
E000
E000
E000
E3E0
EFF8
FFFC
F83C
E01E
E00E
E00E
E00E
E00E
E00E
E00E
E00E
E00E
E01C
F03C
FFF8
EFF0
C7C0
0000
0000
0000
0000
3FF0
3FF0
ENDCHAR
STARTCHAR 1E0C
ENCODING 7692
SWIDTH 609 0
DWIDTH 22 0
BBX 17 32 3 -8
BITMAP
FFC000
FFF800
E3FC00
E03E00
E00F00
E00700
E00780
E00380
E00380
E00380
E00380
E00380
E00380
E00380
E00380
E00380
E00380
E00700
E00700
E00F00
E03E00
E1FC00
FFF000
FFC000
000000
000000
000000
000000
018000
03C000
03C000
018000
ENDCHAR
STARTCHAR 1E0D
ENCODING 7693
SWIDTH 553 0
DWIDTH 20 0
BBX 15 34 2 -8
BITMAP
000E
000E
000E
000E
000E
000E
000E
000E
07CE
1FFE
3FFE
781E
700E
F00E
E00E
E00E
E00E
E00E
E00E
E00E
E00E
F00E
781E
3FFE
3FEE
0F86
0000
0000
0000
0000
00C0
01E0
01E0
00C0
ENDCHAR
STARTCHAR 1E0E
ENCODING 7694
SWIDTH 609 0
DWIDTH 22 0
BBX 17 30 3 -6
BITMAP
FFC000
FFF800
E3FC00
E03E00
E00F00
E00700
E00780
E00380
E00380
E00380
E00380
E00380
E00380
E00380
E00380
E00380
E00380
E00700
E00700
E00F00
E03E00
E1FC00
FFF000
FFC000
000000
000000
000000
000000
1FF800
1FF800
ENDCHAR
STARTCHAR 1E0F
ENCODING 7695
SWIDTH 553 0
DWIDTH 20 0
BBX 15 32 2 -6
BITMAP
000E
000E
000E
000E
000E
000E
000E
000E
07CE
1FFE
3FFE
781E
700E
F00E
E00E
E00E
E00E
E00E
E00E
E00E
E00E
F00E
781E
3FFE
3FEE
0F86
0000
0000
0000
0000
0FFC
0FFC
ENDCHAR
STARTCHAR 1E16
ENCODING 7702
SWIDTH 526 0
DWIDTH 19 0
BBX 14 35 3 0
BITMAP
0040
00E0
03C0
0700
0200
0000
3FF0
3FF0
0000
0000
0000
FFFC
FFFC
FFFC
E000
E000
E000
E000
E000
E000
E000
FFF0
FFF0
FFF0
E000
E000
E000
E000
E000
E000
E000
E000
FFFC
FFFC
FFFC
ENDCHAR
STARTCHAR 1E17
ENCODING 7703
SWIDTH 498 0
DWIDTH 18 0
BBX 15 30 2 1
BITMAP
00E0
01E0
0380
0300
0000
0000
1FF0
1FF0
0000
0000
0000
0000
07C0
1FF0
3EF8
781C
701C
E00C
E00C
E00E
FFFE
FFFC
E000
E000
E000
7000
7800
3F78
1FF8
07E0
ENDCHAR
STARTCHAR 1E20
ENCODING 7712
SWIDTH 609 0
DWIDTH 22 0
BBX 18 28 2 0
BITMAP
03FF00
03FF00
000000
000000
01FC00
07FF00
0FFF80
1E0380
3C0000
780000
700000
700000
E00000
E00000
E00000
E00000
E03FC0
E03FC0
E001C0
E001C0
7001C0
7001C0
7801C0
3C01C0
1E03C0
0FFFC0
07FF00
01FC00
ENDCHAR
STARTCHAR 1E21
ENCODING 7713
SWIDTH 498 0
DWIDTH 18 0
BBX 16 32 2 -8
BITMAP
1FF0
1FF0
0000
0000
0000
0000
0FFE
3FFE
78F0
7038
6038
E018
E018
E038
7038
7870
3FE0
37C0
6000
6000
6000
7C00
3FFC
3FFE
600F
E007
C007
C006
E00E
F03C
7FF8
1FE0
ENDCHAR
STARTCHAR 1E24
ENCODING 7716
SWIDTH 664 0
DWIDTH 24 0
BBX 17 32 3 -8
BITMAP
E00380
E00380
E00380
E00380
E00380
E00380
E00380
E00380
E00380
E00380
FFFF80
FFFF80
FFFF80
E00380
E00380
E00380
E00380
E00380
E00380
E00380
E00380
E00380
E00380
E00380
000000
000000
000000
000000
00C000
01E000
01E000
01C000
ENDCHAR
STARTCHAR 1E25
ENCODING 7717
SWIDTH 553 0
DWIDTH 20 0
BBX 14 34 3 -8
BITMAP
E000
E000
E000
E000
E000
E000
E000
E000
E3E0
EFF8
FFF8
F83C
F01C
E01C
E01C
E01C
E01C
E01C
E01C
E01C
E01C
E01C
E01C
E01C
E01C
E01C
0000
0000
0000
0000
0300
0780
0780
0380
ENDCHAR
STARTCHAR 1E2A
ENCODING 7722
SWIDTH 664 0
DWIDTH 24 0
BBX 17 32 3 -8
BITMAP
E00380
E00380
E00380
E00380
E00380
E00380
E00380
E00380
E00380
E00380
FFFF80
FFFF80
FFFF80
E00380
E00380
E00380
E00380
E00380
E00380
E00380
E00380
E00380
E00380
E00380
000000
000000
000000
180C00
1C0C00
0E1C00
07F800
03E000
ENDCHAR
STARTCHAR 1E2B
ENCODING 7723
SWIDTH 553 0
DWIDTH 20 0
BBX 14 34 3 -8
BITMAP
E000
E000
E000
E000
E000
E000
E000
E000
E3E0
EFF8
FFF8
F83C
F01C
E01C
E01C
E01C
E01C
E01C
E01C
E01C
E01C
E01C
E01C
E01C
E01C
E01C
0000
0000
1000
3018
3038
3870
1FE0
07C0
ENDCHAR
STARTCHAR 1E32
ENCODING 7730
SWIDTH 581 0
DWIDTH 21 0
BBX 17 32 3 -8
BITMAP
E00700
E00E00
E01E00
E03C00
E03800
E07000
E0E000
E1E000
E3C000
E78000
E7C000
EFE000
FEE000
FCF000
F87000
F03800
E03800
E01C00
E01E00
E00E00
E00F00
E00700
E00380
E00380
000000
000000
000000
000000
00C000
01E000
01E000
01C000
ENDCHAR
STARTCHAR 1E33
ENCODING 7731
SWIDTH 498 0
DWIDTH 18 0
BBX 14 34 3 -8
BITMAP
E000
E000
E000
E000
E000
E000
E000
E000
E038
E078
E0F0
E0E0
E1C0
E380
E700
E700
EF80
FF80
F9C0
F1E0
F0E0
E070
E070
E038
E03C
E01C
0000
0000
0000
0000
0300
0780
0780
0700
ENDCHAR
STARTCHAR 1E34
ENCODING 7732
SWIDTH 581 0
DWIDTH 21 0
BBX 17 30 3 -6
BITMAP
E00700
E00E00
E01E00
E03C00
E03800
E07000
E0E000
E1E000
E3C000
E78000
E7C000
EFE000
FEE000
FCF000
F87000
F03800
E03800
E01C00
E01E00
E00E00
E00F00
E00700
E00380
E00380
000000
000000
000000
000000
0FFC00
0FFC00
ENDCHAR
STARTCHAR 1E35
ENCODING 7733
SWIDTH 498 0
DWIDTH 18 0
BBX 14 32 3 -6
BITMAP
E000
E000
E000
E000
E000
E000
E000
E000
E038
E078
E0F0
E0E0
E1C0
E380
E700
E700
EF80
FF80
F9C0
F1E0
F0E0
E070
E070
E038
E03C
E01C
0000
0000
0000
0000
3FF0
3FF0
ENDCHAR
STARTCHAR 1E36
ENCODING 7734
SWIDTH 498 0
DWIDTH 18 0
BBX 14 32 3 -8
BITMAP
E000
E000
E000
E000
E000
E000
E000
E000
E000
E000
E000
E000
E000
E000
E000
E000
E000
E000
E000
E000
E000
FFFC
FFFC
FFFC
0000
0000
0000
0000
0380
0380
0780
0380
ENDCHAR
STARTCHAR 1E37
ENCODING 7735
SWIDTH 249 0
DWIDTH 9 0
BBX 5 34 3 -8
BITMAP
E0
E0
E0
E0
E0
E0
E0
E0
E0
E0
E0
E0
E0
E0
E0
E0
E0
E0
E0
E0
E0
E0
E0
F0
F8
78
00
00
00
00
30
78
78
70
ENDCHAR
STARTCHAR 1E38
ENCODING 7736
SWIDTH 498 0
DWIDTH 18 0
BBX 17 37 0 -8
BITMAP
FFC000
FFC000
000000
000000
000000
1C0000
1C0000
1C0000
1C0000
1C0000
1C0000
1C0000
1C0000
1C0000
1C0000
1C0000
1C0000
1C0000
1C0000
1C0000
1C0000
1C0000
1C0000
1C0000
1C0000
1C0000
1FFF80
1FFF80
1FFF80
000000
000000
000000
000000
007000
007000
00F000
007000
ENDCHAR
STARTCHAR 1E39
ENCODING 7737
SWIDTH 249 0
DWIDTH 9 0
BBX 9 40 0 -8
BITMAP
FF80
FF80
0000
0000
0000
0000
1C00
1C00
1C00
1C00
1C00
1C00
1C00
1C00
1C00
1C00
1C00
1C00
1C00
1C00
1C00
1C00
1C00
1C00
1C00
1C00
1C00
1C00
1C00
1E00
1F00
0F00
0000
0000
0000
0000
0600
0F00
0F00
0E00
ENDCHAR
STARTCHAR 1E3A
ENCODING 7738
SWIDTH 498 0
DWIDTH 18 0
BBX 14 30 3 -6
BITMAP
E000
E000
E000
E000
E000
E000
E000
E000
E000
E000
E000
E000
E000
E000
E000
E000
E000
E000
E000
E000
E000
FFFC
FFFC
FFFC
0000
0000
0000
0000
1FF0
1FF0
ENDCHAR
STARTCHAR 1E3B
ENCODING 7739
SWIDTH 249 0
DWIDTH 9 0
BBX 10 32 1 -6
BITMAP
3800
3800
3800
3800
3800
3800
3800
3800
3800
3800
3800
3800
3800
3800
3800
3800
3800
3800
3800
3800
3800
3800
3800
3C00
3E00
1E00
0000
0000
0000
0000
FFC0
FFC0
ENDCHAR
STARTCHAR 1E3E
ENCODING 7742
SWIDTH 720 0
DWIDTH 26 0
BBX 20 31 3 1
BITMAP
000C00
001E00
003800
007000
006000
004000
000000
F000F0
F000F0
F801F0
F801F0
F801B0
FC03F0
EC0370
EE0370
EE0770
E60670
E70670
E70E70
E30C70
E38C70
E39C70
E19870
E1D870
E0F870
E0F070
E0F070
E07070
E06070
E00070
E00070
ENDCHAR
STARTCHAR 1E3F
ENCODING 7743
SWIDTH 830 0
DWIDTH 30 0
BBX 24 28 3 1
BITMAP
000300
000780
000700
000E00
001C00
003800
001000
000000
000000
000000
C3E078
EFF1FE
FFFBFE
F83E0F
F03C07
E03C07
E01C07
E01C07
E01C07
E01C07
E01C07
E01C07
E01C07
E01C07
E01C07
E01C07
E01C07
E01C07
ENDCHAR
STARTCHAR 1E40
ENCODING 7744
SWIDTH 720 0
DWIDTH 26 0
BBX 20 30 3 0
BITMAP
007000
00F000
00F000
006000
000000
000000
F000F0
F000F0
F801F0
F801F0
F801B0
FC03F0
EC0370
EE0370
EE0770
E60670
E70670
E70E70
E30C70
E38C70
E39C70
E19870
E1D870
E0F870
E0F070
E0F070
E07070
E06070
E00070
E00070
ENDCHAR
STARTCHAR 1E41
ENCODING 7745
SWIDTH 830 0
DWIDTH 30 0
BBX 24 25 3 0
BITMAP
001800
003C00
003C00
001800
000000
000000
000000
C3E078
EFF1FE
FFFBFE
F83E0F
F03C07
E03C07
E01C07
E01C07
E01C07
E01C07
E01C07
E01C07
E01C07
E01C07
E01C07
E01C07
E01C07
E01C07
ENDCHAR
STARTCHAR 1E42
ENCODING 7746
SWIDTH 720 0
DWIDTH 26 0
BBX 20 32 3 -8
BITMAP
F000F0
F000F0
F801F0
F801F0
F801B0
FC03F0
EC0370
EE0370
EE0770
E60670
E70670
E70E70
E30C70
E38C70
E39C70
E19870
E1D870
E0F870
E0F070
E0F070
E07070
E06070
E00070
E00070
000000
000000
000000
000000
006000
00F000
00F000
007000
ENDCHAR
STARTCHAR 1E43
ENCODING 7747
SWIDTH 830 0
DWIDTH 30 0
BBX 24 26 3 -8
BITMAP
C3E078
EFF1FE
FFFBFE
F83E0F
F03C07
E03C07
E01C07
E01C07
E01C07
E01C07
E01C07
E01C07
E01C07
E01C07
E01C07
E01C07
E01C07
E01C07
000000
000000
000000
000000
001C00
001C00
003C00
001C00
ENDCHAR
STARTCHAR 1E44
ENCODING 7748
SWIDTH 636 0
DWIDTH 23 0
BBX 17 30 3 0
BITMAP
01C000
01E000
01E000
00C000
000000
000000
F00380
F00380
F80380
F80380
FC0380
EC0380
EE0380
E70380
E70380
E38380
E38380
E1C380
E1C380
E0E380
E07380
E07380
E03B80
E03B80
E01D80
E01D80
E00F80
E00780
E00780
E00380
ENDCHAR
STARTCHAR 1E45
ENCODING 7749
SWIDTH 553 0
DWIDTH 20 0
BBX 14 25 3 0
BITMAP
0380
0380
0380
0380
0000
0000
0000
C3E0
E7F8
FFF8
F83C
F01C
E01C
E01C
E01C
E01C
E01C
E01C
E01C
E01C
E01C
E01C
E01C
E01C
E01C
ENDCHAR
STARTCHAR 1E46
ENCODING 7750
SWIDTH 636 0
DWIDTH 23 0
BBX 17 32 3 -8
BITMAP
F00380
F00380
F80380
F80380
FC0380
EC0380
EE0380
E70380
E70380
E38380
E38380
E1C380
E1C380
E0E380
E07380
E07380
E03B80
E03B80
E01D80
E01D80
E00F80
E00780
E00780
E00380
000000
000000
000000
000000
00C000
01E000
01E000
01C000
ENDCHAR
STARTCHAR 1E47
ENCODING 7751
SWIDTH 553 0
DWIDTH 20 0
BBX 14 26 3 -8
BITMAP
C3E0
E7F8
FFF8
F83C
F01C
E01C
E01C
E01C
E01C
E01C
E01C
E01C
E01C
E01C
E01C
E01C
E01C
E01C
0000
0000
0000
0000
0300
0780
0780
0300
ENDCHAR
STARTCHAR 1E48
ENCODING 7752
SWIDTH 636 0
DWIDTH 23 0
BBX 17 30 3 -6
BITMAP
F00380
F00380
F80380
F80380
FC0380
EC0380
EE0380
E70380
E70380
E38380
E38380
E1C380
E1C380
E0E380
E07380
E07380
E03B80
E03B80
E01D80
E01D80
E00F80
E00780
E00780
E00380
000000
000000
000000
000000
0FFC00
0FFC00
ENDCHAR
STARTCHAR 1E49
ENCODING 7753
SWIDTH 553 0
DWIDTH 20 0
BBX 14 24 3 -6
BITMAP
C3E0
E7F8
FFF8
F83C
F01C
E01C
E01C
E01C
E01C
E01C
E01C
E01C
E01C
E01C
E01C
E01C
E01C
E01C
0000
0000
0000
0000
3FF0
3FF0
ENDCHAR
STARTCHAR 1E52
ENCODING 7762
SWIDTH 664 0
DWIDTH 24 0
BBX 20 34 2 0
BITMAP
000800
003C00
007000
00E000
004000
000000
07FE00
07FE00
000000
000000
01F800
07FE00
1FFF80
3E07C0
3803C0
7801E0
7000E0
F000F0
E00070
E00070
E00070
E00070
E00070
E00070
E00070
E00070
7000F0
7000E0
7801E0
3C01C0
1E0780
1FFF80
07FE00
01F800
ENDCHAR
STARTCHAR 1E53
ENCODING 7763
SWIDTH 553 0
DWIDTH 20 0
BBX 16 30 2 1
BITMAP
0060
01E0
0380
0300
0000
0000
1FF8
1FF8
0000
0000
0000
0000
07E0
1FF0
3FFC
781C
700E
E00E
E00F
E007
E007
E007
E007
E007
E00E
700E
781C
3FFC
1FF0
07C0
ENDCHAR
STARTCHAR 1E58
ENCODING 7768
SWIDTH 581 0
DWIDTH 21 0
BBX 16 30 3 0
BITMAP
0380
0780
0780
0380
0000
0000
FFF0
FFFC
E0FE
E00E
E00F
E007
E007
E007
E007
E00F
E01E
E0FC
FFF8
FFE0
E0E0
E0F0
E070
E038
E038
E01C
E01E
E00E
E00F
E007
ENDCHAR
STARTCHAR 1E59
ENCODING 7769
SWIDTH 360 0
DWIDTH 13 0
BBX 10 25 3 0
BITMAP
0C00
1E00
1E00
0C00
0000
0000
0000
C3C0
EF80
EF80
F800
F000
F000
E000
E000
E000
E000
E000
E000
E000
E000
E000
E000
E000
E000
ENDCHAR
STARTCHAR 1E5A
ENCODING 7770
SWIDTH 581 0
DWIDTH 21 0
BBX 16 32 3 -8
BITMAP
FFF0
FFFC
E0FE
E00E
E00F
E007
E007
E007
E007
E00F
E01E
E0FC
FFF8
FFE0
E0E0
E0F0
E070
E038
E038
E01C
E01E
E00E
E00F
E007
0000
0000
0000
0000
0180
03C0
03C0
0180
ENDCHAR
STARTCHAR 1E5B
ENCODING 7771
SWIDTH 360 0
DWIDTH 13 0
BBX 11 26 2 -8
BITMAP
61E0
77C0
77C0
7C00
7800
7800
7000
7000
7000
7000
7000
7000
7000
7000
7000
7000
7000
7000
0000
0000
0000
0000
7000
7000
F000
7000
ENDCHAR
STARTCHAR 1E5C
ENCODING 7772
SWIDTH 581 0
DWIDTH 21 0
BBX 16 37 3 -8
BITMAP
1FF0
1FF0
0000
0000
0000
FFF0
FFFC
E0FE
E00E
E00F
E007
E007
E007
E007
E00F
E01E
E0FC
FFF8
FFE0
E0E0
E0F0
E070
E038
E038
E01C
E01E
E00E
E00F
E007
0000
0000
0000
0000
0180
03C0
03C0
0180
ENDCHAR
STARTCHAR 1E5D
ENCODING 7773
SWIDTH 360 0
DWIDTH 13 0
BBX 11 32 2 -8
BITMAP
7FE0
7FE0
0000
0000
0000
0000
61E0
77C0
77C0
7C00
7800
7800
7000
7000
7000
7000
7000
7000
7000
7000
7000
7000
7000
7000
0000
0000
0000
0000
7000
7000
F000
7000
ENDCHAR
STARTCHAR 1E5E
ENCODING 7774
SWIDTH 581 0
DWIDTH 21 0
BBX 16 30 3 -6
BITMAP
FFF0
FFFC
E0FE
E00E
E00F
E007
E007
E007
E007
E00F
E01E
E0FC
FFF8
FFE0
E0E0
E0F0
E070
E038
E038
E01C
E01E
E00E
E00F
E007
0000
0000
0000
0000
1FF8
1FF8
ENDCHAR
STARTCHAR 1E5F
ENCODING 7775
SWIDTH 360 0
DWIDTH 13 0
BBX 13 24 0 -6
BITMAP
1878
1DF0
1DF0
1F00
1E00
1E00
1C00
1C00
1C00
1C00
1C00
1C00
1C00
1C00
1C00
1C00
1C00
1C00
0000
0000
0000
0000
FF80
FF80
ENDCHAR
STARTCHAR 1E60
ENCODING 7776
SWIDTH 526 0
DWIDTH 19 0
BBX 16 30 2 0
BITMAP
0180
03C0
03C0
0180
0000
0000
07E0
1FF8
3FFE
780E
7004
7000
7000
7000
7800
3E00
1F80
0FF0
03F8
007E
001E
000F
0007
0007
0007
E00E
F01E
7FFC
3FF8
0FE0
ENDCHAR
STARTCHAR 1E61
ENCODING 7777
SWIDTH 415 0
DWIDTH 15 0
BBX 13 25 1 0
BITMAP
0300
0780
0780
0300
0000
0000
0000
0FC0
3FF0
3CF0
7020
7000
7000
7800
3E00
1FC0
07E0
00F0
0078
0038
0038
6038
F8F0
7FE0
1F80
ENDCHAR
STARTCHAR 1E62
ENCODING 7778
SWIDTH 526 0
DWIDTH 19 0
BBX 16 32 2 -8
BITMAP
07E0
1FF8
3FFE
780E
7004
7000
7000
7000
7800
3E00
1F80
0FF0
03F8
007E
001E
000F
0007
0007
0007
E00E
F01E
7FFC
3FF8
0FE0
0000
0000
0000
0000
0180
03C0
03C0
0180
ENDCHAR
STARTCHAR 1E63
ENCODING 7779
SWIDTH 415 0
DWIDTH 15 0
BBX 13 26 1 -8
BITMAP
0FC0
3FF0
3CF0
7020
7000
7000
7800
3E00
1FC0
07E0
00F0
0078
0038
0038
6038
F8F0
7FE0
1F80
0000
0000
0000
0000
0300
0780
0780
0300
ENDCHAR
STARTCHAR 1E6C
ENCODING 7788
SWIDTH 526 0
DWIDTH 19 0
BBX 17 32 1 -8
BITMAP
FFFF80
FFFF80
FFFF80
01C000
01C000
01C000
01C000
01C000
01C000
01C000
01C000
01C000
01C000
01C000
01C000
01C000
01C000
01C000
01C000
01C000
01C000
01C000
01C000
01C000
000000
000000
000000
000000
00C000
01E000
01E000
01C000
ENDCHAR
STARTCHAR 1E6D
ENCODING 7789
SWIDTH 332 0
DWIDTH 12 0
BBX 11 31 1 -8
BITMAP
1800
1800
1800
1800
1800
FFC0
FFC0
3800
3800
3800
3800
3800
3800
3800
3800
3800
3800
3800
1C00
1C00
1F40
0FE0
07C0
0000
0000
0000
0000
0300
0780
0780
0700
ENDCHAR
STARTCHAR 1E6E
ENCODING 7790
SWIDTH 526 0
DWIDTH 19 0
BBX 17 30 1 -6
BITMAP
FFFF80
FFFF80
FFFF80
01C000
01C000
01C000
01C000
01C000
01C000
01C000
01C000
01C000
01C000
01C000
01C000
01C000
01C000
01C000
01C000
01C000
01C000
01C000
01C000
01C000
000000
000000
000000
000000
0FFC00
0FFC00
ENDCHAR
STARTCHAR 1E6F
ENCODING 7791
SWIDTH 332 0
DWIDTH 12 0
BBX 11 29 1 -6
BITMAP
1800
1800
1800
1800
1800
FFC0
FFC0
3800
3800
3800
3800
3800
3800
3800
3800
3800
3800
3800
1C00
1C00
1F40
0FE0
07C0
0000
0000
0000
0000
3FE0
3FE0
ENDCHAR
STARTCHAR 1E80
ENCODING 7808
SWIDTH 775 0
DWIDTH 28 0
BBX 26 31 1 1
BITMAP
00600000
00F00000
00380000
001E0000
000E0000
00000000
00000000
E00E00C0
E01E01C0
E01E01C0
701F01C0
701F01C0
703B0180
703B0380
70338380
38338380
38738380
38718300
3861C700
3861C700
1C61C700
1CE0C700
1CC0E600
1CC0E600
1CC0EE00
0DC06E00
0FC06E00
0F807C00
0F807C00
07803C00
07803C00
ENDCHAR
STARTCHAR 1E81
ENCODING 7809
SWIDTH 720 0
DWIDTH 26 0
BBX 24 28 1 1
BITMAP
00C000
01E000
00F000
007000
003800
001C00
000800
000000
000000
000000
E03C07
E03C07
703C06
703C0E
707E0E
70660E
38660C
38661C
38E71C
38C31C
1CC318
1CC398
1DC3B8
0D81B8
0D81B0
0F81F0
0F81F0
0700E0
ENDCHAR
STARTCHAR 1E82
ENCODING 7810
SWIDTH 775 0
DWIDTH 28 0
BBX 26 31 1 1
BITMAP
00018000
0003C000
00078000
000E0000
000C0000
00000000
00000000
E00E00C0
E01E01C0
E01E01C0
701F01C0
701F01C0
703B0180
703B0380
70338380
38338380
38738380
38718300
3861C700
3861C700
1C61C700
1CE0C700
1CC0E600
1CC0E600
1CC0EE00
0DC06E00
0FC06E00
0F807C00
0F807C00
07803C00
07803C00
ENDCHAR
STARTCHAR 1E83
ENCODING 7811
SWIDTH 720 0
DWIDTH 26 0
BBX 24 28 1 1
BITMAP
000300
000780
000F00
000E00
001C00
003800
001000
000000
000000
000000
E03C07
E03C07
703C06
703C0E
707E0E
70660E
38660C
38661C
38E71C
38C31C
1CC318
1CC398
1DC3B8
0D81B8
0D81B0
0F81F0
0F81F0
0700E0
ENDCHAR
STARTCHAR 1E84
ENCODING 7812
SWIDTH 775 0
DWIDTH 28 0
BBX 26 30 1 0
BITMAP
00400000
00E1E000
00E1E000
00E0C000
00000000
00000000
E00E00C0
E01E01C0
E01E01C0
701F01C0
701F01C0
703B0180
703B0380
70338380
38338380
38738380
38718300
3861C700
3861C700
1C61C700
1CE0C700
1CC0E600
1CC0E600
1CC0EE00
0DC06E00
0FC06E00
0F807C00
0F807C00
07803C00
07803C00
ENDCHAR
STARTCHAR 1E85
ENCODING 7813
SWIDTH 720 0
DWIDTH 26 0
BBX 24 25 1 0
BITMAP
01C380
01C380
01C380
008100
000000
000000
000000
E03C07
E03C07
703C06
703C0E
707E0E
70660E
38660C
38661C
38E71C
38C31C
1CC318
1CC398
1DC3B8
0D81B8
0D81B0
0F81F0
0F81F0
0700E0
ENDCHAR
STARTCHAR 1E8E
ENCODING 7822
SWIDTH 470 0
DWIDTH 17 0
BBX 17 30 0 0
BITMAP
01C000
01E000
01E000
01C000
000000
000000
E00380
700700
700700
380700
380E00
1C0E00
1C1C00
0E1C00
0E3800
063800
077000
077000
03E000
03E000
01C000
01C000
01C000
01C000
01C000
01C000
01C000
01C000
01C000
01C000
ENDCHAR
STARTCHAR 1E8F
ENCODING 7823
SWIDTH 470 0
DWIDTH 17 0
BBX 15 34 1 -8
BITMAP
0180
03C0
03C0
0380
0000
0000
0000
0000
E00E
E00E
E00E
701C
701C
301C
3818
3838
1C38
1C30
1C70
0E70
0E60
06E0
07E0
07C0
03C0
03C0
0380
0380
0380
0700
0700
7E00
FC00
F800
ENDCHAR
STARTCHAR 1E92
ENCODING 7826
SWIDTH 526 0
DWIDTH 19 0
BBX 16 32 2 -8
BITMAP
7FFF
7FFF
7FFE
001E
001C
0038
0038
0070
00F0
00E0
01C0
03C0
0380
0700
0F00
0E00
1C00
1C00
3800
7800
7000
FFFF
FFFF
FFFF
0000
0000
0000
0000
0180
03C0
03C0
0180
ENDCHAR
STARTCHAR 1E93
ENCODING 7827
SWIDTH 415 0
DWIDTH 15 0
BBX 13 26 1 -8
BITMAP
7FF8
7FF8
0078
0070
00E0
01E0
01C0
0380
0780
0700
0E00
1E00
1C00
3800
7800
7000
FFF8
FFF8
0000
0000
0000
0000
0300
0780
0780
0380
ENDCHAR
STARTCHAR 1E94
ENCODING 7828
SWIDTH 526 0
DWIDTH 19 0
BBX 16 30 2 -6
BITMAP
7FFF
7FFF
7FFE
001E
001C
0038
0038
0070
00F0
00E0
01C0
03C0
0380
0700
0F00
0E00
1C00
1C00
3800
7800
7000
FFFF
FFFF
FFFF
0000
0000
0000
0000
1FF8
1FF8
ENDCHAR
STARTCHAR 1E95
ENCODING 7829
SWIDTH 415 0
DWIDTH 15 0
BBX 13 24 1 -6
BITMAP
7FF8
7FF8
0078
0070
00E0
01E0
01C0
0380
0780
0700
0E00
1E00
1C00
3800
7800
7000
FFF8
FFF8
0000
0000
0000
0000
3FF0
3FF0
ENDCHAR
STARTCHAR 1E96
ENCODING 7830
SWIDTH 553 0
DWIDTH 20 0
BBX 14 32 3 -6
BITMAP
E000
E000
E000
E000
E000
E000
E000
E000
E3E0
EFF8
FFF8
F83C
F01C
E01C
E01C
E01C
E01C
E01C
E01C
E01C
E01C
E01C
E01C
E01C
E01C
E01C
0000
0000
0000
0000
1FF0
1FF0
ENDCHAR
STARTCHAR 1E97
ENCODING 7831
SWIDTH 332 0
DWIDTH 12 0
BBX 12 30 0 0
BITMAP
E1C0
F1C0
E1C0
4080
0000
0000
0000
0C00
0C00
0C00
0C00
0C00
7FE0
7FE0
1C00
1C00
1C00
1C00
1C00
1C00
1C00
1C00
1C00
1C00
1C00
0E00
0E00
0FA0
07F0
03E0
ENDCHAR
STARTCHAR 1E9E
ENCODING 7838
SWIDTH 664 0
DWIDTH 24 0
BBX 20 24 3 0
BITMAP
03F800
0FFC00
1FFF00
3C0700
780380
700380
700700
F00E00
E01E00
E01C00
E03800
E07E00
E07F80
E00FC0
E003E0
E000E0
E000E0
E000F0
E000E0
E000E0
E181E0
E3FFC0
E0FF80
E03E00
ENDCHAR
STARTCHAR 1EA0
ENCODING 7840
SWIDTH 553 0
DWIDTH 20 0
BBX 19 32 0 -8
BITMAP
00F000
00F000
01F000
01B800
01B800
039800
039C00
031C00
070C00
070E00
060E00
0E0600
0E0700
0C0700
1FFF00
1FFF80
180380
380380
3801C0
3801C0
7001C0
7000E0
7000E0
E000E0
000000
000000
000000
000000
006000
00F000
00F000
00E000
ENDCHAR
STARTCHAR 1EA1
ENCODING 7841
SWIDTH 498 0
DWIDTH 18 0
BBX 14 26 2 -8
BITMAP
0FC0
3FF0
7FF8
6038
0038
001C
001C
01FC
0FFC
3C1C
701C
E01C
E01C
E03C
E07C
F9FC
7F9C
1E1C
0000
0000
0000
0000
0300
0780
0780
0300
ENDCHAR
STARTCHAR 1EA2
ENCODING 7842
SWIDTH 553 0
DWIDTH 20 0
BBX 19 32 0 0
BITMAP
00C000
01F000
003800
003800
003000
00E000
000000
000000
00F000
00F000
01F000
01B800
01B800
039800
039C00
031C00
070C00
070E00
060E00
0E0600
0E0700
0C0700
1FFF00
1FFF80
180380
380380
3801C0
7001C0
7001C0
7000E0
F000E0
E000E0
ENDCHAR
STARTCHAR 1EA3
ENCODING 7843
SWIDTH 498 0
DWIDTH 18 0
BBX 14 27 2 0
BITMAP
0700
07C0
01C0
00C0
00C0
0380
0000
0000
0000
0FC0
3FF0
7FF8
6038
0038
001C
001C
03FC
1FFC
3C1C
701C
E01C
E01C
E03C
E07C
F9FC
7F9C
1E1C
ENDCHAR
STARTCHAR 1EA4
ENCODING 7844
SWIDTH 553 0
DWIDTH 20 0
BBX 19 32 0 0
BITMAP
000080
000180
00E300
01F600
03B800
070C00
000000
000000
00F000
00F000
01F000
01B800
01B800
039800
039C00
031C00
070C00
070E00
060E00
0E0600
0E0700
0C0700
1FFF00
1FFF80
180380
380380
3801C0
3801C0
7001C0
7000E0
7000E0
E000E0
ENDCHAR
STARTCHAR 1EA5
ENCODING 7845
SWIDTH 498 0
DWIDTH 18 0
BBX 16 28 2 0
BITMAP
0002
0007
000E
038C
07C8
0EE0
1830
0000
0000
0000
0FC0
3FF0
7FF8
6038
0038
001C
001C
01FC
0FFC
3C1C
701C
E01C
E01C
E03C
E07C
F9FC
7F9C
1E1C
ENDCHAR
STARTCHAR 1EA6
ENCODING 7846
SWIDTH 553 0
DWIDTH 20 0
BBX 19 32 0 0
BITMAP
100000
180000
0CE000
05F000
03B800
070C00
000000
000000
00F000
00F000
01F000
01B800
01B800
039800
039C00
031C00
070C00
070E00
060E00
0E0600
0E0700
0C0700
1FFF00
1FFF80
180380
380380
3801C0
3801C0
7001C0
7000E0
7000E0
E000E0
ENDCHAR
STARTCHAR 1EA7
ENCODING 7847
SWIDTH 498 0
DWIDTH 18 0
BBX 15 28 1 0
BITMAP
C000
E000
7000
31C0
13E0
0770
0C18
0000
0000
0000
07E0
1FF8
3FFC
301C
001C
000E
000E
00FE
07FE
1E0E
380E
700E
700E
701E
703E
7CFE
3FCE
0F0E
ENDCHAR
STARTCHAR 1EA8
ENCODING 7848
SWIDTH 553 0
DWIDTH 20 0
BBX 19 33 0 0
BITMAP
000700
000780
000180
00E180
01F300
03B800
070C00
000000
000000
00F000
00F000
01F000
01B800
01B800
039800
039C00
031C00
070C00
070E00
060E00
0E0600
0E0700
0C0700
1FFF00
1FFF80
180380
380380
3801C0
7001C0
7001C0
7000E0
F000E0
E000E0
ENDCHAR
STARTCHAR 1EA9
ENCODING 7849
SWIDTH 498 0
DWIDTH 18 0
BBX 15 28 2 0
BITMAP
003C
000E
0006
038E
07DC
0EE0
1830
0000
0000
0000
0FC0
3FF0
7FF8
6038
0038
001C
001C
03FC
1FFC
3C1C
701C
E01C
E01C
E03C
E07C
F9FC
7F9C
1E1C
ENDCHAR
STARTCHAR 1EAA
ENCODING 7850
SWIDTH 553 0
DWIDTH 20 0
BBX 19 34 0 1
BITMAP
038600
07FE00
043C00
000000
00E000
01F000
03B800
070C00
000000
000000
00F000
00F000
01F000
01B800
01B800
039800
039C00
031C00
070C00
070E00
060E00
0E0600
0E0700
0C0700
1FFF00
1FFF80
180380
380380
3801C0
3801C0
7001C0
7000E0
7000E0
E000E0
ENDCHAR
STARTCHAR 1EAB
ENCODING 7851
SWIDTH 498 0
DWIDTH 18 0
BBX 14 29 2 0
BITMAP
0E10
1FF0
10E0
0000
0380
07C0
1EF0
1830
0000
0000
0000
0FC0
3FF0
7FF8
6038
0038
001C
001C
01FC
0FFC
3C1C
701C
E01C
E01C
E03C
E07C
F9FC
7F9C
1E1C
ENDCHAR
STARTCHAR 1EAC
ENCODING 7852
SWIDTH 553 0
DWIDTH 20 0
BBX 19 39 0 -8
BITMAP
00E000
01F000
03B800
070C00
0E0600
000000
000000
00F000
00F000
01F000
01B800
01B800
039800
039C00
031C00
070C00
070E00
060E00
0E0600
0E0700
0C0700
1FFF00
1FFF80
180380
380380
3801C0
3801C0
7001C0
7000E0
7000E0
E000E0
000000
000000
000000
000000
006000
00F000
00F000
00E000
ENDCHAR
STARTCHAR 1EAD
ENCODING 7853
SWIDTH 498 0
DWIDTH 18 0
BBX 14 35 2 -8
BITMAP
0380
07C0
0EE0
1C70
3838
3018
0000
0000
0000
0FC0
3FF0
7FF8
6038
0038
001C
001C
01FC
0FFC
3C1C
701C
E01C
E01C
E03C
E07C
F9FC
7F9C
1E1C
0000
0000
0000
0000
0300
0780
0780
0300
ENDCHAR
STARTCHAR 1EAE
ENCODING 7854
SWIDTH 553 0
DWIDTH 20 0
BBX 19 34 0 1
BITMAP
001C00
003800
007000
0CE600
060600
070C00
03FC00
01F000
000000
000000
00F000
00F000
01F000
01B800
01B800
039800
039C00
031C00
070C00
070E00
060E00
0E0600
0E0700
0C0700
1FFF00
1FFF80
180380
380380
3801C0
3801C0
7001C0
7000E0
7000E0
E000E0
ENDCHAR
STARTCHAR 1EAF
ENCODING 7855
SWIDTH 498 0
DWIDTH 18 0
BBX 14 30 2 0
BITMAP
0040
00E0
01C0
0180
3318
3018
1830
1FF0
07C0
0000
0000
0000
0FC0
3FF0
7FF8
6038
0038
001C
001C
01FC
0FFC
3C1C
701C
E01C
E01C
E03C
E07C
F9FC
7F9C
1E1C
ENDCHAR
STARTCHAR 1EB0
ENCODING 7856
SWIDTH 553 0
DWIDTH 20 0
BBX 19 35 0 0
BITMAP
010000
038000
01C000
00C000
0C6600
060600
070C00
03FC00
01F000
000000
000000
00F000
00F000
01F000
01B800
01B800
039800
039C00
031C00
070C00
070E00
060E00
0E0600
0E0700
0C0700
1FFF00
1FFF80
180380
380380
3801C0
3801C0
7001C0
7000E0
7000E0
E000E0
ENDCHAR
STARTCHAR 1EB1
ENCODING 7857
SWIDTH 498 0
DWIDTH 18 0
BBX 14 30 2 0
BITMAP
0400
0E00
0700
0300
3198
3018
1830
1FF0
07C0
0000
0000
0000
0FC0
3FF0
7FF8
6038
0038
001C
001C
01FC
0FFC
3C1C
701C
E01C
E01C
E03C
E07C
F9FC
7F9C
1E1C
ENDCHAR
STARTCHAR 1EB2
ENCODING 7858
SWIDTH 553 0
DWIDTH 20 0
BBX 19 34 0 1
BITMAP
00F000
003000
003000
047600
064600
060C00
03FC00
01F000
000000
000000
00F000
00F000
01F000
01B800
01B800
039800
039C00
031C00
070C00
070E00
060E00
0E0600
0E0700
0C0700
1FFF00
1FFF80
180380
380380
3801C0
7001C0
7001C0
7000E0
F000E0
E000E0
ENDCHAR
STARTCHAR 1EB3
ENCODING 7859
SWIDTH 498 0
DWIDTH 18 0
BBX 14 31 2 0
BITMAP
0700
07C0
01C0
00C0
11D0
3318
3018
1830
1FE0
07C0
0000
0000
0000
0FC0
3FF0
7FF8
6038
0038
001C
001C
03FC
1FFC
3C1C
701C
E01C
E01C
E03C
E07C
F9FC
7F9C
1E1C
ENDCHAR
STARTCHAR 1EB4
ENCODING 7860
SWIDTH 553 0
DWIDTH 20 0
BBX 19 34 0 0
BITMAP
038600
07FE00
043C00
000000
040600
060E00
03FC00
01F000
000000
000000
00F000
00F000
01F000
01B800
01B800
039800
039C00
031C00
070C00
070E00
060E00
0E0600
0E0700
0C0700
1FFF00
1FFF80
180380
380380
3801C0
3801C0
7001C0
7000E0
7000E0
E000E0
ENDCHAR
STARTCHAR 1EB5
ENCODING 7861
SWIDTH 498 0
DWIDTH 18 0
BBX 14 29 2 0
BITMAP
0E10
1FF0
30E0
0000
3018
1830
1FF0
07C0
0000
0000
0000
0FC0
3FF0
7FF8
6038
0038
001C
001C
01FC
0FFC
3C1C
701C
E01C
E01C
E03C
E07C
F9FC
7F9C
1E1C
ENDCHAR
STARTCHAR 1EB6
ENCODING 7862
SWIDTH 553 0
DWIDTH 20 0
BBX 19 39 0 -8
BITMAP
0C0600
060600
070C00
03FC00
01F000
000000
000000
00F000
00F000
01F000
01B800
01B800
039800
039C00
031C00
070C00
070E00
060E00
0E0600
0E0700
0C0700
1FFF00
1FFF80
180380
380380
3801C0
3801C0
7001C0
7000E0
7000E0
E000E0
000000
000000
000000
000000
006000
00F000
00F000
00E000
ENDCHAR
STARTCHAR 1EB7
ENCODING 7863
SWIDTH 498 0
DWIDTH 18 0
BBX 14 34 2 -8
BITMAP
3018
3018
1C70
1FF0
07C0
0000
0000
0000
0FC0
3FF0
7FF8
6038
0038
001C
001C
01FC
0FFC
3C1C
701C
E01C
E01C
E03C
E07C
F9FC
7F9C
1E1C
0000
0000
0000
0000
0300
0780
0780
0300
ENDCHAR
STARTCHAR 1EB8
ENCODING 7864
SWIDTH 526 0
DWIDTH 19 0
BBX 14 32 3 -8
BITMAP
FFFC
FFFC
FFFC
E000
E000
E000
E000
E000
E000
E000
FFF0
FFF0
FFF0
E000
E000
E000
E000
E000
E000
E000
E000
FFFC
FFFC
FFFC
0000
0000
0000
0000
0180
03C0
03C0
0380
ENDCHAR
STARTCHAR 1EB9
ENCODING 7865
SWIDTH 498 0
DWIDTH 18 0
BBX 15 26 2 -8
BITMAP
07C0
1FF0
3EF8
781C
701C
E00C
E00C
E00E
FFFE
FFFC
E000
E000
E000
7000
7800
3F78
1FF8
07E0
0000
0000
0000
0000
0380
0380
0380
0380
ENDCHAR
STARTCHAR 1EBA
ENCODING 7866
SWIDTH 526 0
DWIDTH 19 0
BBX 14 32 3 0
BITMAP
0600
0780
01C0
00C0
01C0
0380
0000
0000
FFFC
FFFC
FFFC
E000
E000
E000
E000
E000
E000
E000
FFF0
FFF0
FFF0
E000
E000
E000
E000
E000
E000
E000
E000
FFFC
FFFC
FFFC
ENDCHAR
STARTCHAR 1EBB
ENCODING 7867
SWIDTH 498 0
DWIDTH 18 0
BBX 15 27 2 0
BITMAP
0700
07C0
01C0
00C0
00C0
0380
0000
0000
0000
07C0
1FF0
3EF8
781C
701C
E00C
E00C
E00E
FFFE
FFFC
E000
E000
E000
7000
7800
3F78
1FF8
07E0
ENDCHAR
STARTCHAR 1EBC
ENCODING 7868
SWIDTH 526 0
DWIDTH 19 0
BBX 14 31 3 0
BITMAP
1C0C
3F1C
7798
61F8
60F0
0000
0000
FFFC
FFFC
FFFC
E000
E000
E000
E000
E000
E000
E000
FFF0
FFF0
FFF0
E000
E000
E000
E000
E000
E000
E000
E000
FFFC
FFFC
FFFC
ENDCHAR
STARTCHAR 1EBD
ENCODING 7869
SWIDTH 498 0
DWIDTH 18 0
BBX 15 26 2 0
BITMAP
1E0C
3F0C
3398
71F8
60F0
0000
0000
0000
07C0
1FF0
3EF8
781C
701C
E00C
E00C
E00E
FFFE
FFFC
E000
E000
E000
7000
7800
3F78
1FF8
07E0
ENDCHAR
STARTCHAR 1EBE
ENCODING 7870
SWIDTH 526 0
DWIDTH 19 0
BBX 15 32 3 0
BITMAP
0006
000E
039C
07D0
0CE0
1870
0000
0000
FFFC
FFFC
FFFC
E000
E000
E000
E000
E000
E000
E000
FFF0
FFF0
FFF0
E000
E000
E000
E000
E000
E000
E000
E000
FFFC
FFFC
FFFC
ENDCHAR
STARTCHAR 1EBF
ENCODING 7871
SWIDTH 498 0
DWIDTH 18 0
BBX 16 28 2 0
BITMAP
0002
0007
000E
038C
07C8
0EE0
1830
0000
0000
0000
07C0
1FF0
3EF8
781C
701C
E00C
E00C
E00E
FFFE
FFFC
E000
E000
E000
7000
7800
3F78
1FF8
07E0
ENDCHAR
STARTCHAR 1EC0
ENCODING 7872
SWIDTH 526 0
DWIDTH 19 0
BBX 14 32 3 0
BITMAP
C000
E000
6380
37C0
0CE0
1870
0000
0000
FFFC
FFFC
FFFC
E000
E000
E000
E000
E000
E000
E000
FFF0
FFF0
FFF0
E000
E000
E000
E000
E000
E000
E000
E000
FFFC
FFFC
FFFC
ENDCHAR
STARTCHAR 1EC1
ENCODING 7873
SWIDTH 498 0
DWIDTH 18 0
BBX 16 28 1 0
BITMAP
C000
E000
7000
39C0
13E0
0770
0C18
0000
0000
0000
03E0
0FF8
1F7C
3C0E
380E
7006
7006
7007
7FFF
7FFE
7000
7000
7000
3800
3C00
1FBC
0FFC
03F0
ENDCHAR
STARTCHAR 1EC2
ENCODING 7874
SWIDTH 526 0
DWIDTH 19 0
BBX 15 33 3 0
BITMAP
0038
003C
0006
038E
07DC
0CE0
1870
0000
0000
FFFC
FFFC
FFFC
E000
E000
E000
E000
E000
E000
E000
FFF0
FFF0
FFF0
E000
E000
E000
E000
E000
E000
E000
E000
FFFC
FFFC
FFFC
ENDCHAR
STARTCHAR 1EC3
ENCODING 7875
SWIDTH 498 0
DWIDTH 18 0
BBX 15 28 2 0
BITMAP
003C
000E
0006
038E
07CC
0EE0
1830
0000
0000
0000
07C0
1FF0
3EF8
781C
701C
E00C
E00C
E00E
FFFE
FFFC
E000
E000
E000
7000
7800
3F78
1FF8
07E0
ENDCHAR
STARTCHAR 1EC4
ENCODING 7876
SWIDTH 526 0
DWIDTH 19 0
BBX 14 34 3 1
BITMAP
1E10
3FF0
30E0
0000
0380
07C0
0CE0
1870
0000
0000
FFFC
FFFC
FFFC
E000
E000
E000
E000
E000
E000
E000
FFF0
FFF0
FFF0
E000
E000
E000
E000
E000
E000
E000
E000
FFFC
FFFC
FFFC
ENDCHAR
STARTCHAR 1EC5
ENCODING 7877
SWIDTH 498 0
DWIDTH 18 0
BBX 15 29 2 0
BITMAP
0E10
1FF0
10E0
0000
0380
07C0
1EF0
1830
0000
0000
0000
07C0
1FF0
3EF8
781C
701C
E00C
E00C
E00E
FFFE
FFFC
E000
E000
E000
7000
7800
3F78
1FF8
07E0
ENDCHAR
STARTCHAR 1EC6
ENCODING 7878
SWIDTH 526 0
DWIDTH 19 0
BBX 14 39 3 -8
BITMAP
0380
07C0
0EE0
1870
3038
0000
0000
FFFC
FFFC
FFFC
E000
E000
E000
E000
E000
E000
E000
FFF0
FFF0
FFF0
E000
E000
E000
E000
E000
E000
E000
E000
FFFC
FFFC
FFFC
0000
0000
0000
0000
0180
03C0
03C0
0380
ENDCHAR
STARTCHAR 1EC7
ENCODING 7879
SWIDTH 498 0
DWIDTH 18 0
BBX 15 35 2 -8
BITMAP
0380
07C0
0EE0
1C70
3838
3018
0000
0000
0000
07C0
1FF0
3EF8
781C
701C
E00C
E00C
E00E
FFFE
FFFC
E000
E000
E000
7000
7800
3F78
1FF8
07E0
0000
0000
0000
0000
0380
0380
0380
0380
ENDCHAR
STARTCHAR 1EC8
ENCODING 7880
SWIDTH 276 0
DWIDTH 10 0
BBX 6 32 2 0
BITMAP
60
F8
1C
1C
18
70
00
00
70
70
70
70
70
70
70
70
70
70
70
70
70
70
70
70
70
70
70
70
70
70
70
70
ENDCHAR
STARTCHAR 1EC9
ENCODING 7881
SWIDTH 249 0
DWIDTH 9 0
BBX 5 27 2 0
BITMAP
E0
F8
38
18
18
70
40
00
00
00
70
70
70
70
70
70
70
70
70
70
70
70
70
70
70
70
70
ENDCHAR
STARTCHAR 1ECA
ENCODING 7882
SWIDTH 276 0
DWIDTH 10 0
BBX 4 32 3 -8
BITMAP
E0
E0
E0
E0
E0
E0
E0
E0
E0
E0
E0
E0
E0
E0
E0
E0
E0
E0
E0
E0
E0
E0
E0
E0
00
00
00
00
60
F0
F0
E0
ENDCHAR
STARTCHAR 1ECB
ENCODING 7883
SWIDTH 249 0
DWIDTH 9 0
BBX 5 34 2 -8
BITMAP
70
70
F8
70
00
00
00
00
70
70
70
70
70
70
70
70
70
70
70
70
70
70
70
70
70
70
00
00
00
00
70
70
70
70
ENDCHAR
STARTCHAR 1ECC
ENCODING 7884
SWIDTH 664 0
DWIDTH 24 0
BBX 20 32 2 -8
BITMAP
01F800
07FE00
1FFF80
3E07C0
3803C0
7801E0
7000E0
F000F0
E00070
E00070
E00070
E00070
E00070
E00070
E00070
E00070
7000F0
7000E0
7801E0
3C01C0
1E0780
1FFF80
07FE00
01F800
000000
000000
000000
000000
006000
00F000
00F000
006000
ENDCHAR
STARTCHAR 1ECD
ENCODING 7885
SWIDTH 553 0
DWIDTH 20 0
BBX 16 26 2 -8
BITMAP
07E0
1FF0
3FFC
781C
700E
E00E
E00F
E007
E007
E007
E007
E007
E00E
700E
781C
3FFC
1FF0
07C0
0000
0000
0000
0000
0180
03C0
03C0
0380
ENDCHAR
STARTCHAR 1ECE
ENCODING 7886
SWIDTH 664 0
DWIDTH 24 0
BBX 20 31 2 0
BITMAP
00E000
00F000
003800
003800
007000
006000
000000
01F800
07FE00
1FFF80
3E07C0
3803C0
7801E0
7000E0
F000F0
E00070
E00070
E00070
E00070
E00070
E00070
E00070
E00070
7000F0
7000E0
7801E0
3C01C0
1E0780
1FFF80
07FE00
01F800
ENDCHAR
STARTCHAR 1ECF
ENCODING 7887
SWIDTH 553 0
DWIDTH 20 0
BBX 16 27 2 0
BITMAP
0780
07C0
00E0
00E0
00C0
0380
0000
0000
0000
07E0
1FF0
3FFC
781C
700E
E00E
E00F
E007
E007
E007
E007
E007
E00E
700E
781C
3FFC
1FF0
07C0
ENDCHAR
STARTCHAR 1ED0
ENCODING 7888
SWIDTH 664 0
DWIDTH 24 0
BBX 20 31 2 1
BITMAP
0000C0
000180
00F700
01FA00
039C00
020400
000000
01F800
07FE00
1FFF80
3E07C0
3803C0
7801E0
7000E0
F000F0
E00070
E00070
E00070
E00070
E00070
E00070
E00070
E00070
7000F0
7000E0
7801E0
3C01C0
1E0780
1FFF80
07FE00
01F800
ENDCHAR
STARTCHAR 1ED1
ENCODING 7889
SWIDTH 553 0
DWIDTH 20 0
BBX 16 28 2 0
BITMAP
0003
0007
0006
03CC
07E8
0E70
1830
0000
0000
0000
07E0
1FF0
3FFC
781C
700E
E00E
E00F
E007
E007
E007
E007
E007
E00E
700E
781C
3FFC
1FF0
07C0
ENDCHAR
STARTCHAR 1ED2
ENCODING 7890
SWIDTH 664 0
DWIDTH 24 0
BBX 20 32 2 0
BITMAP
100000
180000
1C0000
0CF000
05F800
039C00
020400
000000
01F800
07FE00
1FFF80
3E07C0
3803C0
7801E0
7000E0
F000F0
E00070
E00070
E00070
E00070
E00070
E00070
E00070
E00070
7000F0
7000E0
7801E0
3C01C0
1E0780
1FFF80
07FE00
01F800
ENDCHAR
STARTCHAR 1ED3
ENCODING 7891
SWIDTH 553 0
DWIDTH 20 0
BBX 17 28 1 0
BITMAP
400000
E00000
700000
39E000
1BF000
073800
0C1800
000000
000000
000000
03F000
0FF800
1FFE00
3C0E00
380700
700700
700780
700380
700380
700380
700380
700380
700700
380700
3C0E00
1FFE00
0FF800
03E000
ENDCHAR
STARTCHAR 1ED4
ENCODING 7892
SWIDTH 664 0
DWIDTH 24 0
BBX 20 32 2 1
BITMAP
000780
000180
000180
00F180
01FB00
039C00
020400
000000
01F800
07FE00
1FFF80
3E07C0
3803C0
7801E0
7000E0
F000F0
E00070
E00070
E00070
E00070
E00070
E00070
E00070
E00070
7000F0
7000E0
7801E0
3C01C0
1E0780
1FFF80
07FE00
01F800
ENDCHAR
STARTCHAR 1ED5
ENCODING 7893
SWIDTH 553 0
DWIDTH 20 0
BBX 16 28 2 0
BITMAP
001E
0006
0006
03C6
07EC
0E70
1830
0000
0000
0000
07E0
1FF0
3FFC
781C
700E
E00E
E00F
E007
E007
E007
E007
E007
E00E
700E
781C
3FFC
1FF0
07C0
ENDCHAR
STARTCHAR 1ED6
ENCODING 7894
SWIDTH 664 0
DWIDTH 24 0
BBX 20 34 2 0
BITMAP
038200
07E600
067E00
041C00
000000
00F000
01F800
039C00
020400
000000
01F800
07FE00
1FFF80
3E07C0
3803C0
7801E0
7000E0
F000F0
E00070
E00070
E00070
E00070
E00070
E00070
E00070
E00070
7000F0
7000E0
7801E0
3C01C0
1E0780
1FFF80
07FE00
01F800
ENDCHAR
STARTCHAR 1ED7
ENCODING 7895
SWIDTH 553 0
DWIDTH 20 0
BBX 16 29 2 0
BITMAP
0F18
1FF0
18F0
0000
03C0
07E0
0E70
1830
0000
0000
0000
07E0
1FF0
3FFC
781C
700E
E00E
E00F
E007
E007
E007
E007
E007
E00E
700E
781C
3FFC
1FF0
07C0
ENDCHAR
STARTCHAR 1ED8
ENCODING 7896
SWIDTH 664 0
DWIDTH 24 0
BBX 20 38 2 -8
BITMAP
00F000
01F800
039C00
070E00
040600
000000
01F800
07FE00
1FFF80
3E07C0
3803C0
7801E0
7000E0
F000F0
E00070
E00070
E00070
E00070
E00070
E00070
E00070
E00070
7000F0
7000E0
7801E0
3C01C0
1E0780
1FFF80
07FE00
01F800
000000
000000
000000
000000
006000
00F000
00F000
006000
ENDCHAR
STARTCHAR 1ED9
ENCODING 7897
SWIDTH 553 0
DWIDTH 20 0
BBX 16 35 2 -8
BITMAP
03C0
07C0
0EE0
0C70
1838
1018
0000
0000
0000
07E0
1FF0
3FFC
781C
700E
E00E
E00F
E007
E007
E007
E007
E007
E00E
700E
781C
3FFC
1FF0
07C0
0000
0000
0000
0000
0180
03C0
03C0
0380
ENDCHAR
STARTCHAR 1EDA
ENCODING 7898
SWIDTH 664 0
DWIDTH 24 0
BBX 20 31 2 0
BITMAP
000C00
001E00
003C10
007870
00E030
004030
000070
01F870
07FFE0
0FFF80
1E07C0
3C01C0
7801E0
7000E0
7000F0
E00070
E00070
E00070
E00070
E00070
E00070
E00070
F00070
7000F0
7000E0
7801E0
3C01C0
1E07C0
0FFF80
07FE00
01F800
ENDCHAR
STARTCHAR 1EDB
ENCODING 7899
SWIDTH 553 0
DWIDTH 20 0
BBX 17 28 2 0
BITMAP
003000
007800
007000
00E000
01C000
038380
030380
000380
000380
000300
07EF00
1FFC00
3FFC00
781C00
700E00
E00E00
E00F00
E00700
E00700
E00700
E00700
E00700
E00E00
700E00
781C00
3FFC00
1FF000
07C000
ENDCHAR
STARTCHAR 1EDC
ENCODING 7900
SWIDTH 664 0
DWIDTH 24 0
BBX 20 31 2 0
BITMAP
030000
078000
03C010
01E070
007030
002030
000070
01F870
07FFE0
0FFF80
1E07C0
3C01C0
7801E0
7000E0
7000F0
E00070
E00070
E00070
E00070
E00070
E00070
E00070
F00070
7000F0
7000E0
7801E0
3C01C0
1E07C0
0FFF80
07FE00
01F800
ENDCHAR
STARTCHAR 1EDD
ENCODING 7901
SWIDTH 553 0
DWIDTH 20 0
BBX 17 28 2 0
BITMAP
080000
1C0000
1E0000
0F0000
078000
03C380
018380
000380
000380
000300
07EF00
1FFC00
3FFC00
781C00
700E00
E00E00
E00F00
E00700
E00700
E00700
E00700
E00700
E00E00
700E00
781C00
3FFC00
1FF000
07C000
ENDCHAR
STARTCHAR 1EDE
ENCODING 7902
SWIDTH 664 0
DWIDTH 24 0
BBX 20 31 2 0
BITMAP
00E000
00F000
003810
003870
007030
006030
000070
01F870
07FFE0
0FFF80
1E07C0
3C01C0
7801E0
7000E0
7000F0
E00070
E00070
E00070
E00070
E00070
E00070
E00070
F00070
7000F0
7000E0
7801E0
3C01C0
1E07C0
0FFF80
07FE00
01F800
ENDCHAR
STARTCHAR 1EDF
ENCODING 7903
SWIDTH 553 0
DWIDTH 20 0
BBX 17 27 2 0
BITMAP
078000
07C000
00E000
00E000
00C380
038380
000380
000380
000300
07EF00
1FFC00
3FFC00
781C00
700E00
E00E00
E00F00
E00700
E00700
E00700
E00700
E00700
E00E00
700E00
781C00
3FFC00
1FF000
07C000
ENDCHAR
STARTCHAR 1EE0
ENCODING 7904
SWIDTH 664 0
DWIDTH 24 0
BBX 20 30 2 0
BITMAP
078300
0FC310
0CF770
1C7E30
001C30
000070
01F870
07FFE0
0FFF80
1E07C0
3C01C0
7801E0
7000E0
7000F0
E00070
E00070
E00070
E00070
E00070
E00070
E00070
F00070
7000F0
7000E0
7801E0
3C01C0
1E07C0
0FFF80
07FE00
01F800
ENDCHAR
STARTCHAR 1EE1
ENCODING 7905
SWIDTH 553 0
DWIDTH 20 0
BBX 17 26 2 0
BITMAP
1E1800
3F1800
739800
61FB80
60F380
000380
000380
000300
07EF00
1FFC00
3FFC00
781C00
700E00
E00E00
E00F00
E00700
E00700
E00700
E00700
E00700
E00E00
700E00
781C00
3FFC00
1FF000
07C000
ENDCHAR
STARTCHAR 1EE2
ENCODING 7906
SWIDTH 664 0
DWIDTH 24 0
BBX 20 37 2 -8
BITMAP
000010
000070
000030
000030
000070
01F870
07FFE0
0FFF80
1E07C0
3C01C0
7801E0
7000E0
7000F0
E00070
E00070
E00070
E00070
E00070
E00070
E00070
F00070
7000F0
7000E0
7801E0
3C01C0
1E07C0
0FFF80
07FE00
01F800
000000
000000
000000
000000
006000
00F000
00F000
006000
ENDCHAR
STARTCHAR 1EE3
ENCODING 7907
SWIDTH 553 0
DWIDTH 20 0
BBX 17 31 2 -7
BITMAP
000380
000380
000380
000380
000300
07EF00
1FFC00
3FFC00
781C00
700E00
E00E00
E00F00
E00700
E00700
E00700
E00700
E00700
E00E00
700E00
781C00
3FFC00
1FF000
07C000
000000
000000
000000
000000
018000
03C000
03C000
038000
ENDCHAR
STARTCHAR 1EE4
ENCODING 7908
SWIDTH 636 0
DWIDTH 23 0
BBX 17 32 3 -8
BITMAP
E00380
E00380
E00380
E00380
E00380
E00380
E00380
E00380
E00380
E00380
E00380
E00380
E00380
E00380
E00380
E00380
E00380
F00380
700780
780700
3C0F00
3FFE00
1FFC00
07F000
000000
000000
000000
000000
00C000
01E000
01E000
01C000
ENDCHAR
STARTCHAR 1EE5
ENCODING 7909
SWIDTH 553 0
DWIDTH 20 0
BBX 14 26 3 -8
BITMAP
E01C
E01C
E01C
E01C
E01C
E01C
E01C
E01C
E01C
E01C
E01C
E01C
E01C
E03C
F07C
7FDC
7F9C
1F1C
0000
0000
0000
0000
0380
0380
0380
0380
ENDCHAR
STARTCHAR 1EE6
ENCODING 7910
SWIDTH 636 0
DWIDTH 23 0
BBX 17 32 3 0
BITMAP
03C000
03E000
006000
006000
00E000
01C000
000000
000000
E00380
E00380
E00380
E00380
E00380
E00380
E00380
E00380
E00380
E00380
E00380
E00380
E00380
E00380
E00380
E00380
E00380
700380
700780
780700
3C0F00
3FFE00
1FFC00
07F000
ENDCHAR
STARTCHAR 1EE7
ENCODING 7911
SWIDTH 553 0
DWIDTH 20 0
BBX 14 28 3 0
BITMAP
0E00
0F80
01C0
01C0
01C0
0780
0200
0000
0000
0000
E01C
E01C
E01C
E01C
E01C
E01C
E01C
E01C
E01C
E01C
E01C
E01C
E01C
E03C
F07C
7FDC
7F9C
1F1C
ENDCHAR
STARTCHAR 1EE8
ENCODING 7912
SWIDTH 664 0
DWIDTH 24 0
BBX 21 31 3 1
BITMAP
001800
007818
00F038
01E018
018018
000038
000070
E003E0
E00380
E00380
E00380
E00380
E00380
E00380
E00380
E00380
E00380
E00380
E00380
E00380
E00380
E00380
E00380
E00380
F00380
700780
780700
3C0F00
3FFE00
1FFC00
07F000
ENDCHAR
STARTCHAR 1EE9
ENCODING 7913
SWIDTH 553 0
DWIDTH 20 0
BBX 17 28 3 1
BITMAP
006000
00F000
01E000
03C000
078380
060380
000380
000380
000380
000700
E01E00
E01C00
E01C00
E01C00
E01C00
E01C00
E01C00
E01C00
E01C00
E01C00
E01C00
E01C00
E01C00
E03C00
F07C00
7FDC00
7F9C00
1F1C00
ENDCHAR
STARTCHAR 1EEA
ENCODING 7914
SWIDTH 664 0
DWIDTH 24 0
BBX 21 32 3 0
BITMAP
040000
0E0000
0F0018
078038
01C018
00C018
000038
000070
E003E0
E00380
E00380
E00380
E00380
E00380
E00380
E00380
E00380
E00380
E00380
E00380
E00380
E00380
E00380
E00380
E00380
F00380
700780
780700
3C0F00
3FFE00
1FFC00
07F000
ENDCHAR
STARTCHAR 1EEB
ENCODING 7915
SWIDTH 553 0
DWIDTH 20 0
BBX 17 29 3 0
BITMAP
100000
380000
380000
1C0000
0E0000
070380
038380
000380
000380
000380
000700
E01E00
E01C00
E01C00
E01C00
E01C00
E01C00
E01C00
E01C00
E01C00
E01C00
E01C00
E01C00
E01C00
E03C00
F07C00
7FDC00
7F9C00
1F1C00
ENDCHAR
STARTCHAR 1EEC
ENCODING 7916
SWIDTH 664 0
DWIDTH 24 0
BBX 21 32 3 0
BITMAP
03C000
03E000
006018
006038
00E018
01C018
000038
000070
E003E0
E00380
E00380
E00380
E00380
E00380
E00380
E00380
E00380
E00380
E00380
E00380
E00380
E00380
E00380
E00380
E00380
700380
700780
780700
3C0F00
3FFE00
1FFC00
07F000
ENDCHAR
STARTCHAR 1EED
ENCODING 7917
SWIDTH 553 0
DWIDTH 20 0
BBX 17 28 3 0
BITMAP
0E0000
0F8000
038000
018000
018380
078380
060380
000380
000380
000700
E01E00
E01C00
E01C00
E01C00
E01C00
E01C00
E01C00
E01C00
E01C00
E01C00
E01C00
E01C00
E01C00
E03C00
F07C00
7FDC00
7F9C00
1F1C00
ENDCHAR
STARTCHAR 1EEE
ENCODING 7918
SWIDTH 664 0
DWIDTH 24 0
BBX 21 31 3 0
BITMAP
0F0600
1F8638
19CE18
38FC18
307818
000038
000070
E003E0
E00380
E00380
E00380
E00380
E00380
E00380
E00380
E00380
E00380
E00380
E00380
E00380
E00380
E00380
E00380
E00380
F00380
700780
780700
3C0F00
3FFE00
1FFC00
07F000
ENDCHAR
STARTCHAR 1EEF
ENCODING 7919
SWIDTH 553 0
DWIDTH 20 0
BBX 17 26 3 0
BITMAP
3C1800
7E1800
673180
E3F380
C1E380
000380
000380
000700
E01E00
E01C00
E01C00
E01C00
E01C00
E01C00
E01C00
E01C00
E01C00
E01C00
E01C00
E01C00
E01C00
E03C00
F07C00
7FDC00
7F9C00
1F1C00
ENDCHAR
ENDFONT
